<svg width="591" height="689" viewBox="0 0 591 689" fill="none" xmlns="http://www.w3.org/2000/svg">
<path d="M386.44 594.114C409.625 559.004 423.171 518.226 423.171 476V233.692C447.147 278.062 545.047 326.308 591 331.154V178.231C489.104 168.754 450.976 55.4615 444.649 0H297V476C297 493.206 291.934 509.525 282.486 523.832C273.039 538.138 259.612 549.288 243.902 555.873C228.192 562.457 210.905 564.18 194.227 560.823C177.549 557.466 162.23 549.181 150.206 537.015C138.182 524.848 129.993 509.347 126.676 492.472C123.359 475.596 125.061 458.105 131.569 442.209C138.076 426.312 149.096 412.726 163.234 403.167C177.373 393.608 193.996 388.505 211 388.505V262C169.268 262 128.473 274.522 93.7747 297.981C59.0759 321.441 32.0315 354.785 16.0614 393.797C0.0913315 432.809 -4.08717 475.737 4.05431 517.152C12.1958 558.567 32.2916 596.609 61.8005 626.467C91.3093 656.326 128.906 676.66 169.836 684.898C210.766 693.136 253.191 688.908 291.746 672.748C330.301 656.589 363.255 629.224 386.44 594.114Z" fill="#C4C4C4"/>
</svg>
