<svg width="931" height="572" viewBox="0 0 931 572" fill="none" xmlns="http://www.w3.org/2000/svg">
<path fill-rule="evenodd" clip-rule="evenodd" d="M439 17H425C426.105 17 427 17.8954 427 19V474C427 475.105 426.105 476 425 476H12C10.8954 476 10 475.105 10 474V556C10 564.837 17.1635 572 26 572H439C447.837 572 455 564.837 455 556V33C455 24.1634 447.837 17 439 17Z" fill="black" fill-opacity="0.25"/>
<path fill-rule="evenodd" clip-rule="evenodd" d="M915 17H901C902.105 17 903 17.8954 903 19V474C903 475.105 902.105 476 901 476H488C486.895 476 486 475.105 486 474V556C486 564.837 493.163 572 502 572H915C923.837 572 931 564.837 931 556V33C931 24.1634 923.837 17 915 17Z" fill="black" fill-opacity="0.25"/>
<circle cx="229.5" cy="239.5" r="112.5" fill="#F1D7B1"/>
<path fill-rule="evenodd" clip-rule="evenodd" d="M261.429 121.818C265.541 136.97 270.899 171.028 265.431 176.371H230.838C230.834 176.31 230.831 176.248 230.827 176.187C218.006 174.768 208.033 163.897 208.033 150.697V125.647C208.033 111.482 219.516 100 233.68 100H236.066C248.929 100 259.58 109.47 261.429 121.818Z" fill="#D0B8EE"/>
<path fill-rule="evenodd" clip-rule="evenodd" d="M221.468 145.914C215.971 139.462 212.251 131.555 212.872 122.695C214.664 97.1669 250.2 102.783 257.112 115.667C264.025 128.552 263.203 161.234 254.269 163.537C250.707 164.455 243.117 162.206 235.392 157.55L240.241 191.852H211.612L221.468 145.914Z" fill="#7EADF3"/>
<path fill-rule="evenodd" clip-rule="evenodd" d="M229.207 141.601C230.526 155.77 229.997 171.951 226.066 175.792H191.473C189.545 142.304 208.173 155.272 208.173 123.742C209.335 122.607 210.432 121.484 211.518 120.515L211.479 119.588C217.47 107.325 225.069 101.193 234.278 101.193C248.092 101.193 252.452 107.62 256.164 113.078C253.388 122.603 242.615 124.015 233.043 129.953C231.915 129.036 230.476 128.486 228.909 128.486C225.285 128.486 222.348 131.424 222.348 135.047C222.348 138.671 225.285 141.608 228.909 141.608C229.009 141.608 229.108 141.606 229.207 141.601Z" fill="#D0B8EE"/>
<path fill-rule="evenodd" clip-rule="evenodd" d="M165.576 407.867C194.193 415.871 218.882 419.873 239.644 419.873C260.406 419.873 279.691 413.71 297.499 401.384C269.495 393.169 246.433 389.061 228.312 389.061C210.191 389.061 189.279 395.33 165.576 407.867Z" fill="#1F28CF"/>
<path fill-rule="evenodd" clip-rule="evenodd" d="M260.663 420.853C260.404 420.47 260.184 420.053 260.01 419.602C256.41 410.256 198.745 309.433 193 291H257.923C262.291 305.015 281.95 392.965 284.717 410.513C293.447 438.192 311.42 527.835 313.715 534.045C316.128 540.578 302.547 547.384 298.928 539.352C293.169 526.573 279.449 491.212 273.339 469.621C267.612 449.38 262.948 431.169 260.663 420.853Z" fill="#7EADF3"/>
<path fill-rule="evenodd" clip-rule="evenodd" d="M207.982 444.734C179.971 451.813 77.5131 464.612 70.482 466.619C63.2492 468.684 56.9074 453.776 65.8475 450.547C80.0728 445.408 119.27 433.535 143.035 428.69C162.151 424.793 179.594 421.613 191.304 419.751C190.312 386.855 185.777 307.911 188.75 290.86H249.784C246.933 307.211 222.837 426.512 218.358 438.453C216.937 442.717 212.696 444.601 207.982 444.734Z" fill="#7EADF3"/>
<path fill-rule="evenodd" clip-rule="evenodd" d="M66.4967 446.577C62.7566 445.881 60.0156 445.687 58.2738 445.994C56.1554 446.368 53.1263 447.266 49.1866 448.688C49.62 451.146 53.5143 473.232 60.8697 514.947C66.8656 515.665 69.7634 514.129 69.5632 510.339C69.3629 506.549 69.2294 503.396 69.1625 500.877L77.4614 467.66C77.6211 467.021 77.2324 466.374 76.5932 466.214C76.5823 466.211 76.5713 466.209 76.5603 466.206L71.4093 465.073C69.2015 461.922 67.9083 459.272 67.5297 457.125C67.2221 455.381 67.5018 452.847 68.3689 449.525L68.3689 449.525C68.7016 448.25 67.9379 446.947 66.6629 446.614C66.608 446.6 66.5525 446.587 66.4967 446.577Z" fill="#E4E4E4"/>
<path fill-rule="evenodd" clip-rule="evenodd" d="M188.947 290.86C215.843 283.165 241.291 283.165 265.291 290.86C273.641 328.958 293.931 344.079 297.499 402.488C256.941 422.641 206.84 388.116 165.089 407.769C153.161 380.28 169.861 314.079 188.947 290.86Z" fill="#FF2B38"/>
<path fill-rule="evenodd" clip-rule="evenodd" d="M304.656 243.516L351.754 237.092C361.176 231.851 369.843 228.303 377.756 226.448C379.983 226.383 383.526 227.193 378.248 231.592C372.971 235.992 367.616 240.859 368.557 243.207C369.497 245.555 374.405 244.681 375.218 248.292C375.76 250.7 367.795 251.091 351.322 249.466L313.106 264.617L304.656 243.516ZM156.703 254.418L182.824 254.516C154.182 318.971 139.247 352.719 138.021 355.76C135.26 362.6 141.101 373.018 143.599 378.617C135.464 382.257 136.331 368.775 126.068 373.55C116.701 377.908 109.575 385.804 98.7523 379.127C97.4218 378.306 95.9637 375.214 99.4866 372.799C108.264 366.78 120.912 356.248 122.621 352.781C124.951 348.053 136.312 315.265 156.703 254.418Z" fill="#7EADF3"/>
<path fill-rule="evenodd" clip-rule="evenodd" d="M228.252 171.573L248.703 172.935C253.74 218.504 281.176 247.288 342.603 237.544L350.764 296.227C293.351 303.647 243 280.661 232.681 218.427C230.009 202.317 227.9 185.551 228.252 171.573Z" fill="#3E5B6F"/>
<path fill-rule="evenodd" clip-rule="evenodd" d="M218.162 165.627L249.149 172.724C249.149 226.021 266.126 260.025 274.834 299.21H191.146C189.967 312.751 189.243 326.668 188.866 340.961H126.204C140.403 265.409 170.374 206.958 216.116 165.608H218.145L218.162 165.627Z" fill="#49677C"/>
<path fill-rule="evenodd" clip-rule="evenodd" d="M204.35 223.176C202.193 256.387 203.461 281.732 208.155 299.21H191.146C193.481 272.387 197.602 247.042 204.35 223.176V223.176Z" fill="black" fill-opacity="0.1"/>
<path fill-rule="evenodd" clip-rule="evenodd" d="M711.149 160.537C717.783 152.75 722.273 143.206 721.523 132.512C719.361 101.701 676.471 108.479 668.127 124.03C659.784 139.581 660.776 179.027 671.558 181.807C675.859 182.915 685.019 180.2 694.342 174.58L688.49 215.981H723.044L711.149 160.537Z" fill="#FB9090"/>
<path fill-rule="evenodd" clip-rule="evenodd" d="M700.397 143.802C701.527 143.026 702.877 142.554 704.328 142.554C708.303 142.554 711.526 146.099 711.526 149.753C711.526 153.554 709.731 156.492 707.168 157.739C708.537 160.415 709.914 162.358 711.526 162.711C717.749 162.081 725.924 146.615 725.924 133.916C725.924 120.015 714.864 108 694.249 108C675.721 108 668.696 115.64 668.334 122.398C676.273 124.58 690.147 125.42 710.087 125.277V126.717L692.81 128.157L689.93 136.795C694.511 136.453 697.785 139.595 700.397 143.802Z" fill="#A9003D"/>
<path d="M737.25 561C675.947 561 626.25 519.139 626.25 467.5C626.25 415.861 675.947 374 737.25 374C798.554 374 848.25 415.861 848.25 467.5C848.25 519.139 798.554 561 737.25 561Z" fill="#C5CFD6"/>
<path fill-rule="evenodd" clip-rule="evenodd" d="M545.381 524C562.356 493.141 574.632 466.271 579.56 452.093C587.997 427.819 594.416 406.459 596.038 398.482C599.907 379.46 566.279 378.352 561.834 387.806C555.107 402.114 543.362 449.126 529.25 520.134L545.381 524ZM742.282 427.156C726.708 422.1 672.166 406.276 645.861 401.799C638.302 400.513 630.975 399.318 624.087 398.238C603.613 395.027 593.005 425.365 612.724 427.696C661.833 433.501 731.452 439.496 737.41 440.169C745.761 441.112 752.07 430.334 742.282 427.156Z" fill="#FB9090"/>
<path fill-rule="evenodd" clip-rule="evenodd" d="M599.82 392.231L691.37 345.626V335.481H680.482C591.912 358.05 546.653 372.514 544.704 378.872C544.683 378.94 544.664 379.009 544.647 379.077C544.602 379.136 544.558 379.195 544.515 379.254C526.963 403.394 516.45 521.248 513 530.072L546.635 535.09C559.501 487.38 600.666 454.143 599.572 397C599.867 395.324 599.942 393.734 599.82 392.231Z" fill="#1F28CF"/>
<path fill-rule="evenodd" clip-rule="evenodd" d="M683.763 419.909C692.14 418.232 699.854 416.735 706.455 415.578C749.091 408.099 761.524 385.277 754.172 335.481H675.616C662.784 339.167 596.096 367.134 561.495 382.008C538.594 391.853 545.813 427.344 558.782 436.58C558.852 437.146 559.085 437.531 559.501 437.703C629.263 466.617 684.452 451.446 702.888 456.294L711.415 429.394L683.763 419.909Z" fill="#2B44FF"/>
<path fill-rule="evenodd" clip-rule="evenodd" d="M736.134 437.262C740.705 437.7 743.95 438.386 745.869 439.322C748.202 440.46 751.418 442.51 755.515 445.471C754.195 448.178 742.329 472.506 719.918 518.457C712.722 517.295 709.871 514.55 711.364 510.219C712.857 505.889 714.062 502.274 714.977 499.375L716.399 458.076C716.427 457.281 717.093 456.659 717.888 456.686C717.901 456.687 717.915 456.687 717.928 456.688L724.281 457.087C727.892 454.165 730.273 451.522 731.427 449.157C732.364 447.235 732.882 444.203 732.982 440.06L732.982 440.06C733.02 438.47 734.339 437.212 735.929 437.25C735.998 437.252 736.066 437.256 736.134 437.262Z" fill="#E4E4E4"/>
<path fill-rule="evenodd" clip-rule="evenodd" d="M605.144 306.875L559.218 340.599C546.762 343.96 536.356 348.142 527.998 353.145C526.024 354.943 523.638 358.586 531.825 357.957C540.013 357.327 548.652 357.033 549.782 359.826C550.912 362.618 545.957 365.958 548.241 369.725C549.763 372.237 556.955 365.939 569.818 350.83L615.296 331.971L605.144 306.875ZM812.973 292.828L787.617 297.419C817.045 355.817 832.807 386.694 834.903 390.051C839.617 397.603 834.858 411.211 833.062 418.389C843.495 421.011 839.639 405.168 852.838 408.692C864.886 411.909 875.011 419.801 886.475 409.595C887.885 408.341 888.97 404.361 884.276 402.228C872.582 396.914 855.341 387.045 852.583 383.282C848.822 378.151 835.619 348 812.973 292.828Z" fill="#FB9090"/>
<path fill-rule="evenodd" clip-rule="evenodd" d="M594.445 310.541C588.536 310.117 582.109 311.096 575.218 313.418C571.827 314.56 570.004 318.236 571.147 321.626C571.81 323.596 573.328 325.036 575.148 325.674C573.83 326.636 572.5 327.593 571.158 328.544L582.743 352.196C631.498 327.887 677.322 309.559 698.203 269.427C705.211 255.958 702.839 210.206 703.508 193.561L688.11 187.246C666.646 231.615 637.597 274.181 594.445 310.541Z" fill="#69A1AC"/>
<path fill-rule="evenodd" clip-rule="evenodd" d="M757.599 348.309C712.335 353.281 676.708 353.281 650.717 348.309C647.497 347.693 647.638 333.811 649.131 330.02C672.386 270.983 687.684 227.764 687.684 186.758C691.951 188.987 699.418 189.321 710.087 187.76C738.758 230.019 751.937 278.505 757.599 348.309Z" fill="#A9003D"/>
<path fill-rule="evenodd" clip-rule="evenodd" d="M766.009 355.289C767.546 353.842 768.347 351.674 767.953 349.441L767.203 345.187C766.695 342.304 764.354 340.205 761.59 339.877C761.106 337.717 760.69 335.571 760.346 333.441C757.439 315.45 762.405 297.809 762.172 280.485C785.323 300.238 806.092 334.345 824.478 382.807L851.67 374.806C850.633 370.951 849.558 367.144 848.446 363.384C851.585 361.601 855.252 353.429 852.613 352.061C849.887 350.649 846.999 349.655 843.958 349.07C819.025 273.973 778.252 219.052 721.64 184.307H716.631L705.266 184.307C710.087 248.06 643.498 387.247 666.619 506.118C709.355 515.661 770.366 485.968 829.755 509.691C827.545 461.821 783.279 405.584 766.009 355.289Z" fill="#89C5CC"/>
<path fill-rule="evenodd" clip-rule="evenodd" d="M715.693 185.747L723.121 208.589L708.163 225.713L721.681 239.169L688.976 295.168L728.971 239.281L715.693 225.713L728.971 210.58L715.693 185.747Z" fill="black" fill-opacity="0.1"/>
<path fill-rule="evenodd" clip-rule="evenodd" d="M698.569 316.764C701.749 316.764 704.328 314.186 704.328 311.005C704.328 307.825 701.749 305.246 698.569 305.246C695.388 305.246 692.81 307.825 692.81 311.005C692.81 314.186 695.388 316.764 698.569 316.764ZM691.37 349.878C694.55 349.878 697.129 347.3 697.129 344.119C697.129 340.939 694.55 338.36 691.37 338.36C688.189 338.36 685.611 340.939 685.611 344.119C685.611 347.3 688.189 349.878 691.37 349.878ZM689.93 382.993C693.111 382.993 695.689 380.414 695.689 377.234C695.689 374.053 693.111 371.475 689.93 371.475C686.749 371.475 684.171 374.053 684.171 377.234C684.171 380.414 686.749 382.993 689.93 382.993Z" fill="black" fill-opacity="0.4"/>
<rect x="28" y="42" width="12" height="465" fill="black" fill-opacity="0.25"/>
<rect x="40" y="91" width="12" height="380" transform="rotate(-90 40 91)" fill="black" fill-opacity="0.25"/>
<path fill-rule="evenodd" clip-rule="evenodd" d="M16 0C7.16344 0 0 7.16346 0 16V545C0 553.837 7.16343 561 16 561H428C436.837 561 444 553.837 444 545V16C444 7.16344 436.837 0 428 0H16ZM30 80.1429C28.8954 80.1429 28 81.0383 28 82.1429V461.611C28 462.716 28.8954 463.611 30 463.611H414C415.105 463.611 416 462.716 416 461.611V82.1429C416 81.0383 415.105 80.1429 414 80.1429H30Z" fill="#EFEFEF"/>
<path d="M64.8571 485.797C64.8571 491.208 60.6358 495.594 55.4286 495.594C50.2213 495.594 46 491.208 46 485.797C46 480.386 50.2213 476 55.4286 476C60.6358 476 64.8571 480.386 64.8571 485.797Z" fill="#F25E5E"/>
<path d="M79 485.797C79 491.208 74.7787 495.594 69.5714 495.594C64.3642 495.594 60.1429 491.208 60.1429 485.797C60.1429 480.386 64.3642 476 69.5714 476C74.7787 476 79 480.386 79 485.797Z" fill="#F25E5E"/>
<path d="M49.166 493.145L62.5 479.29L75.834 493.145L62.5 507L49.166 493.145Z" fill="#F25E5E"/>
<path d="M137.346 496.285V496.646L137.576 496.924C140.051 499.905 141.834 502.076 143.048 503.614C141.844 502.872 140.384 501.991 138.81 501.164L138.383 500.94L137.942 501.135C124.013 507.275 114.499 506.84 108.539 504.009C102.568 501.173 100 495.868 100 491.851C100 483.691 107.215 476 119.12 476C125.02 476 129.541 478.215 132.602 481.802C135.679 485.408 137.346 490.482 137.346 496.285Z" stroke="#B4BDC6" stroke-width="2"/>
<path d="M200.227 478.874L190.113 509.214L182.89 496.211L200.227 478.874ZM168.473 487.573L198.812 477.46L181.476 494.797L168.473 487.573Z" stroke="#B4BDC6" stroke-width="2"/>
<rect x="99" y="36" width="185" height="8" rx="4" fill="#B4BDC6"/>
<rect x="100" y="52" width="151" height="6" rx="3" fill="#B4BDC6"/>
<rect x="31" y="521" width="159" height="6" rx="3" fill="#B4BDC6"/>
<rect x="32" y="537" width="120" height="6" rx="3" fill="#B4BDC6"/>
<circle cx="63" cy="44" r="27" fill="#B4BDC6"/>
<mask id="mask0" mask-type="alpha" maskUnits="userSpaceOnUse" x="36" y="17" width="54" height="54">
<circle cx="63" cy="44" r="27" fill="#B4BDC6"/>
</mask>
<g mask="url(#mask0)">
<circle cx="62.5" cy="40.5" r="8.5" fill="#EFEFEF"/>
<rect x="50" y="52" width="25" height="27" rx="10" fill="#EFEFEF"/>
</g>
<rect x="503" y="42" width="12" height="465" fill="black" fill-opacity="0.25"/>
<rect x="515" y="91" width="12" height="380" transform="rotate(-90 515 91)" fill="black" fill-opacity="0.25"/>
<path fill-rule="evenodd" clip-rule="evenodd" d="M491 0C482.163 0 475 7.16346 475 16V545C475 553.837 482.163 561 491 561H903C911.837 561 919 553.837 919 545V16C919 7.16344 911.837 0 903 0H491ZM505 80.1429C503.895 80.1429 503 81.0383 503 82.1429V461.611C503 462.716 503.895 463.611 505 463.611H889C890.105 463.611 891 462.716 891 461.611V82.1429C891 81.0383 890.105 80.1429 889 80.1429H505Z" fill="#EFEFEF"/>
<path d="M539.857 485.797C539.857 491.208 535.636 495.594 530.429 495.594C525.221 495.594 521 491.208 521 485.797C521 480.386 525.221 476 530.429 476C535.636 476 539.857 480.386 539.857 485.797Z" fill="#F25E5E"/>
<path d="M554 485.797C554 491.208 549.779 495.594 544.571 495.594C539.364 495.594 535.143 491.208 535.143 485.797C535.143 480.386 539.364 476 544.571 476C549.779 476 554 480.386 554 485.797Z" fill="#F25E5E"/>
<path d="M524.166 493.145L537.5 479.29L550.834 493.145L537.5 507L524.166 493.145Z" fill="#F25E5E"/>
<path d="M612.346 496.285V496.646L612.576 496.924C615.051 499.905 616.834 502.076 618.048 503.614C616.844 502.872 615.384 501.991 613.81 501.164L613.383 500.94L612.942 501.135C599.013 507.275 589.499 506.84 583.539 504.009C577.568 501.173 575 495.868 575 491.851C575 483.691 582.215 476 594.12 476C600.02 476 604.541 478.215 607.602 481.802C610.679 485.408 612.346 490.482 612.346 496.285Z" stroke="#B4BDC6" stroke-width="2"/>
<path d="M675.227 478.874L665.113 509.214L657.89 496.211L675.227 478.874ZM643.473 487.573L673.812 477.46L656.476 494.797L643.473 487.573Z" stroke="#B4BDC6" stroke-width="2"/>
<rect x="574" y="36" width="185" height="8" rx="4" fill="#B4BDC6"/>
<rect x="575" y="52" width="151" height="6" rx="3" fill="#B4BDC6"/>
<rect x="506" y="521" width="159" height="6" rx="3" fill="#B4BDC6"/>
<rect x="507" y="537" width="120" height="6" rx="3" fill="#B4BDC6"/>
<circle cx="538" cy="44" r="27" fill="#B4BDC6"/>
<mask id="mask1" mask-type="alpha" maskUnits="userSpaceOnUse" x="511" y="17" width="54" height="54">
<circle cx="538" cy="44" r="27" fill="#B4BDC6"/>
</mask>
<g mask="url(#mask1)">
<circle cx="537.5" cy="40.5" r="8.5" fill="#EFEFEF"/>
<rect x="525" y="52" width="25" height="27" rx="10" fill="#EFEFEF"/>
</g>
<path d="M395.721 196.981C396.14 195.72 395.236 194.409 393.91 194.352L371.535 193.384C370.643 193.346 369.833 193.904 369.551 194.752L353.024 244.514C352.742 245.362 353.057 246.294 353.796 246.797L372.304 259.407C373.401 260.155 374.909 259.645 375.328 258.385L395.721 196.981Z" fill="#343434"/>
<path d="M394.466 196.564C394.884 195.303 393.981 193.992 392.654 193.935L370.28 192.967C369.387 192.929 368.577 193.487 368.296 194.335L351.769 244.097C351.487 244.945 351.802 245.877 352.541 246.38L371.048 258.99C372.146 259.738 373.654 259.228 374.072 257.968L394.466 196.564Z" fill="#5C5C5C"/>
<path d="M390.968 200.797C391.383 199.548 390.5 198.246 389.187 198.17L370.889 197.103C369.986 197.05 369.16 197.61 368.875 198.469L355.832 237.74C355.547 238.599 355.874 239.542 356.629 240.04L371.929 250.132C373.027 250.856 374.514 250.341 374.929 249.092L390.968 200.797Z" fill="#EFEFEF"/>
</svg>
