<svg width="914" height="561" viewBox="0 0 914 561" fill="none" xmlns="http://www.w3.org/2000/svg">
<path d="M395.721 196.981C396.14 195.72 395.236 194.409 393.91 194.352L371.535 193.384C370.643 193.346 369.833 193.904 369.551 194.752L353.024 244.514C352.742 245.362 353.057 246.294 353.796 246.797L372.304 259.407C373.401 260.155 374.909 259.645 375.328 258.385L395.721 196.981Z" fill="#343434"/>
<path d="M394.466 196.564C394.884 195.303 393.981 193.992 392.654 193.935L370.28 192.967C369.387 192.929 368.577 193.487 368.296 194.335L351.769 244.097C351.487 244.945 351.802 245.877 352.541 246.38L371.048 258.99C372.146 259.738 373.654 259.228 374.072 257.968L394.466 196.564Z" fill="#5C5C5C"/>
<path d="M390.968 200.797C391.383 199.548 390.5 198.246 389.187 198.17L370.889 197.103C369.986 197.05 369.16 197.61 368.875 198.469L355.832 237.74C355.547 238.599 355.874 239.542 356.629 240.04L371.929 250.132C373.027 250.856 374.514 250.341 374.929 249.092L390.968 200.797Z" fill="#EFEFEF"/>
<g filter="url(#filter0_i)">
<circle r="2.05866" transform="matrix(-0.44819 -0.893938 -0.625819 0.779968 362.225 248.122)" fill="#5C5C5C"/>
</g>
<circle r="1.05866" transform="matrix(-0.44819 -0.893938 -0.625819 0.779968 362.225 248.122)" stroke="#BABABA" stroke-width="2"/>
<mask id="path-6-inside-1" fill="white">
<path d="M383.24 195.505C383.348 195.155 382.826 195.088 382.459 195.076L377.791 194.919C377.493 194.909 377.056 194.923 376.939 195.205C376.813 195.51 377.293 195.582 377.615 195.593L382.519 195.757C382.71 195.764 382.918 195.77 383.102 195.66C383.182 195.612 383.223 195.559 383.24 195.505Z"/>
</mask>
<path d="M383.24 195.505C383.348 195.155 382.826 195.088 382.459 195.076L377.791 194.919C377.493 194.909 377.056 194.923 376.939 195.205C376.813 195.51 377.293 195.582 377.615 195.593L382.519 195.757C382.71 195.764 382.918 195.77 383.102 195.66C383.182 195.612 383.223 195.559 383.24 195.505Z" fill="#BABABA"/>
<path d="M382.155 196.028L377.487 195.872L378.094 193.967L382.762 194.123L382.155 196.028ZM377.919 194.64L382.822 194.804L382.215 196.71L377.312 196.546L377.919 194.64ZM382.705 194.901C382.634 194.943 382.536 195.014 382.441 195.123C382.343 195.236 382.275 195.36 382.238 195.481L384.242 195.529C384.123 195.916 383.825 196.224 383.499 196.419L382.705 194.901ZM382.822 194.804C382.872 194.806 382.902 194.807 382.927 194.807C382.952 194.807 382.958 194.805 382.952 194.806C382.943 194.807 382.84 194.82 382.705 194.901L383.499 196.419C383.18 196.609 382.881 196.674 382.673 196.698C382.477 196.721 382.298 196.713 382.215 196.71L382.822 194.804ZM377.907 195.324C377.944 195.236 377.968 195.131 377.962 195.021C377.956 194.913 377.922 194.826 377.882 194.764C377.843 194.703 377.799 194.667 377.772 194.648C377.744 194.629 377.723 194.62 377.718 194.618C377.71 194.615 377.724 194.621 377.772 194.628C377.815 194.634 377.867 194.639 377.919 194.64L377.312 196.546C377.118 196.539 376.786 196.514 376.5 196.401C376.357 196.344 376.149 196.235 376.011 196.021C375.851 195.776 375.822 195.444 375.971 195.085L377.907 195.324ZM377.487 195.872C377.427 195.87 377.377 195.87 377.335 195.872C377.29 195.874 377.279 195.878 377.294 195.875C377.303 195.873 377.401 195.851 377.531 195.765C377.601 195.719 377.679 195.655 377.75 195.573C377.823 195.49 377.874 195.404 377.907 195.324L375.971 195.085C376.271 194.363 376.981 194.105 377.3 194.03C377.627 193.954 377.939 193.961 378.094 193.967L377.487 195.872ZM382.762 194.123C382.965 194.129 383.32 194.152 383.625 194.268C383.781 194.327 383.99 194.435 384.136 194.641C384.299 194.871 384.35 195.18 384.242 195.529L382.238 195.481C382.215 195.556 382.203 195.643 382.215 195.733C382.226 195.821 382.258 195.892 382.295 195.943C382.33 195.993 382.367 196.022 382.39 196.037C382.413 196.053 382.429 196.059 382.43 196.059C382.432 196.06 382.426 196.058 382.41 196.054C382.395 196.05 382.373 196.047 382.346 196.043C382.291 196.035 382.226 196.031 382.155 196.028L382.762 194.123Z" fill="#BABABA" mask="url(#path-6-inside-1)"/>
<circle cx="229.5" cy="239.5" r="112.5" fill="#F1D7B1"/>
<path fill-rule="evenodd" clip-rule="evenodd" d="M261.429 121.818C265.541 136.97 270.899 171.028 265.431 176.371H230.838C230.834 176.31 230.831 176.248 230.827 176.187C218.006 174.768 208.033 163.897 208.033 150.697V125.647C208.033 111.482 219.516 100 233.68 100H236.066C248.929 100 259.58 109.47 261.429 121.818Z" fill="#D0B8EE"/>
<path fill-rule="evenodd" clip-rule="evenodd" d="M221.468 145.914C215.971 139.462 212.251 131.555 212.872 122.695C214.664 97.1669 250.2 102.783 257.112 115.667C264.025 128.552 263.203 161.234 254.269 163.537C250.707 164.455 243.117 162.206 235.392 157.55L240.241 191.852H211.612L221.468 145.914Z" fill="#7EADF3"/>
<path fill-rule="evenodd" clip-rule="evenodd" d="M229.207 141.601C230.526 155.77 229.997 171.951 226.066 175.792H191.473C189.545 142.304 208.173 155.272 208.173 123.742C209.335 122.607 210.432 121.484 211.518 120.515L211.479 119.588C217.47 107.325 225.069 101.193 234.278 101.193C248.092 101.193 252.452 107.62 256.164 113.078C253.388 122.603 242.615 124.015 233.043 129.953C231.915 129.036 230.476 128.486 228.909 128.486C225.285 128.486 222.348 131.424 222.348 135.047C222.348 138.671 225.285 141.608 228.909 141.608C229.009 141.608 229.108 141.606 229.207 141.601Z" fill="#D0B8EE"/>
<path fill-rule="evenodd" clip-rule="evenodd" d="M165.576 407.867C194.193 415.871 218.882 419.873 239.644 419.873C260.406 419.873 279.691 413.71 297.499 401.384C269.495 393.169 246.433 389.061 228.312 389.061C210.191 389.061 189.279 395.33 165.576 407.867Z" fill="#1F28CF"/>
<path fill-rule="evenodd" clip-rule="evenodd" d="M260.663 420.853C260.404 420.47 260.184 420.053 260.01 419.602C256.41 410.256 198.745 309.433 193 291H257.923C262.291 305.015 281.95 392.965 284.717 410.513C293.447 438.192 311.42 527.835 313.715 534.045C316.128 540.578 302.547 547.384 298.928 539.352C293.169 526.573 279.449 491.212 273.339 469.621C267.612 449.38 262.948 431.169 260.663 420.853Z" fill="#7EADF3"/>
<path fill-rule="evenodd" clip-rule="evenodd" d="M207.982 444.734C179.971 451.813 77.5131 464.612 70.482 466.619C63.2492 468.684 56.9074 453.776 65.8475 450.547C80.0728 445.408 119.27 433.535 143.035 428.69C162.151 424.793 179.594 421.613 191.304 419.751C190.312 386.855 185.777 307.911 188.75 290.86H249.784C246.933 307.211 222.837 426.512 218.358 438.453C216.937 442.717 212.696 444.601 207.982 444.734Z" fill="#7EADF3"/>
<path fill-rule="evenodd" clip-rule="evenodd" d="M66.4967 446.577C62.7566 445.881 60.0156 445.687 58.2738 445.994C56.1554 446.368 53.1263 447.266 49.1866 448.688C49.62 451.146 53.5143 473.232 60.8697 514.947C66.8656 515.665 69.7634 514.129 69.5632 510.339C69.3629 506.549 69.2294 503.396 69.1625 500.877L77.4614 467.66C77.6211 467.021 77.2324 466.374 76.5932 466.214C76.5823 466.211 76.5713 466.209 76.5603 466.206L71.4093 465.073C69.2015 461.922 67.9083 459.272 67.5297 457.125C67.2221 455.381 67.5018 452.847 68.3689 449.525L68.3689 449.525C68.7016 448.25 67.9379 446.947 66.6629 446.614C66.608 446.6 66.5525 446.587 66.4967 446.577Z" fill="#E4E4E4"/>
<path fill-rule="evenodd" clip-rule="evenodd" d="M188.947 290.86C215.843 283.165 241.291 283.165 265.291 290.86C273.641 328.958 293.931 344.079 297.499 402.488C256.941 422.641 206.84 388.116 165.089 407.769C153.161 380.28 169.861 314.079 188.947 290.86Z" fill="#FF2B38"/>
<path fill-rule="evenodd" clip-rule="evenodd" d="M304.656 243.516L351.754 237.092C361.176 231.851 369.843 228.303 377.756 226.448C379.983 226.383 383.526 227.193 378.248 231.592C372.971 235.992 367.616 240.859 368.557 243.207C369.497 245.555 374.405 244.681 375.218 248.292C375.76 250.7 367.795 251.091 351.322 249.466L313.106 264.617L304.656 243.516ZM156.703 254.418L182.824 254.516C154.182 318.971 139.247 352.719 138.021 355.76C135.26 362.6 141.101 373.018 143.599 378.617C135.464 382.257 136.331 368.775 126.068 373.55C116.701 377.908 109.575 385.804 98.7523 379.127C97.4218 378.306 95.9637 375.214 99.4866 372.799C108.264 366.78 120.912 356.248 122.621 352.781C124.951 348.053 136.312 315.265 156.703 254.418Z" fill="#7EADF3"/>
<path fill-rule="evenodd" clip-rule="evenodd" d="M228.252 171.573L248.703 172.935C253.74 218.504 281.176 247.288 342.603 237.544L350.764 296.227C293.351 303.647 243 280.661 232.681 218.427C230.009 202.317 227.9 185.551 228.252 171.573Z" fill="#3E5B6F"/>
<path fill-rule="evenodd" clip-rule="evenodd" d="M218.162 165.627L249.149 172.724C249.149 226.021 266.126 260.025 274.834 299.21H191.146C189.967 312.751 189.243 326.668 188.866 340.961H126.204C140.403 265.409 170.374 206.958 216.116 165.608H218.145L218.162 165.627Z" fill="#49677C"/>
<path fill-rule="evenodd" clip-rule="evenodd" d="M204.35 223.176C202.193 256.387 203.461 281.732 208.155 299.21H191.146C193.481 272.387 197.602 247.042 204.35 223.176V223.176Z" fill="black" fill-opacity="0.1"/>
<path fill-rule="evenodd" clip-rule="evenodd" d="M714.898 160.537C721.533 152.75 726.023 143.206 725.272 132.512C723.111 101.701 680.22 108.479 671.877 124.03C663.534 139.581 664.525 179.027 675.308 181.807C679.608 182.915 688.769 180.2 698.092 174.58L692.24 215.981H726.794L714.898 160.537Z" fill="#FB9090"/>
<path fill-rule="evenodd" clip-rule="evenodd" d="M704.147 143.802C705.277 143.026 706.627 142.554 708.077 142.554C712.053 142.554 715.276 146.099 715.276 149.753C715.276 153.554 713.481 156.492 710.918 157.739C712.287 160.415 713.663 162.358 715.276 162.711C721.498 162.081 729.673 146.615 729.673 133.916C729.673 120.015 718.613 108 697.999 108C679.47 108 672.445 115.64 672.083 122.398C680.023 124.58 693.897 125.42 713.836 125.277V126.717L696.559 128.157L693.68 136.795C698.261 136.453 701.534 139.595 704.147 143.802Z" fill="#A9003D"/>
<path d="M741 561C679.696 561 630 519.139 630 467.5C630 415.861 679.696 374 741 374C802.304 374 852 415.861 852 467.5C852 519.139 802.304 561 741 561Z" fill="#C5CFD6"/>
<path fill-rule="evenodd" clip-rule="evenodd" d="M549.131 524C566.106 493.141 578.382 466.271 583.309 452.093C591.747 427.819 598.165 406.459 599.788 398.482C603.656 379.46 570.029 378.352 565.584 387.806C558.857 402.114 547.112 449.126 533 520.134L549.131 524ZM746.032 427.156C730.457 422.1 675.916 406.276 649.61 401.799C642.051 400.513 634.725 399.318 627.836 398.238C607.362 395.027 596.755 425.365 616.474 427.696C665.582 433.501 735.202 439.496 741.16 440.169C749.51 441.112 755.82 430.334 746.032 427.156Z" fill="#FB9090"/>
<path fill-rule="evenodd" clip-rule="evenodd" d="M603.57 392.231L695.12 345.626V335.481H684.232C595.662 358.05 550.402 372.514 548.454 378.872C548.433 378.94 548.414 379.009 548.396 379.077C548.352 379.136 548.308 379.195 548.265 379.254C530.712 403.394 520.2 521.248 516.749 530.072L550.385 535.09C563.251 487.38 604.415 454.143 603.322 397C603.617 395.324 603.692 393.734 603.57 392.231Z" fill="#1F28CF"/>
<path fill-rule="evenodd" clip-rule="evenodd" d="M687.513 419.909C695.889 418.232 703.603 416.735 710.204 415.578C752.84 408.099 765.273 385.277 757.922 335.481H679.366C666.534 339.167 599.845 367.134 565.244 382.008C542.343 391.853 549.562 427.344 562.531 436.58C562.602 437.146 562.835 437.531 563.251 437.703C633.013 466.617 688.201 451.446 706.637 456.294L715.165 429.394L687.513 419.909Z" fill="#2B44FF"/>
<path fill-rule="evenodd" clip-rule="evenodd" d="M739.884 437.262C744.455 437.7 747.699 438.386 749.618 439.322C751.952 440.46 755.167 442.51 759.265 445.471C757.945 448.178 746.079 472.506 723.667 518.457C716.472 517.295 713.621 514.55 715.114 510.219C716.607 505.889 717.811 502.274 718.726 499.375L720.149 458.076C720.176 457.281 720.843 456.659 721.637 456.686C721.651 456.687 721.664 456.687 721.678 456.688L728.031 457.087C731.641 454.165 734.023 451.522 735.176 449.157C736.114 447.235 736.632 444.203 736.731 440.06L736.731 440.06C736.769 438.47 738.089 437.212 739.679 437.25C739.747 437.252 739.816 437.256 739.884 437.262Z" fill="#E4E4E4"/>
<path fill-rule="evenodd" clip-rule="evenodd" d="M608.893 306.875L562.968 340.599C550.512 343.96 540.105 348.142 531.748 353.145C529.774 354.943 527.388 358.586 535.575 357.957C543.762 357.327 552.402 357.033 553.532 359.826C554.661 362.618 549.707 365.958 551.99 369.725C553.513 372.237 560.705 365.939 573.567 350.83L619.045 331.971L608.893 306.875ZM816.722 292.828L791.366 297.419C820.795 355.817 836.557 386.694 838.652 390.051C843.367 397.603 838.607 411.211 836.812 418.389C847.245 421.011 843.389 405.168 856.588 408.692C868.636 411.909 878.76 419.801 890.225 409.595C891.634 408.341 892.719 404.361 888.026 402.228C876.332 396.914 859.091 387.045 856.333 383.282C852.572 378.151 839.368 348 816.722 292.828Z" fill="#FB9090"/>
<path fill-rule="evenodd" clip-rule="evenodd" d="M598.195 310.541C592.286 310.117 585.858 311.096 578.967 313.418C575.576 314.56 573.754 318.236 574.896 321.626C575.56 323.596 577.078 325.036 578.898 325.674C577.579 326.636 576.249 327.593 574.907 328.544L586.493 352.196C635.247 327.887 681.072 309.559 701.953 269.427C708.961 255.958 706.589 210.206 707.258 193.561L691.86 187.246C670.395 231.615 641.346 274.181 598.195 310.541Z" fill="#69A1AC"/>
<path fill-rule="evenodd" clip-rule="evenodd" d="M761.348 348.309C716.085 353.281 680.457 353.281 654.466 348.309C651.246 347.693 651.388 333.811 652.881 330.02C676.136 270.983 691.433 227.764 691.433 186.758C695.7 188.987 703.168 189.321 713.836 187.76C742.507 230.019 755.686 278.505 761.348 348.309Z" fill="#A9003D"/>
<path fill-rule="evenodd" clip-rule="evenodd" d="M769.758 355.289C771.295 353.842 772.097 351.674 771.703 349.441L770.953 345.187C770.444 342.304 768.103 340.205 765.339 339.877C764.856 337.717 764.439 335.571 764.095 333.441C761.189 315.45 766.155 297.809 765.922 280.485C789.073 300.238 809.841 334.345 828.227 382.807L855.42 374.806C854.382 370.951 853.307 367.144 852.195 363.384C855.334 361.601 859.001 353.429 856.362 352.061C853.636 350.649 850.748 349.655 847.707 349.07C822.774 273.973 782.002 219.052 725.389 184.307H720.38L709.015 184.307C713.836 248.06 647.248 387.247 670.369 506.118C713.105 515.661 774.116 485.968 833.504 509.691C831.294 461.821 787.029 405.584 769.758 355.289Z" fill="#89C5CC"/>
<path fill-rule="evenodd" clip-rule="evenodd" d="M719.443 185.747L726.87 208.589L711.912 225.713L725.431 239.169L692.726 295.168L732.72 239.281L719.443 225.713L732.72 210.58L719.443 185.747Z" fill="black" fill-opacity="0.1"/>
<path fill-rule="evenodd" clip-rule="evenodd" d="M702.318 316.764C705.499 316.764 708.077 314.186 708.077 311.005C708.077 307.825 705.499 305.246 702.318 305.246C699.138 305.246 696.559 307.825 696.559 311.005C696.559 314.186 699.138 316.764 702.318 316.764ZM695.119 349.878C698.3 349.878 700.878 347.3 700.878 344.119C700.878 340.939 698.3 338.36 695.119 338.36C691.939 338.36 689.36 340.939 689.36 344.119C689.36 347.3 691.939 349.878 695.119 349.878ZM693.68 382.993C696.86 382.993 699.439 380.414 699.439 377.234C699.439 374.053 696.86 371.475 693.68 371.475C690.499 371.475 687.921 374.053 687.921 377.234C687.921 380.414 690.499 382.993 693.68 382.993Z" fill="black" fill-opacity="0.4"/>
<rect x="28" y="42" width="12" height="465" fill="black" fill-opacity="0.25"/>
<rect x="40" y="91" width="12" height="380" transform="rotate(-90 40 91)" fill="black" fill-opacity="0.25"/>
<path fill-rule="evenodd" clip-rule="evenodd" d="M16 0C7.16344 0 0 7.16346 0 16V545C0 553.837 7.16343 561 16 561H428C436.837 561 444 553.837 444 545V16C444 7.16344 436.837 0 428 0H16ZM30 80.1429C28.8954 80.1429 28 81.0383 28 82.1429V461.611C28 462.716 28.8954 463.611 30 463.611H414C415.105 463.611 416 462.716 416 461.611V82.1429C416 81.0383 415.105 80.1429 414 80.1429H30Z" fill="#EFEFEF"/>
<path d="M64.8571 485.797C64.8571 491.208 60.6358 495.594 55.4286 495.594C50.2213 495.594 46 491.208 46 485.797C46 480.386 50.2213 476 55.4286 476C60.6358 476 64.8571 480.386 64.8571 485.797Z" fill="#F25E5E"/>
<path d="M79 485.797C79 491.208 74.7787 495.594 69.5714 495.594C64.3642 495.594 60.1429 491.208 60.1429 485.797C60.1429 480.386 64.3642 476 69.5714 476C74.7787 476 79 480.386 79 485.797Z" fill="#F25E5E"/>
<path d="M49.166 493.145L62.5 479.29L75.834 493.145L62.5 507L49.166 493.145Z" fill="#F25E5E"/>
<path d="M137.346 496.285V496.646L137.576 496.924C140.051 499.905 141.834 502.076 143.048 503.614C141.844 502.872 140.384 501.991 138.81 501.164L138.383 500.94L137.942 501.135C124.013 507.275 114.499 506.84 108.539 504.009C102.568 501.173 100 495.868 100 491.851C100 483.691 107.215 476 119.12 476C125.02 476 129.541 478.215 132.602 481.802C135.679 485.408 137.346 490.482 137.346 496.285Z" stroke="#B4BDC6" stroke-width="2"/>
<path d="M200.227 478.874L190.113 509.214L182.89 496.211L200.227 478.874ZM168.473 487.573L198.812 477.46L181.476 494.797L168.473 487.573Z" stroke="#B4BDC6" stroke-width="2"/>
<rect x="99" y="36" width="185" height="8" rx="4" fill="#B4BDC6"/>
<rect x="100" y="52" width="151" height="6" rx="3" fill="#B4BDC6"/>
<rect x="31" y="521" width="159" height="6" rx="3" fill="#B4BDC6"/>
<rect x="32" y="537" width="120" height="6" rx="3" fill="#B4BDC6"/>
<circle cx="63" cy="44" r="27" fill="#B4BDC6"/>
<mask id="mask0" mask-type="alpha" maskUnits="userSpaceOnUse" x="36" y="17" width="54" height="54">
<circle cx="63" cy="44" r="27" fill="#B4BDC6"/>
</mask>
<g mask="url(#mask0)">
<circle cx="62.5" cy="40.5" r="8.5" fill="#EFEFEF"/>
<rect x="50" y="52" width="25" height="27" rx="10" fill="#EFEFEF"/>
</g>
<rect x="498" y="42" width="12" height="465" fill="black" fill-opacity="0.25"/>
<rect x="510" y="91" width="12" height="380" transform="rotate(-90 510 91)" fill="black" fill-opacity="0.25"/>
<path fill-rule="evenodd" clip-rule="evenodd" d="M486 0C477.163 0 470 7.16346 470 16V545C470 553.837 477.163 561 486 561H898C906.837 561 914 553.837 914 545V16C914 7.16344 906.837 0 898 0H486ZM500 80.1429C498.895 80.1429 498 81.0383 498 82.1429V461.611C498 462.716 498.895 463.611 500 463.611H884C885.105 463.611 886 462.716 886 461.611V82.1429C886 81.0383 885.105 80.1429 884 80.1429H500Z" fill="#EFEFEF"/>
<path d="M534.857 485.797C534.857 491.208 530.636 495.594 525.429 495.594C520.221 495.594 516 491.208 516 485.797C516 480.386 520.221 476 525.429 476C530.636 476 534.857 480.386 534.857 485.797Z" fill="#F25E5E"/>
<path d="M549 485.797C549 491.208 544.779 495.594 539.571 495.594C534.364 495.594 530.143 491.208 530.143 485.797C530.143 480.386 534.364 476 539.571 476C544.779 476 549 480.386 549 485.797Z" fill="#F25E5E"/>
<path d="M519.166 493.145L532.5 479.29L545.834 493.145L532.5 507L519.166 493.145Z" fill="#F25E5E"/>
<path d="M607.346 496.285V496.646L607.576 496.924C610.051 499.905 611.834 502.076 613.048 503.614C611.844 502.872 610.384 501.991 608.81 501.164L608.383 500.94L607.942 501.135C594.013 507.275 584.499 506.84 578.539 504.009C572.568 501.173 570 495.868 570 491.851C570 483.691 577.215 476 589.12 476C595.02 476 599.541 478.215 602.602 481.802C605.679 485.408 607.346 490.482 607.346 496.285Z" stroke="#B4BDC6" stroke-width="2"/>
<path d="M670.227 478.874L660.113 509.214L652.89 496.211L670.227 478.874ZM638.473 487.573L668.812 477.46L651.476 494.797L638.473 487.573Z" stroke="#B4BDC6" stroke-width="2"/>
<rect x="569" y="36" width="185" height="8" rx="4" fill="#B4BDC6"/>
<rect x="570" y="52" width="151" height="6" rx="3" fill="#B4BDC6"/>
<rect x="501" y="521" width="159" height="6" rx="3" fill="#B4BDC6"/>
<rect x="502" y="537" width="120" height="6" rx="3" fill="#B4BDC6"/>
<circle cx="533" cy="44" r="27" fill="#B4BDC6"/>
<mask id="mask1" mask-type="alpha" maskUnits="userSpaceOnUse" x="506" y="17" width="54" height="54">
<circle cx="533" cy="44" r="27" fill="#B4BDC6"/>
</mask>
<g mask="url(#mask1)">
<circle cx="532.5" cy="40.5" r="8.5" fill="#EFEFEF"/>
<rect x="520" y="52" width="25" height="27" rx="10" fill="#EFEFEF"/>
</g>
<defs>
<filter id="filter0_i" x="360.64" y="245.679" width="3.16958" height="8.88474" filterUnits="userSpaceOnUse" color-interpolation-filters="sRGB">
<feFlood flood-opacity="0" result="BackgroundImageFix"/>
<feBlend mode="normal" in="SourceGraphic" in2="BackgroundImageFix" result="shape"/>
<feColorMatrix in="SourceAlpha" type="matrix" values="0 0 0 0 0 0 0 0 0 0 0 0 0 0 0 0 0 0 127 0" result="hardAlpha"/>
<feOffset dy="4"/>
<feGaussianBlur stdDeviation="2"/>
<feComposite in2="hardAlpha" operator="arithmetic" k2="-1" k3="1"/>
<feColorMatrix type="matrix" values="0 0 0 0 0 0 0 0 0 0 0 0 0 0 0 0 0 0 0.5 0"/>
<feBlend mode="normal" in2="shape" result="effect1_innerShadow"/>
</filter>
</defs>
</svg>
