<svg width="976" height="407" viewBox="0 0 976 407" fill="none" xmlns="http://www.w3.org/2000/svg">
<mask id="mask0" mask-type="alpha" maskUnits="userSpaceOnUse" x="0" y="0" width="976" height="407">
<rect width="976" height="407" rx="16" fill="#EFEFEF"/>
</mask>
<g mask="url(#mask0)">
<rect width="976" height="407" rx="16" fill="#EFEFEF"/>
<rect width="369" height="407" rx="16" fill="#876CE6"/>
<rect x="313" width="56" height="407" fill="#876CE5"/>
<path d="M397.688 284.664V307H393.208V284.664H397.688ZM411.938 289.016C414.05 289.016 415.757 289.688 417.058 291.032C418.36 292.355 419.01 294.211 419.01 296.6V307H414.53V297.208C414.53 295.8 414.178 294.723 413.474 293.976C412.77 293.208 411.81 292.824 410.594 292.824C409.357 292.824 408.376 293.208 407.65 293.976C406.946 294.723 406.594 295.8 406.594 297.208V307H402.114V289.272H406.594V291.48C407.192 290.712 407.949 290.115 408.866 289.688C409.805 289.24 410.829 289.016 411.938 289.016ZM431.399 292.952H428.295V307H423.751V292.952H421.735V289.272H423.751V288.376C423.751 286.2 424.369 284.6 425.607 283.576C426.844 282.552 428.711 282.072 431.207 282.136V285.912C430.119 285.891 429.361 286.072 428.935 286.456C428.508 286.84 428.295 287.533 428.295 288.536V289.272H431.399V292.952ZM438.782 283.32V307H434.302V283.32H438.782ZM459.944 289.272V307H455.432V304.76C454.856 305.528 454.099 306.136 453.16 306.584C452.243 307.011 451.24 307.224 450.152 307.224C448.765 307.224 447.539 306.936 446.472 306.36C445.405 305.763 444.563 304.899 443.944 303.768C443.347 302.616 443.048 301.251 443.048 299.672V289.272H447.528V299.032C447.528 300.44 447.88 301.528 448.584 302.296C449.288 303.043 450.248 303.416 451.464 303.416C452.701 303.416 453.672 303.043 454.376 302.296C455.08 301.528 455.432 300.44 455.432 299.032V289.272H459.944ZM480.844 297.752C480.844 298.392 480.802 298.968 480.716 299.48H467.756C467.863 300.76 468.311 301.763 469.1 302.488C469.89 303.213 470.86 303.576 472.012 303.576C473.676 303.576 474.86 302.861 475.564 301.432H480.396C479.884 303.139 478.903 304.547 477.452 305.656C476.002 306.744 474.22 307.288 472.108 307.288C470.402 307.288 468.866 306.915 467.5 306.168C466.156 305.4 465.1 304.323 464.332 302.936C463.586 301.549 463.212 299.949 463.212 298.136C463.212 296.301 463.586 294.691 464.332 293.304C465.079 291.917 466.124 290.851 467.468 290.104C468.812 289.357 470.359 288.984 472.108 288.984C473.794 288.984 475.298 289.347 476.62 290.072C477.964 290.797 478.999 291.832 479.724 293.176C480.471 294.499 480.844 296.024 480.844 297.752ZM476.204 296.472C476.183 295.32 475.767 294.403 474.956 293.72C474.146 293.016 473.154 292.664 471.98 292.664C470.871 292.664 469.932 293.005 469.164 293.688C468.418 294.349 467.959 295.277 467.788 296.472H476.204ZM493.938 289.016C496.05 289.016 497.757 289.688 499.058 291.032C500.36 292.355 501.01 294.211 501.01 296.6V307H496.53V297.208C496.53 295.8 496.178 294.723 495.474 293.976C494.77 293.208 493.81 292.824 492.594 292.824C491.357 292.824 490.376 293.208 489.65 293.976C488.946 294.723 488.594 295.8 488.594 297.208V307H484.114V289.272H488.594V291.48C489.192 290.712 489.949 290.115 490.866 289.688C491.805 289.24 492.829 289.016 493.938 289.016ZM504.118 298.136C504.118 296.301 504.492 294.701 505.239 293.336C505.985 291.949 507.02 290.883 508.343 290.136C509.665 289.368 511.18 288.984 512.887 288.984C515.084 288.984 516.897 289.539 518.327 290.648C519.777 291.736 520.748 293.272 521.239 295.256H516.407C516.151 294.488 515.713 293.891 515.095 293.464C514.497 293.016 513.751 292.792 512.855 292.792C511.575 292.792 510.561 293.261 509.815 294.2C509.068 295.117 508.695 296.429 508.695 298.136C508.695 299.821 509.068 301.133 509.815 302.072C510.561 302.989 511.575 303.448 512.855 303.448C514.668 303.448 515.852 302.637 516.407 301.016H521.239C520.748 302.936 519.777 304.461 518.327 305.592C516.876 306.723 515.063 307.288 512.887 307.288C511.18 307.288 509.665 306.915 508.343 306.168C507.02 305.4 505.985 304.333 505.239 302.968C504.492 301.581 504.118 299.971 504.118 298.136ZM541.001 297.752C541.001 298.392 540.958 298.968 540.873 299.48H527.913C528.019 300.76 528.467 301.763 529.257 302.488C530.046 303.213 531.017 303.576 532.169 303.576C533.833 303.576 535.017 302.861 535.721 301.432H540.553C540.041 303.139 539.059 304.547 537.609 305.656C536.158 306.744 534.377 307.288 532.265 307.288C530.558 307.288 529.022 306.915 527.657 306.168C526.313 305.4 525.257 304.323 524.489 302.936C523.742 301.549 523.368 299.949 523.368 298.136C523.368 296.301 523.742 294.691 524.489 293.304C525.235 291.917 526.281 290.851 527.625 290.104C528.969 289.357 530.515 288.984 532.265 288.984C533.95 288.984 535.454 289.347 536.777 290.072C538.121 290.797 539.155 291.832 539.881 293.176C540.627 294.499 541.001 296.024 541.001 297.752ZM536.361 296.472C536.339 295.32 535.923 294.403 535.113 293.72C534.302 293.016 533.31 292.664 532.137 292.664C531.027 292.664 530.089 293.005 529.321 293.688C528.574 294.349 528.115 295.277 527.945 296.472H536.361ZM548.751 292.024C549.327 291.085 550.073 290.349 550.991 289.816C551.929 289.283 552.996 289.016 554.191 289.016V293.72H553.007C551.599 293.72 550.532 294.051 549.807 294.712C549.103 295.373 548.751 296.525 548.751 298.168V307H544.271V289.272H548.751V292.024ZM563.745 295.8C563.745 293.603 564.236 291.64 565.217 289.912C566.22 288.163 567.574 286.808 569.281 285.848C571.009 284.867 572.94 284.376 575.073 284.376C577.569 284.376 579.756 285.016 581.633 286.296C583.51 287.576 584.822 289.347 585.569 291.608H580.417C579.905 290.541 579.18 289.741 578.241 289.208C577.324 288.675 576.257 288.408 575.041 288.408C573.74 288.408 572.577 288.717 571.553 289.336C570.55 289.933 569.761 290.787 569.185 291.896C568.63 293.005 568.353 294.307 568.353 295.8C568.353 297.272 568.63 298.573 569.185 299.704C569.761 300.813 570.55 301.677 571.553 302.296C572.577 302.893 573.74 303.192 575.041 303.192C576.257 303.192 577.324 302.925 578.241 302.392C579.18 301.837 579.905 301.027 580.417 299.96H585.569C584.822 302.243 583.51 304.024 581.633 305.304C579.777 306.563 577.59 307.192 575.073 307.192C572.94 307.192 571.009 306.712 569.281 305.752C567.574 304.771 566.22 303.416 565.217 301.688C564.236 299.96 563.745 297.997 563.745 295.8ZM588.243 298.072C588.243 296.28 588.595 294.691 589.299 293.304C590.025 291.917 590.996 290.851 592.212 290.104C593.449 289.357 594.825 288.984 596.34 288.984C597.662 288.984 598.814 289.251 599.796 289.784C600.798 290.317 601.598 290.989 602.196 291.8V289.272H606.708V307H602.196V304.408C601.62 305.24 600.82 305.933 599.796 306.488C598.793 307.021 597.63 307.288 596.308 307.288C594.814 307.288 593.449 306.904 592.212 306.136C590.996 305.368 590.025 304.291 589.299 302.904C588.595 301.496 588.243 299.885 588.243 298.072ZM602.196 298.136C602.196 297.048 601.982 296.12 601.556 295.352C601.129 294.563 600.553 293.965 599.828 293.56C599.102 293.133 598.324 292.92 597.492 292.92C596.66 292.92 595.892 293.123 595.188 293.528C594.484 293.933 593.908 294.531 593.46 295.32C593.033 296.088 592.82 297.005 592.82 298.072C592.82 299.139 593.033 300.077 593.46 300.888C593.908 301.677 594.484 302.285 595.188 302.712C595.913 303.139 596.681 303.352 597.492 303.352C598.324 303.352 599.102 303.149 599.828 302.744C600.553 302.317 601.129 301.72 601.556 300.952C601.982 300.163 602.196 299.224 602.196 298.136ZM620.907 289.016C623.019 289.016 624.726 289.688 626.027 291.032C627.328 292.355 627.979 294.211 627.979 296.6V307H623.499V297.208C623.499 295.8 623.147 294.723 622.443 293.976C621.739 293.208 620.779 292.824 619.563 292.824C618.326 292.824 617.344 293.208 616.619 293.976C615.915 294.723 615.563 295.8 615.563 297.208V307H611.083V289.272H615.563V291.48C616.16 290.712 616.918 290.115 617.835 289.688C618.774 289.24 619.798 289.016 620.907 289.016ZM631.087 298.136C631.087 296.301 631.461 294.701 632.207 293.336C632.954 291.949 633.989 290.883 635.311 290.136C636.634 289.368 638.149 288.984 639.855 288.984C642.053 288.984 643.866 289.539 645.295 290.648C646.746 291.736 647.717 293.272 648.207 295.256H643.375C643.119 294.488 642.682 293.891 642.063 293.464C641.466 293.016 640.719 292.792 639.823 292.792C638.543 292.792 637.53 293.261 636.783 294.2C636.037 295.117 635.663 296.429 635.663 298.136C635.663 299.821 636.037 301.133 636.783 302.072C637.53 302.989 638.543 303.448 639.823 303.448C641.637 303.448 642.821 302.637 643.375 301.016H648.207C647.717 302.936 646.746 304.461 645.295 305.592C643.845 306.723 642.031 307.288 639.855 307.288C638.149 307.288 636.634 306.915 635.311 306.168C633.989 305.4 632.954 304.333 632.207 302.968C631.461 301.581 631.087 299.971 631.087 298.136ZM667.969 297.752C667.969 298.392 667.927 298.968 667.841 299.48H654.881C654.988 300.76 655.436 301.763 656.225 302.488C657.015 303.213 657.985 303.576 659.137 303.576C660.801 303.576 661.985 302.861 662.689 301.432H667.521C667.009 303.139 666.028 304.547 664.577 305.656C663.127 306.744 661.345 307.288 659.233 307.288C657.527 307.288 655.991 306.915 654.625 306.168C653.281 305.4 652.225 304.323 651.457 302.936C650.711 301.549 650.337 299.949 650.337 298.136C650.337 296.301 650.711 294.691 651.457 293.304C652.204 291.917 653.249 290.851 654.593 290.104C655.937 289.357 657.484 288.984 659.233 288.984C660.919 288.984 662.423 289.347 663.745 290.072C665.089 290.797 666.124 291.832 666.849 293.176C667.596 294.499 667.969 296.024 667.969 297.752ZM663.329 296.472C663.308 295.32 662.892 294.403 662.081 293.72C661.271 293.016 660.279 292.664 659.105 292.664C657.996 292.664 657.057 293.005 656.289 293.688C655.543 294.349 655.084 295.277 654.913 296.472H663.329ZM675.719 283.32V307H671.239V283.32H675.719ZM684.626 283.32V307H680.146V283.32H684.626ZM687.9 298.072C687.9 296.28 688.252 294.691 688.956 293.304C689.681 291.917 690.652 290.851 691.868 290.104C693.105 289.357 694.481 288.984 695.996 288.984C697.318 288.984 698.47 289.251 699.452 289.784C700.454 290.317 701.254 290.989 701.852 291.8V289.272H706.364V307H701.852V304.408C701.276 305.24 700.476 305.933 699.452 306.488C698.449 307.021 697.286 307.288 695.964 307.288C694.47 307.288 693.105 306.904 691.868 306.136C690.652 305.368 689.681 304.291 688.956 302.904C688.252 301.496 687.9 299.885 687.9 298.072ZM701.852 298.136C701.852 297.048 701.638 296.12 701.212 295.352C700.785 294.563 700.209 293.965 699.484 293.56C698.758 293.133 697.98 292.92 697.148 292.92C696.316 292.92 695.548 293.123 694.844 293.528C694.14 293.933 693.564 294.531 693.116 295.32C692.689 296.088 692.476 297.005 692.476 298.072C692.476 299.139 692.689 300.077 693.116 300.888C693.564 301.677 694.14 302.285 694.844 302.712C695.569 303.139 696.337 303.352 697.148 303.352C697.98 303.352 698.758 303.149 699.484 302.744C700.209 302.317 700.785 301.72 701.212 300.952C701.638 300.163 701.852 299.224 701.852 298.136ZM715.955 292.952V301.528C715.955 302.125 716.094 302.563 716.371 302.84C716.67 303.096 717.161 303.224 717.843 303.224H719.923V307H717.107C713.331 307 711.443 305.165 711.443 301.496V292.952H709.331V289.272H711.443V284.888H715.955V289.272H719.923V292.952H715.955ZM725.418 287.16C724.628 287.16 723.967 286.915 723.434 286.424C722.922 285.912 722.666 285.283 722.666 284.536C722.666 283.789 722.922 283.171 723.434 282.68C723.967 282.168 724.628 281.912 725.418 281.912C726.207 281.912 726.858 282.168 727.37 282.68C727.903 283.171 728.17 283.789 728.17 284.536C728.17 285.283 727.903 285.912 727.37 286.424C726.858 286.915 726.207 287.16 725.418 287.16ZM727.626 289.272V307H723.146V289.272H727.626ZM739.924 307.288C738.217 307.288 736.681 306.915 735.316 306.168C733.95 305.4 732.873 304.323 732.084 302.936C731.316 301.549 730.932 299.949 730.932 298.136C730.932 296.323 731.326 294.723 732.116 293.336C732.926 291.949 734.025 290.883 735.412 290.136C736.798 289.368 738.345 288.984 740.052 288.984C741.758 288.984 743.305 289.368 744.692 290.136C746.078 290.883 747.166 291.949 747.956 293.336C748.766 294.723 749.172 296.323 749.172 298.136C749.172 299.949 748.756 301.549 747.924 302.936C747.113 304.323 746.004 305.4 744.596 306.168C743.209 306.915 741.652 307.288 739.924 307.288ZM739.924 303.384C740.734 303.384 741.492 303.192 742.196 302.808C742.921 302.403 743.497 301.805 743.924 301.016C744.35 300.227 744.564 299.267 744.564 298.136C744.564 296.451 744.116 295.16 743.22 294.264C742.345 293.347 741.268 292.888 739.988 292.888C738.708 292.888 737.63 293.347 736.756 294.264C735.902 295.16 735.476 296.451 735.476 298.136C735.476 299.821 735.892 301.123 736.724 302.04C737.577 302.936 738.644 303.384 739.924 303.384ZM762.282 289.016C764.394 289.016 766.101 289.688 767.402 291.032C768.703 292.355 769.354 294.211 769.354 296.6V307H764.874V297.208C764.874 295.8 764.522 294.723 763.818 293.976C763.114 293.208 762.154 292.824 760.938 292.824C759.701 292.824 758.719 293.208 757.994 293.976C757.29 294.723 756.938 295.8 756.938 297.208V307H752.458V289.272H756.938V291.48C757.535 290.712 758.293 290.115 759.21 289.688C760.149 289.24 761.173 289.016 762.282 289.016ZM785.719 284.664V307H781.239V284.664H785.719ZM799.97 289.016C802.082 289.016 803.788 289.688 805.09 291.032C806.391 292.355 807.042 294.211 807.042 296.6V307H802.562V297.208C802.562 295.8 802.21 294.723 801.506 293.976C800.802 293.208 799.842 292.824 798.626 292.824C797.388 292.824 796.407 293.208 795.682 293.976C794.978 294.723 794.626 295.8 794.626 297.208V307H790.146V289.272H794.626V291.48C795.223 290.712 795.98 290.115 796.898 289.688C797.836 289.24 798.86 289.016 799.97 289.016ZM818.086 307.288C816.635 307.288 815.334 307.032 814.182 306.52C813.03 305.987 812.112 305.272 811.43 304.376C810.768 303.48 810.406 302.488 810.342 301.4H814.854C814.939 302.083 815.27 302.648 815.846 303.096C816.443 303.544 817.179 303.768 818.054 303.768C818.907 303.768 819.568 303.597 820.038 303.256C820.528 302.915 820.774 302.477 820.774 301.944C820.774 301.368 820.475 300.941 819.878 300.664C819.302 300.365 818.374 300.045 817.094 299.704C815.771 299.384 814.683 299.053 813.83 298.712C812.998 298.371 812.272 297.848 811.654 297.144C811.056 296.44 810.758 295.491 810.758 294.296C810.758 293.315 811.035 292.419 811.59 291.608C812.166 290.797 812.976 290.157 814.022 289.688C815.088 289.219 816.336 288.984 817.766 288.984C819.878 288.984 821.563 289.517 822.822 290.584C824.08 291.629 824.774 293.048 824.902 294.84H820.614C820.55 294.136 820.251 293.581 819.718 293.176C819.206 292.749 818.512 292.536 817.638 292.536C816.827 292.536 816.198 292.685 815.75 292.984C815.323 293.283 815.11 293.699 815.11 294.232C815.11 294.829 815.408 295.288 816.006 295.608C816.603 295.907 817.531 296.216 818.79 296.536C820.07 296.856 821.126 297.187 821.958 297.528C822.79 297.869 823.504 298.403 824.102 299.128C824.72 299.832 825.04 300.771 825.062 301.944C825.062 302.968 824.774 303.885 824.198 304.696C823.643 305.507 822.832 306.147 821.766 306.616C820.72 307.064 819.494 307.288 818.086 307.288ZM845.475 289.272V307H840.963V304.76C840.387 305.528 839.63 306.136 838.691 306.584C837.774 307.011 836.771 307.224 835.683 307.224C834.297 307.224 833.07 306.936 832.003 306.36C830.937 305.763 830.094 304.899 829.475 303.768C828.878 302.616 828.579 301.251 828.579 299.672V289.272H833.059V299.032C833.059 300.44 833.411 301.528 834.115 302.296C834.819 303.043 835.779 303.416 836.995 303.416C838.233 303.416 839.203 303.043 839.907 302.296C840.611 301.528 840.963 300.44 840.963 299.032V289.272H845.475ZM854.376 292.024C854.952 291.085 855.698 290.349 856.616 289.816C857.554 289.283 858.621 289.016 859.816 289.016V293.72H858.632C857.224 293.72 856.157 294.051 855.432 294.712C854.728 295.373 854.376 296.525 854.376 298.168V307H849.896V289.272H854.376V292.024ZM861.681 298.072C861.681 296.28 862.033 294.691 862.737 293.304C863.462 291.917 864.433 290.851 865.649 290.104C866.886 289.357 868.262 288.984 869.777 288.984C871.1 288.984 872.252 289.251 873.233 289.784C874.236 290.317 875.036 290.989 875.633 291.8V289.272H880.145V307H875.633V304.408C875.057 305.24 874.257 305.933 873.233 306.488C872.23 307.021 871.068 307.288 869.745 307.288C868.252 307.288 866.886 306.904 865.649 306.136C864.433 305.368 863.462 304.291 862.737 302.904C862.033 301.496 861.681 299.885 861.681 298.072ZM875.633 298.136C875.633 297.048 875.42 296.12 874.993 295.352C874.566 294.563 873.99 293.965 873.265 293.56C872.54 293.133 871.761 292.92 870.929 292.92C870.097 292.92 869.329 293.123 868.625 293.528C867.921 293.933 867.345 294.531 866.897 295.32C866.47 296.088 866.257 297.005 866.257 298.072C866.257 299.139 866.47 300.077 866.897 300.888C867.345 301.677 867.921 302.285 868.625 302.712C869.35 303.139 870.118 303.352 870.929 303.352C871.761 303.352 872.54 303.149 873.265 302.744C873.99 302.317 874.566 301.72 874.993 300.952C875.42 300.163 875.633 299.224 875.633 298.136ZM894.345 289.016C896.457 289.016 898.163 289.688 899.465 291.032C900.766 292.355 901.417 294.211 901.417 296.6V307H896.937V297.208C896.937 295.8 896.585 294.723 895.881 293.976C895.177 293.208 894.217 292.824 893.001 292.824C891.763 292.824 890.782 293.208 890.057 293.976C889.353 294.723 889.001 295.8 889.001 297.208V307H884.521V289.272H889.001V291.48C889.598 290.712 890.355 290.115 891.273 289.688C892.211 289.24 893.235 289.016 894.345 289.016ZM904.525 298.136C904.525 296.301 904.898 294.701 905.645 293.336C906.391 291.949 907.426 290.883 908.749 290.136C910.071 289.368 911.586 288.984 913.293 288.984C915.49 288.984 917.303 289.539 918.733 290.648C920.183 291.736 921.154 293.272 921.645 295.256H916.813C916.557 294.488 916.119 293.891 915.501 293.464C914.903 293.016 914.157 292.792 913.261 292.792C911.981 292.792 910.967 293.261 910.221 294.2C909.474 295.117 909.101 296.429 909.101 298.136C909.101 299.821 909.474 301.133 910.221 302.072C910.967 302.989 911.981 303.448 913.261 303.448C915.074 303.448 916.258 302.637 916.813 301.016H921.645C921.154 302.936 920.183 304.461 918.733 305.592C917.282 306.723 915.469 307.288 913.293 307.288C911.586 307.288 910.071 306.915 908.749 306.168C907.426 305.4 906.391 304.333 905.645 302.968C904.898 301.581 904.525 299.971 904.525 298.136ZM941.407 297.752C941.407 298.392 941.364 298.968 941.279 299.48H928.319C928.425 300.76 928.873 301.763 929.663 302.488C930.452 303.213 931.423 303.576 932.575 303.576C934.239 303.576 935.423 302.861 936.127 301.432H940.959C940.447 303.139 939.465 304.547 938.015 305.656C936.564 306.744 934.783 307.288 932.671 307.288C930.964 307.288 929.428 306.915 928.063 306.168C926.719 305.4 925.663 304.323 924.895 302.936C924.148 301.549 923.775 299.949 923.775 298.136C923.775 296.301 924.148 294.691 924.895 293.304C925.641 291.917 926.687 290.851 928.031 290.104C929.375 289.357 930.921 288.984 932.671 288.984C934.356 288.984 935.86 289.347 937.183 290.072C938.527 290.797 939.561 291.832 940.287 293.176C941.033 294.499 941.407 296.024 941.407 297.752ZM936.767 296.472C936.745 295.32 936.329 294.403 935.519 293.72C934.708 293.016 933.716 292.664 932.543 292.664C931.433 292.664 930.495 293.005 929.727 293.688C928.98 294.349 928.521 295.277 928.351 296.472H936.767Z" fill="#5834D7"/>
<path d="M391 136.75C391 130.813 395.776 126 401.667 126H508.333C514.224 126 519 130.813 519 136.75V158.25C519 164.187 514.224 169 508.333 169H401.667C395.776 169 391 164.187 391 158.25V136.75Z" fill="url(#paint0_linear)"/>
<path d="M391 183.5C391 177.701 395.796 173 401.712 173H459.288C465.204 173 470 177.701 470 183.5V204.5C470 210.299 465.204 215 459.288 215H401.712C395.796 215 391 210.299 391 204.5V183.5Z" fill="url(#paint1_linear)"/>
<path d="M391 228.406C391 223.211 395.219 219 400.423 219H416.577C421.781 219 426 223.211 426 228.406V252.594C426 257.789 421.781 262 416.577 262H400.423C395.219 262 391 257.789 391 252.594V228.406Z" fill="url(#paint2_linear)"/>
<path d="M596.505 159.496V174.6H557.679V198.527H587.432V213.364H557.679V252.797H539V159.496H596.505Z" fill="#3909E2"/>
<path d="M619.223 169.922C615.932 169.922 613.174 168.897 610.951 166.847C608.816 164.709 607.749 162.08 607.749 158.961C607.749 155.842 608.816 153.258 610.951 151.208C613.174 149.069 615.932 148 619.223 148C622.514 148 625.227 149.069 627.362 151.208C629.585 153.258 630.697 155.842 630.697 158.961C630.697 162.08 629.585 164.709 627.362 166.847C625.227 168.897 622.514 169.922 619.223 169.922ZM628.429 178.744V252.797H609.75V178.744H628.429Z" fill="#3909E2"/>
<path d="M665.563 153.881V252.797H646.884V153.881H665.563Z" fill="#3909E2"/>
<path d="M679.215 215.503C679.215 208.018 680.682 201.379 683.617 195.586C686.642 189.794 690.689 185.338 695.759 182.219C700.918 179.1 706.655 177.541 712.97 177.541C718.485 177.541 723.288 178.655 727.38 180.883C731.56 183.111 734.896 185.918 737.386 189.304V178.744H756.199V252.797H737.386V241.97C734.985 245.445 731.649 248.341 727.38 250.658C723.199 252.886 718.352 254 712.837 254C706.61 254 700.918 252.396 695.759 249.188C690.689 245.98 686.642 241.48 683.617 235.687C680.682 229.806 679.215 223.078 679.215 215.503ZM737.386 215.77C737.386 211.226 736.497 207.349 734.718 204.141C732.939 200.844 730.537 198.349 727.513 196.656C724.489 194.873 721.242 193.982 717.773 193.982C714.304 193.982 711.102 194.829 708.167 196.522C705.232 198.215 702.83 200.71 700.962 204.008C699.183 207.216 698.294 211.047 698.294 215.503C698.294 219.959 699.183 223.88 700.962 227.266C702.83 230.563 705.232 233.103 708.167 234.885C711.191 236.668 714.393 237.559 717.773 237.559C721.242 237.559 724.489 236.712 727.513 235.019C730.537 233.237 732.939 230.741 734.718 227.533C736.497 224.236 737.386 220.315 737.386 215.77Z" fill="#3909E2"/>
<path d="M815.269 252.797L800.059 229.806L786.583 252.797H766.57L790.719 215.637L766.303 178.744H787.384L802.461 201.602L816.07 178.744H836.083L811.8 215.637L836.35 252.797H815.269Z" fill="#3909E2"/>
<path d="M855.968 169.922C852.677 169.922 849.919 168.897 847.696 166.847C845.561 164.709 844.494 162.08 844.494 158.961C844.494 155.842 845.561 153.258 847.696 151.208C849.919 149.069 852.677 148 855.968 148C859.259 148 861.972 149.069 864.106 151.208C866.33 153.258 867.442 155.842 867.442 158.961C867.442 162.08 866.33 164.709 864.106 166.847C861.972 168.897 859.259 169.922 855.968 169.922ZM865.174 178.744V252.797H846.495V178.744H865.174Z" fill="#3909E2"/>
<path d="M911.914 254C905.866 254 900.44 252.931 895.637 250.792C890.834 248.564 887.009 245.579 884.162 241.836C881.405 238.093 879.893 233.95 879.626 229.405H898.439C898.794 232.256 900.173 234.618 902.575 236.489C905.065 238.361 908.134 239.296 911.781 239.296C915.339 239.296 918.096 238.583 920.053 237.158C922.099 235.732 923.122 233.905 923.122 231.677C923.122 229.271 921.876 227.489 919.386 226.33C916.984 225.083 913.115 223.746 907.778 222.32C902.263 220.984 897.727 219.602 894.169 218.177C890.7 216.751 887.676 214.567 885.096 211.627C882.606 208.686 881.361 204.72 881.361 199.73C881.361 195.631 882.517 191.888 884.83 188.502C887.231 185.116 890.611 182.442 894.97 180.482C899.417 178.521 904.62 177.541 910.58 177.541C919.386 177.541 926.413 179.769 931.66 184.224C936.908 188.591 939.799 194.517 940.333 202.003H922.454C922.188 199.062 920.942 196.745 918.719 195.052C916.584 193.269 913.693 192.378 910.046 192.378C906.666 192.378 904.042 193.002 902.174 194.25C900.395 195.497 899.506 197.235 899.506 199.463C899.506 201.958 900.751 203.874 903.242 205.211C905.732 206.458 909.601 207.75 914.849 209.087C920.186 210.424 924.589 211.805 928.058 213.231C931.527 214.657 934.507 216.884 936.997 219.914C939.577 222.855 940.911 226.776 941 231.677C941 235.955 939.799 239.786 937.398 243.173C935.085 246.559 931.705 249.232 927.258 251.193C922.899 253.064 917.785 254 911.914 254Z" fill="#3909E2"/>
<path fill-rule="evenodd" clip-rule="evenodd" d="M174.044 126.012C174.045 126.027 174.045 126.043 174.045 126.058V258.624C174.045 259.729 173.149 260.624 172.045 260.624H51.9751C50.8705 260.624 49.9751 259.729 49.9751 258.624V273.187C49.9751 282.023 57.1385 289.187 65.9751 289.187H166.376C175.212 289.187 182.376 282.023 182.376 273.187V140.058C182.376 134 179.009 128.728 174.044 126.012Z" fill="black" fill-opacity="0.25"/>
<path fill-rule="evenodd" clip-rule="evenodd" d="M315.668 126.012C315.669 126.027 315.669 126.043 315.669 126.058V258.624C315.669 259.729 314.774 260.624 313.669 260.624H193.599C192.495 260.624 191.599 259.729 191.599 258.624V273.187C191.599 282.023 198.763 289.187 207.599 289.187H308C316.836 289.187 324 282.023 324 273.187V140.058C324 134 320.633 128.728 315.668 126.012Z" fill="black" fill-opacity="0.25"/>
<circle cx="115.283" cy="190.258" r="33.4721" fill="#F1D7B1"/>
<path fill-rule="evenodd" clip-rule="evenodd" d="M124.783 155.244C126.006 159.753 127.6 169.886 125.974 171.476H115.681C115.68 171.457 115.679 171.439 115.678 171.421C111.863 170.999 108.896 167.764 108.896 163.837V156.384C108.896 152.169 112.312 148.753 116.527 148.753H117.237C121.064 148.753 124.233 151.571 124.783 155.244Z" fill="#D0B8EE"/>
<path fill-rule="evenodd" clip-rule="evenodd" d="M112.893 162.414C111.258 160.494 110.151 158.142 110.336 155.505C110.869 147.91 121.442 149.581 123.498 153.414C125.555 157.248 125.311 166.972 122.653 167.657C121.593 167.93 119.334 167.261 117.036 165.876L118.479 176.082H109.961L112.893 162.414Z" fill="#7EADF3"/>
<path fill-rule="evenodd" clip-rule="evenodd" d="M115.196 161.131C115.588 165.346 115.431 170.161 114.261 171.303H103.969C103.395 161.34 108.938 165.198 108.938 155.817C109.283 155.479 109.61 155.145 109.933 154.857L109.921 154.581C111.704 150.932 113.965 149.108 116.705 149.108C120.815 149.108 122.112 151.02 123.216 152.644C122.391 155.478 119.185 155.898 116.337 157.665C116.001 157.392 115.573 157.229 115.107 157.229C114.029 157.229 113.155 158.103 113.155 159.181C113.155 160.259 114.029 161.133 115.107 161.133C115.137 161.133 115.166 161.132 115.196 161.131Z" fill="#D0B8EE"/>
<path fill-rule="evenodd" clip-rule="evenodd" d="M96.2639 240.353C104.778 242.734 112.124 243.925 118.301 243.925C124.479 243.925 130.217 242.091 135.515 238.424C127.183 235.979 120.321 234.757 114.93 234.757C109.538 234.757 103.316 236.622 96.2639 240.353Z" fill="#1F28CF"/>
<path fill-rule="evenodd" clip-rule="evenodd" d="M124.555 244.216C124.478 244.102 124.413 243.978 124.361 243.844C123.29 241.063 106.133 211.066 104.423 205.581H123.74C125.039 209.751 130.889 235.919 131.712 241.14C134.309 249.375 139.657 276.046 140.339 277.894C141.058 279.838 137.017 281.863 135.94 279.473C134.227 275.671 130.144 265.15 128.327 258.726C126.623 252.704 125.235 247.286 124.555 244.216Z" fill="#7EADF3"/>
<path fill-rule="evenodd" clip-rule="evenodd" d="M108.881 251.321C100.547 253.428 70.0628 257.236 67.9708 257.833C65.8189 258.447 63.932 254.012 66.592 253.051C70.8244 251.522 82.4867 247.99 89.5576 246.548C95.245 245.389 100.435 244.442 103.919 243.888C103.624 234.101 102.275 210.613 103.159 205.54H121.318C120.47 210.404 113.301 245.9 111.968 249.453C111.545 250.721 110.284 251.282 108.881 251.321Z" fill="#7EADF3"/>
<path fill-rule="evenodd" clip-rule="evenodd" d="M66.7851 251.87C65.6723 251.663 64.8567 251.605 64.3385 251.696C63.7082 251.808 62.807 252.075 61.6348 252.498C61.7637 253.229 62.9224 259.8 65.1109 272.212C66.8948 272.425 67.757 271.969 67.6974 270.841C67.6378 269.713 67.5981 268.775 67.5782 268.026L70.0474 258.143C70.0949 257.953 69.9792 257.76 69.7891 257.712C69.7858 257.712 69.7825 257.711 69.7793 257.71L68.2467 257.373C67.5898 256.435 67.205 255.647 67.0924 255.008C67.0009 254.489 67.0841 253.735 67.3421 252.747L67.3421 252.747C67.4411 252.368 67.2138 251.98 66.8345 251.881C66.8182 251.877 66.8017 251.873 66.7851 251.87Z" fill="#E4E4E4"/>
<path fill-rule="evenodd" clip-rule="evenodd" d="M103.217 205.54C111.22 203.25 118.791 203.25 125.932 205.54C128.416 216.875 134.453 221.374 135.515 238.752C123.448 244.748 108.541 234.476 96.1191 240.323C92.5699 232.144 97.5388 212.448 103.217 205.54Z" fill="#FF2B38"/>
<path fill-rule="evenodd" clip-rule="evenodd" d="M137.644 191.453L151.657 189.542C154.46 187.983 157.039 186.927 159.394 186.375C160.056 186.356 161.11 186.597 159.54 187.906C157.97 189.215 156.377 190.663 156.657 191.361C156.936 192.06 158.397 191.8 158.638 192.874C158.8 193.591 156.43 193.707 151.529 193.224L140.158 197.731L137.644 191.453ZM93.6239 194.697L101.396 194.726C92.8737 213.903 88.4302 223.944 88.0652 224.849C87.244 226.884 88.9818 229.984 89.725 231.65C87.3045 232.733 87.5624 228.722 84.5089 230.142C81.7219 231.439 79.6018 233.788 76.3818 231.801C75.9859 231.557 75.5521 230.637 76.6002 229.919C79.2116 228.128 82.9748 224.994 83.4832 223.963C84.1766 222.556 87.5568 212.801 93.6239 194.697Z" fill="#7EADF3"/>
<path fill-rule="evenodd" clip-rule="evenodd" d="M114.912 170.048L120.997 170.453C122.495 184.012 130.658 192.575 148.934 189.676L151.363 207.136C134.281 209.344 119.3 202.505 116.229 183.988C115.435 179.195 114.807 174.207 114.912 170.048Z" fill="#3E5B6F"/>
<path fill-rule="evenodd" clip-rule="evenodd" d="M111.91 168.279L121.129 170.391C121.129 186.248 126.18 196.365 128.771 208.024H103.872C103.521 212.053 103.306 216.193 103.193 220.446H84.5493C88.7741 197.967 97.6913 180.576 111.301 168.273H111.905L111.91 168.279Z" fill="#49677C"/>
<path fill-rule="evenodd" clip-rule="evenodd" d="M107.8 185.401C107.158 195.283 107.536 202.823 108.932 208.024H103.872C104.566 200.043 105.792 192.502 107.8 185.401V185.401Z" fill="black" fill-opacity="0.1"/>
<path fill-rule="evenodd" clip-rule="evenodd" d="M258.588 166.764C260.562 164.447 261.898 161.608 261.675 158.426C261.031 149.259 248.27 151.276 245.788 155.903C243.305 160.529 243.6 172.266 246.809 173.093C248.088 173.423 250.814 172.615 253.588 170.943L251.846 183.261H262.127L258.588 166.764Z" fill="#FB9090"/>
<path fill-rule="evenodd" clip-rule="evenodd" d="M255.389 161.785C255.725 161.554 256.127 161.414 256.558 161.414C257.741 161.414 258.7 162.469 258.7 163.556C258.7 164.687 258.166 165.561 257.404 165.932C257.811 166.728 258.22 167.306 258.7 167.411C260.552 167.224 262.984 162.622 262.984 158.844C262.984 154.708 259.693 151.133 253.56 151.133C248.047 151.133 245.957 153.406 245.849 155.417C248.211 156.066 252.339 156.316 258.272 156.274V156.702L253.131 157.13L252.275 159.701C253.638 159.599 254.612 160.534 255.389 161.785Z" fill="#A9003D"/>
<path d="M266.354 285.914C248.114 285.914 233.328 273.459 233.328 258.095C233.328 242.731 248.114 230.276 266.354 230.276C284.593 230.276 299.38 242.731 299.38 258.095C299.38 273.459 284.593 285.914 266.354 285.914Z" fill="#C5CFD6"/>
<path fill-rule="evenodd" clip-rule="evenodd" d="M209.267 274.906C214.318 265.724 217.97 257.729 219.436 253.511C221.947 246.289 223.856 239.934 224.339 237.56C225.49 231.901 215.485 231.571 214.162 234.384C212.161 238.641 208.666 252.628 204.468 273.755L209.267 274.906ZM267.851 246.092C263.217 244.587 246.989 239.879 239.163 238.547C236.914 238.164 234.734 237.809 232.684 237.487C226.593 236.532 223.437 245.559 229.304 246.252C243.915 247.979 264.629 249.763 266.401 249.963C268.886 250.244 270.763 247.037 267.851 246.092Z" fill="#FB9090"/>
<path fill-rule="evenodd" clip-rule="evenodd" d="M225.464 235.7L252.703 221.834V218.815H249.464C223.111 225.53 209.645 229.834 209.066 231.726C209.06 231.746 209.054 231.766 209.049 231.787C209.035 231.804 209.022 231.822 209.009 231.839C203.787 239.022 200.659 274.087 199.633 276.712L209.64 278.205C213.468 264.01 225.716 254.121 225.391 237.119C225.478 236.621 225.501 236.148 225.464 235.7Z" fill="#1F28CF"/>
<path fill-rule="evenodd" clip-rule="evenodd" d="M250.44 243.935C252.932 243.436 255.227 242.991 257.191 242.647C269.877 240.422 273.576 233.631 271.389 218.815H248.016C244.198 219.912 224.356 228.233 214.061 232.659C207.248 235.588 209.396 246.147 213.254 248.895C213.275 249.064 213.345 249.178 213.468 249.23C234.225 257.832 250.645 253.319 256.13 254.761L258.667 246.757L250.44 243.935Z" fill="#2B44FF"/>
<path fill-rule="evenodd" clip-rule="evenodd" d="M266.022 249.099C267.382 249.229 268.347 249.433 268.918 249.711C269.612 250.05 270.569 250.66 271.788 251.541C271.395 252.346 267.865 259.585 261.197 273.256C259.056 272.911 258.208 272.094 258.652 270.805C259.096 269.517 259.455 268.441 259.727 267.579L260.15 255.291C260.158 255.055 260.356 254.869 260.593 254.878C260.597 254.878 260.601 254.878 260.605 254.878L262.495 254.997C263.569 254.128 264.278 253.341 264.621 252.637C264.9 252.066 265.054 251.163 265.084 249.931L265.084 249.931C265.095 249.458 265.488 249.084 265.961 249.095C265.981 249.095 266.002 249.097 266.022 249.099Z" fill="#E4E4E4"/>
<path fill-rule="evenodd" clip-rule="evenodd" d="M227.048 210.304L213.384 220.338C209.678 221.338 206.582 222.583 204.095 224.071C203.508 224.606 202.798 225.69 205.234 225.503C207.67 225.315 210.24 225.228 210.576 226.059C210.913 226.89 209.438 227.883 210.118 229.004C210.571 229.752 212.711 227.878 216.538 223.382L230.069 217.771L227.048 210.304ZM288.883 206.125L281.339 207.491C290.095 224.866 294.785 234.053 295.408 235.052C296.811 237.299 295.395 241.347 294.861 243.483C297.965 244.263 296.818 239.549 300.745 240.598C304.329 241.555 307.342 243.903 310.753 240.867C311.172 240.493 311.495 239.309 310.098 238.675C306.619 237.094 301.489 234.157 300.669 233.038C299.55 231.511 295.621 222.54 288.883 206.125Z" fill="#FB9090"/>
<path fill-rule="evenodd" clip-rule="evenodd" d="M223.865 211.395C222.107 211.269 220.195 211.56 218.144 212.251C217.135 212.591 216.593 213.684 216.933 214.693C217.13 215.279 217.582 215.708 218.124 215.898C217.731 216.184 217.335 216.468 216.936 216.751L220.383 223.789C234.889 216.556 248.523 211.103 254.736 199.163C256.821 195.155 256.115 181.542 256.314 176.59L251.733 174.711C245.347 187.912 236.704 200.577 223.865 211.395Z" fill="#69A1AC"/>
<path fill-rule="evenodd" clip-rule="evenodd" d="M272.408 222.632C258.941 224.112 248.341 224.112 240.607 222.632C239.649 222.449 239.691 218.319 240.136 217.191C247.055 199.625 251.606 186.767 251.606 174.566C252.876 175.229 255.098 175.329 258.272 174.864C266.802 187.437 270.723 201.863 272.408 222.632Z" fill="#A9003D"/>
<path fill-rule="evenodd" clip-rule="evenodd" d="M274.91 224.709C275.368 224.279 275.606 223.633 275.489 222.969L275.266 221.703C275.114 220.846 274.418 220.221 273.596 220.123C273.452 219.481 273.328 218.842 273.225 218.209C272.361 212.856 273.838 207.607 273.769 202.453C280.657 208.33 286.836 218.478 292.307 232.896L300.397 230.516C300.088 229.369 299.769 228.236 299.438 227.117C300.372 226.587 301.463 224.156 300.677 223.749C299.866 223.328 299.007 223.033 298.102 222.859C290.684 200.515 278.553 184.175 261.709 173.837H260.219L256.837 173.837C258.272 192.805 238.46 234.217 245.339 269.585C258.054 272.424 276.207 263.59 293.877 270.648C293.219 256.405 280.049 239.673 274.91 224.709V224.709Z" fill="#89C5CC"/>
<path fill-rule="evenodd" clip-rule="evenodd" d="M259.94 174.265L262.15 181.061L257.699 186.156L261.722 190.16L251.991 206.821L263.89 190.193L259.94 186.156L263.89 181.654L259.94 174.265Z" fill="black" fill-opacity="0.1"/>
<path fill-rule="evenodd" clip-rule="evenodd" d="M254.845 213.247C255.791 213.247 256.558 212.48 256.558 211.533C256.558 210.587 255.791 209.82 254.845 209.82C253.899 209.82 253.131 210.587 253.131 211.533C253.131 212.48 253.899 213.247 254.845 213.247ZM252.703 223.099C253.649 223.099 254.417 222.332 254.417 221.386C254.417 220.439 253.649 219.672 252.703 219.672C251.757 219.672 250.99 220.439 250.99 221.386C250.99 222.332 251.757 223.099 252.703 223.099ZM252.275 232.952C253.221 232.952 253.988 232.185 253.988 231.238C253.988 230.292 253.221 229.525 252.275 229.525C251.328 229.525 250.561 230.292 250.561 231.238C250.561 232.185 251.328 232.952 252.275 232.952Z" fill="black" fill-opacity="0.4"/>
<rect x="55.3308" y="131.496" width="3.57035" height="138.351" fill="black" fill-opacity="0.25"/>
<rect x="58.9011" y="146.075" width="3.57035" height="113.061" transform="rotate(-90 58.9011 146.075)" fill="black" fill-opacity="0.25"/>
<path fill-rule="evenodd" clip-rule="evenodd" d="M63 119C54.1634 119 47 126.163 47 135V269.914C47 278.751 54.1634 285.914 63 285.914H163.103C171.94 285.914 179.103 278.751 179.103 269.914V135C179.103 126.163 171.94 119 163.103 119H63ZM57.3309 142.845C56.2263 142.845 55.3309 143.74 55.3309 144.845V254.938C55.3309 256.043 56.2263 256.938 57.3309 256.938H168.772C169.877 256.938 170.772 256.043 170.772 254.938V144.845C170.772 143.74 169.877 142.845 168.772 142.845H57.3309Z" fill="#EFEFEF"/>
<path d="M66.2968 263.539C66.2968 265.149 65.0409 266.454 63.4916 266.454C61.9422 266.454 60.6863 265.149 60.6863 263.539C60.6863 261.929 61.9422 260.624 63.4916 260.624C65.0409 260.624 66.2968 261.929 66.2968 263.539Z" fill="#F25E5E"/>
<path d="M70.5048 263.539C70.5048 265.149 69.2488 266.454 67.6995 266.454C66.1502 266.454 64.8942 265.149 64.8942 263.539C64.8942 261.929 66.1502 260.624 67.6995 260.624C69.2488 260.624 70.5048 261.929 70.5048 263.539Z" fill="#F25E5E"/>
<path d="M61.6282 265.725L65.5955 261.603L69.5628 265.725L65.5955 269.847L61.6282 265.725Z" fill="#F25E5E"/>
<path d="M87.1618 266.659V267.021L87.3924 267.298C87.4593 267.379 87.5245 267.457 87.5879 267.534C83.6489 269.233 81.0965 269.036 79.5948 268.323C78.0605 267.594 77.4553 266.261 77.4553 265.34C77.4553 263.373 79.21 261.327 82.4416 261.327C84.0055 261.327 85.1502 261.906 85.9185 262.806C86.7029 263.726 87.1618 265.062 87.1618 266.659Z" stroke="#B4BDC6" stroke-width="2"/>
<path d="M100.872 265.345L98.8628 264.229L103.552 262.666L100.872 265.345ZM103.403 268.769L102.287 266.759L104.966 264.08L103.403 268.769Z" stroke="#B4BDC6" stroke-width="2"/>
<rect x="76.4553" y="129.711" width="55.043" height="2.38024" rx="1.19012" fill="#B4BDC6"/>
<rect x="76.7529" y="134.472" width="44.927" height="1.78518" rx="0.892589" fill="#B4BDC6"/>
<rect x="56.2234" y="274.013" width="47.3072" height="1.78518" rx="0.892589" fill="#B4BDC6"/>
<rect x="56.521" y="278.773" width="35.7035" height="1.78518" rx="0.892589" fill="#B4BDC6"/>
<circle cx="65.7442" cy="132.091" r="8.0333" fill="#B4BDC6"/>
<mask id="mask1" mask-type="alpha" maskUnits="userSpaceOnUse" x="57" y="124" width="17" height="17">
<circle cx="65.7442" cy="132.091" r="8.0333" fill="#B4BDC6"/>
</mask>
<g mask="url(#mask1)">
<circle cx="65.5956" cy="131.05" r="2.529" fill="#EFEFEF"/>
<rect x="61.8765" y="134.472" width="7.43824" height="8.0333" rx="3.71912" fill="#EFEFEF"/>
</g>
<rect x="196.657" y="131.496" width="3.57035" height="138.351" fill="black" fill-opacity="0.25"/>
<rect x="200.228" y="146.075" width="3.57035" height="113.061" transform="rotate(-90 200.228 146.075)" fill="black" fill-opacity="0.25"/>
<path fill-rule="evenodd" clip-rule="evenodd" d="M204.327 119C195.49 119 188.327 126.163 188.327 135V269.914C188.327 278.751 195.49 285.914 204.327 285.914H304.43C313.266 285.914 320.43 278.751 320.43 269.914V135C320.43 126.163 313.266 119 304.43 119H204.327ZM198.657 142.845C197.553 142.845 196.657 143.74 196.657 144.845V254.938C196.657 256.043 197.553 256.938 198.657 256.938H310.099C311.203 256.938 312.099 256.043 312.099 254.938V144.845C312.099 143.74 311.203 142.845 310.099 142.845H198.657Z" fill="#EFEFEF"/>
<path d="M207.623 263.539C207.623 265.149 206.368 266.454 204.818 266.454C203.269 266.454 202.013 265.149 202.013 263.539C202.013 261.929 203.269 260.624 204.818 260.624C206.368 260.624 207.623 261.929 207.623 263.539Z" fill="#F25E5E"/>
<path d="M211.831 263.539C211.831 265.149 210.575 266.454 209.026 266.454C207.477 266.454 206.221 265.149 206.221 263.539C206.221 261.929 207.477 260.624 209.026 260.624C210.575 260.624 211.831 261.929 211.831 263.539Z" fill="#F25E5E"/>
<path d="M202.955 265.725L206.922 261.603L210.889 265.725L206.922 269.847L202.955 265.725Z" fill="#F25E5E"/>
<path d="M228.488 266.659V267.021L228.719 267.298C228.786 267.379 228.851 267.457 228.915 267.534C224.976 269.233 222.423 269.036 220.921 268.323C219.387 267.594 218.782 266.261 218.782 265.34C218.782 263.373 220.537 261.327 223.768 261.327C225.332 261.327 226.477 261.906 227.245 262.806C228.03 263.726 228.488 265.062 228.488 266.659Z" stroke="#B4BDC6" stroke-width="2"/>
<path d="M242.199 265.345L240.189 264.229L244.878 262.666L242.199 265.345ZM244.729 268.769L243.613 266.759L246.292 264.08L244.729 268.769Z" stroke="#B4BDC6" stroke-width="2"/>
<rect x="217.782" y="129.711" width="55.043" height="2.38024" rx="1.19012" fill="#B4BDC6"/>
<rect x="218.08" y="134.472" width="44.927" height="1.78518" rx="0.892589" fill="#B4BDC6"/>
<rect x="197.55" y="274.013" width="47.3072" height="1.78518" rx="0.892589" fill="#B4BDC6"/>
<rect x="197.847" y="278.773" width="35.7035" height="1.78518" rx="0.892589" fill="#B4BDC6"/>
<circle cx="207.071" cy="132.091" r="8.0333" fill="#B4BDC6"/>
<mask id="mask2" mask-type="alpha" maskUnits="userSpaceOnUse" x="199" y="124" width="17" height="17">
<circle cx="207.071" cy="132.091" r="8.0333" fill="#B4BDC6"/>
</mask>
<g mask="url(#mask2)">
<circle cx="206.922" cy="131.05" r="2.529" fill="#EFEFEF"/>
<rect x="203.203" y="134.472" width="7.43824" height="8.0333" rx="3.71912" fill="#EFEFEF"/>
</g>
<path d="M164.152 179.374C164.571 178.113 163.667 176.802 162.34 176.745L158.602 176.583C157.71 176.545 156.9 177.103 156.618 177.951L152.369 190.743C152.088 191.592 152.403 192.524 153.141 193.027L156.233 195.133C157.331 195.881 158.839 195.371 159.258 194.111L164.152 179.374Z" fill="#343434"/>
<path d="M163.779 179.25C164.197 177.989 163.294 176.678 161.967 176.621L158.229 176.459C157.336 176.421 156.526 176.979 156.244 177.827L151.996 190.619C151.714 191.467 152.029 192.399 152.768 192.903L155.86 195.009C156.957 195.757 158.465 195.247 158.884 193.987L163.779 179.25Z" fill="#5C5C5C"/>
<path d="M162.747 180.482C163.162 179.233 162.279 177.931 160.966 177.855L158.426 177.707C157.523 177.654 156.697 178.214 156.412 179.073L153.21 188.712C152.925 189.571 153.252 190.514 154.007 191.012L156.131 192.413C157.229 193.137 158.715 192.622 159.13 191.374L162.747 180.482Z" fill="#EFEFEF"/>
<path d="M950 4.5C950 31.8381 927.838 54 900.5 54C873.162 54 851 31.8381 851 4.5C851 -22.8381 873.162 -45 900.5 -45C927.838 -45 950 -22.8381 950 4.5Z" fill="#F18969"/>
<path d="M130 393.5C130 420.838 107.838 443 80.5 443C53.1619 443 31 420.838 31 393.5C31 366.162 53.1619 344 80.5 344C107.838 344 130 366.162 130 393.5Z" fill="#F18969"/>
<rect x="672" y="330" width="273" height="52" rx="26" fill="#5834D7"/>
<path d="M726.852 361.892H733.292V365H722.932V345.456H726.852V361.892ZM750.204 356.908C750.204 357.468 750.166 357.972 750.092 358.42H738.752C738.845 359.54 739.237 360.417 739.928 361.052C740.618 361.687 741.468 362.004 742.476 362.004C743.932 362.004 744.968 361.379 745.584 360.128H749.812C749.364 361.621 748.505 362.853 747.236 363.824C745.966 364.776 744.408 365.252 742.56 365.252C741.066 365.252 739.722 364.925 738.528 364.272C737.352 363.6 736.428 362.657 735.756 361.444C735.102 360.231 734.776 358.831 734.776 357.244C734.776 355.639 735.102 354.229 735.756 353.016C736.409 351.803 737.324 350.869 738.5 350.216C739.676 349.563 741.029 349.236 742.56 349.236C744.034 349.236 745.35 349.553 746.508 350.188C747.684 350.823 748.589 351.728 749.224 352.904C749.877 354.061 750.204 355.396 750.204 356.908ZM746.144 355.788C746.125 354.78 745.761 353.977 745.052 353.38C744.342 352.764 743.474 352.456 742.448 352.456C741.477 352.456 740.656 352.755 739.984 353.352C739.33 353.931 738.929 354.743 738.78 355.788H746.144ZM752.057 357.188C752.057 355.62 752.365 354.229 752.981 353.016C753.615 351.803 754.465 350.869 755.529 350.216C756.611 349.563 757.815 349.236 759.141 349.236C760.298 349.236 761.306 349.469 762.165 349.936C763.042 350.403 763.742 350.991 764.265 351.7V349.488H768.213V365H764.265V362.732C763.761 363.46 763.061 364.067 762.165 364.552C761.287 365.019 760.27 365.252 759.113 365.252C757.806 365.252 756.611 364.916 755.529 364.244C754.465 363.572 753.615 362.629 752.981 361.416C752.365 360.184 752.057 358.775 752.057 357.188ZM764.265 357.244C764.265 356.292 764.078 355.48 763.705 354.808C763.331 354.117 762.827 353.595 762.193 353.24C761.558 352.867 760.877 352.68 760.149 352.68C759.421 352.68 758.749 352.857 758.133 353.212C757.517 353.567 757.013 354.089 756.621 354.78C756.247 355.452 756.061 356.255 756.061 357.188C756.061 358.121 756.247 358.943 756.621 359.652C757.013 360.343 757.517 360.875 758.133 361.248C758.767 361.621 759.439 361.808 760.149 361.808C760.877 361.808 761.558 361.631 762.193 361.276C762.827 360.903 763.331 360.38 763.705 359.708C764.078 359.017 764.265 358.196 764.265 357.244ZM775.961 351.896C776.465 351.075 777.119 350.431 777.921 349.964C778.743 349.497 779.676 349.264 780.721 349.264V353.38H779.685C778.453 353.38 777.52 353.669 776.885 354.248C776.269 354.827 775.961 355.835 775.961 357.272V365H772.041V349.488H775.961V351.896ZM791.958 349.264C793.806 349.264 795.299 349.852 796.438 351.028C797.576 352.185 798.146 353.809 798.146 355.9V365H794.226V356.432C794.226 355.2 793.918 354.257 793.302 353.604C792.686 352.932 791.846 352.596 790.782 352.596C789.699 352.596 788.84 352.932 788.206 353.604C787.59 354.257 787.282 355.2 787.282 356.432V365H783.362V349.488H787.282V351.42C787.804 350.748 788.467 350.225 789.27 349.852C790.091 349.46 790.987 349.264 791.958 349.264ZM827.809 349.264C829.713 349.264 831.244 349.852 832.401 351.028C833.577 352.185 834.165 353.809 834.165 355.9V365H830.245V356.432C830.245 355.219 829.937 354.295 829.321 353.66C828.705 353.007 827.865 352.68 826.801 352.68C825.737 352.68 824.888 353.007 824.253 353.66C823.637 354.295 823.329 355.219 823.329 356.432V365H819.409V356.432C819.409 355.219 819.101 354.295 818.485 353.66C817.869 353.007 817.029 352.68 815.965 352.68C814.883 352.68 814.024 353.007 813.389 353.66C812.773 354.295 812.465 355.219 812.465 356.432V365H808.545V349.488H812.465V351.364C812.969 350.711 813.613 350.197 814.397 349.824C815.2 349.451 816.077 349.264 817.029 349.264C818.243 349.264 819.325 349.525 820.277 350.048C821.229 350.552 821.967 351.28 822.489 352.232C822.993 351.336 823.721 350.617 824.673 350.076C825.644 349.535 826.689 349.264 827.809 349.264ZM844.773 365.252C843.28 365.252 841.936 364.925 840.741 364.272C839.546 363.6 838.604 362.657 837.913 361.444C837.241 360.231 836.905 358.831 836.905 357.244C836.905 355.657 837.25 354.257 837.941 353.044C838.65 351.831 839.612 350.897 840.825 350.244C842.038 349.572 843.392 349.236 844.885 349.236C846.378 349.236 847.732 349.572 848.945 350.244C850.158 350.897 851.11 351.831 851.801 353.044C852.51 354.257 852.865 355.657 852.865 357.244C852.865 358.831 852.501 360.231 851.773 361.444C851.064 362.657 850.093 363.6 848.861 364.272C847.648 364.925 846.285 365.252 844.773 365.252ZM844.773 361.836C845.482 361.836 846.145 361.668 846.761 361.332C847.396 360.977 847.9 360.455 848.273 359.764C848.646 359.073 848.833 358.233 848.833 357.244C848.833 355.769 848.441 354.64 847.657 353.856C846.892 353.053 845.949 352.652 844.829 352.652C843.709 352.652 842.766 353.053 842.001 353.856C841.254 354.64 840.881 355.769 840.881 357.244C840.881 358.719 841.245 359.857 841.973 360.66C842.72 361.444 843.653 361.836 844.773 361.836ZM859.661 351.896C860.165 351.075 860.818 350.431 861.621 349.964C862.442 349.497 863.375 349.264 864.421 349.264V353.38H863.385C862.153 353.38 861.219 353.669 860.585 354.248C859.969 354.827 859.661 355.835 859.661 357.272V365H855.741V349.488H859.661V351.896ZM881.481 356.908C881.481 357.468 881.444 357.972 881.369 358.42H870.029C870.122 359.54 870.514 360.417 871.205 361.052C871.896 361.687 872.745 362.004 873.753 362.004C875.209 362.004 876.245 361.379 876.861 360.128H881.089C880.641 361.621 879.782 362.853 878.513 363.824C877.244 364.776 875.685 365.252 873.837 365.252C872.344 365.252 871 364.925 869.805 364.272C868.629 363.6 867.705 362.657 867.033 361.444C866.38 360.231 866.053 358.831 866.053 357.244C866.053 355.639 866.38 354.229 867.033 353.016C867.686 351.803 868.601 350.869 869.777 350.216C870.953 349.563 872.306 349.236 873.837 349.236C875.312 349.236 876.628 349.553 877.785 350.188C878.961 350.823 879.866 351.728 880.501 352.904C881.154 354.061 881.481 355.396 881.481 356.908ZM877.421 355.788C877.402 354.78 877.038 353.977 876.329 353.38C875.62 352.764 874.752 352.456 873.725 352.456C872.754 352.456 871.933 352.755 871.261 353.352C870.608 353.931 870.206 354.743 870.057 355.788H877.421Z" fill="#EFEFEF"/>
<path d="M891.848 349.44H897.512L904.488 356.608L897.512 363.776H891.848L898.856 356.608L891.848 349.44Z" fill="#EFEFEF"/>
</g>
<defs>
<linearGradient id="paint0_linear" x1="391" y1="147.5" x2="517.232" y2="147.5" gradientUnits="userSpaceOnUse">
<stop stop-color="#3308CC"/>
<stop offset="0.854341" stop-color="#9876FF"/>
</linearGradient>
<linearGradient id="paint1_linear" x1="391" y1="194" x2="470" y2="194" gradientUnits="userSpaceOnUse">
<stop stop-color="#3308CC"/>
<stop offset="0.821766" stop-color="#9876FF"/>
</linearGradient>
<linearGradient id="paint2_linear" x1="391" y1="240.5" x2="429.214" y2="240.5" gradientUnits="userSpaceOnUse">
<stop stop-color="#3308CC"/>
<stop offset="0.785335" stop-color="#9876FF"/>
</linearGradient>
</defs>
</svg>
