<svg width="316" height="78" viewBox="0 0 316 78" fill="none" xmlns="http://www.w3.org/2000/svg">
<path d="M238.793 33C238.005 33 237.611 32.8535 237.611 32.5605C237.611 32.4792 237.68 32.4271 237.816 32.4043C237.953 32.3783 238.09 32.3522 238.227 32.3262C238.363 32.3001 238.432 32.2448 238.432 32.1602V26.7549L237.001 26.7598C236.841 26.7598 236.695 26.9404 236.562 27.3018C236.431 27.6631 236.29 27.8438 236.137 27.8438C235.883 27.8438 235.756 27.694 235.756 27.3945C235.756 26.9779 235.827 26.6654 235.971 26.457C236.111 26.2454 236.366 26.1396 236.737 26.1396H239.579C240.611 26.1396 241.252 26.1429 241.503 26.1494C241.838 26.1657 242.048 26.4489 242.133 26.999C242.156 27.1357 242.167 27.2773 242.167 27.4238C242.167 27.7038 242.04 27.8438 241.786 27.8438C241.62 27.8438 241.482 27.6631 241.371 27.3018C241.329 27.165 241.269 27.0413 241.19 26.9307C241.112 26.8167 241.023 26.7598 240.922 26.7598L239.491 26.7549V32.1602C239.491 32.2546 239.63 32.3262 239.906 32.375C240.186 32.4206 240.326 32.4824 240.326 32.5605C240.326 32.6745 240.297 32.7526 240.238 32.7949C240.183 32.8372 240.136 32.8698 240.097 32.8926C240.058 32.9154 240.001 32.9333 239.926 32.9463C239.854 32.9593 239.792 32.9707 239.74 32.9805C239.688 32.987 239.615 32.9919 239.521 32.9951C239.426 32.9984 239.353 33 239.301 33C239.132 33 238.962 33 238.793 33ZM243.207 26.9746C243.207 26.9128 243.07 26.846 242.797 26.7744C242.523 26.6995 242.387 26.6344 242.387 26.5791C242.387 26.2829 242.724 26.1348 243.397 26.1348L243.827 26.1445C243.882 26.1445 243.959 26.1868 244.057 26.2715C244.154 26.3561 244.229 26.444 244.281 26.5352L246.854 31.1689C247.362 30.3454 248.186 28.9733 249.325 27.0527V27.0576C249.341 27.0283 249.379 26.9551 249.438 26.8379C249.499 26.7207 249.548 26.6344 249.584 26.5791C249.623 26.5238 249.675 26.4554 249.74 26.374C249.867 26.221 250.023 26.1445 250.209 26.1445L250.565 26.1396C251.161 26.1396 251.459 26.2861 251.459 26.5791C251.459 26.68 251.319 26.7467 251.039 26.7793C250.759 26.8086 250.619 26.8737 250.619 26.9746V32.1602C250.619 32.222 250.689 32.2741 250.829 32.3164C250.969 32.3555 251.109 32.3929 251.249 32.4287C251.389 32.4645 251.459 32.5085 251.459 32.5605C251.459 32.8568 251.137 33.0049 250.492 33.0049L250.106 32.9951L249.701 33.0049C249.063 33.0049 248.744 32.8568 248.744 32.5605C248.744 32.4857 248.812 32.4352 248.949 32.4092C249.086 32.3799 249.221 32.3522 249.354 32.3262C249.491 32.2969 249.56 32.2415 249.56 32.1602V27.8047C249.498 27.9121 249.218 28.4199 248.72 29.3281C247.88 30.8516 247.309 31.7923 247.006 32.1504V32.1455C246.915 32.2367 246.83 32.2822 246.752 32.2822C246.674 32.2822 246.61 32.2757 246.562 32.2627C246.513 32.2464 246.469 32.2188 246.43 32.1797C246.394 32.1406 246.366 32.1097 246.347 32.0869C246.327 32.0609 246.301 32.0169 246.269 31.9551C246.236 31.8932 246.213 31.8525 246.2 31.833L244.066 28.3271V32.1602C244.066 32.222 244.136 32.2741 244.276 32.3164C244.416 32.3555 244.556 32.3929 244.696 32.4287C244.84 32.4613 244.911 32.5052 244.911 32.5605C244.911 32.8535 244.608 33 244.003 33L243.646 32.9951L243.275 33.0049C242.683 33.0049 242.387 32.8568 242.387 32.5605C242.387 32.4824 242.455 32.4303 242.592 32.4043C242.729 32.3783 242.865 32.3522 243.002 32.3262C243.139 32.2969 243.207 32.2415 243.207 32.1602V26.9746Z" fill="#2C2C2C"/>
<path d="M94.896 53.112C94.896 54.104 94.976 54.824 95.136 55.272C95.296 55.72 95.6 56.024 96.048 56.184C96.528 56.344 97.28 56.424 98.304 56.424C98.4 56.424 98.448 56.52 98.448 56.712C98.448 56.904 98.4 57 98.304 57C97.248 57 96.416 56.984 95.808 56.952L92.16 56.904L88.608 56.952C87.968 56.984 87.104 57 86.016 57C85.952 57 85.92 56.904 85.92 56.712C85.92 56.52 85.952 56.424 86.016 56.424C87.04 56.424 87.792 56.344 88.272 56.184C88.752 56.024 89.072 55.72 89.232 55.272C89.424 54.792 89.52 54.072 89.52 53.112V30.888C89.52 29.928 89.424 29.224 89.232 28.776C89.072 28.328 88.752 28.024 88.272 27.864C87.792 27.672 87.04 27.576 86.016 27.576C85.952 27.576 85.92 27.48 85.92 27.288C85.92 27.096 85.952 27 86.016 27L88.608 27.048C90.08 27.112 91.264 27.144 92.16 27.144C93.152 27.144 94.384 27.112 95.856 27.048L98.304 27C98.4 27 98.448 27.096 98.448 27.288C98.448 27.48 98.4 27.576 98.304 27.576C97.312 27.576 96.576 27.672 96.096 27.864C95.616 28.056 95.296 28.392 95.136 28.872C94.976 29.32 94.896 30.024 94.896 30.984V53.112ZM110.63 52.92C110.63 53.752 110.694 54.36 110.822 54.744C110.95 55.096 111.19 55.336 111.542 55.464C111.926 55.592 112.534 55.656 113.366 55.656H114.998C117.494 55.656 119.654 55 121.478 53.688C123.302 52.344 124.518 50.536 125.126 48.264C125.126 48.2 125.19 48.168 125.318 48.168C125.382 48.168 125.446 48.2 125.51 48.264C125.606 48.296 125.654 48.328 125.654 48.36C125.366 51.528 125.222 54.168 125.222 56.28C125.222 56.536 125.158 56.728 125.03 56.856C124.934 56.952 124.758 57 124.502 57H101.846C101.782 57 101.75 56.904 101.75 56.712C101.75 56.52 101.782 56.424 101.846 56.424C102.87 56.424 103.606 56.344 104.054 56.184C104.534 56.024 104.854 55.72 105.014 55.272C105.206 54.792 105.302 54.072 105.302 53.112V30.888C105.302 29.928 105.206 29.224 105.014 28.776C104.854 28.328 104.534 28.024 104.054 27.864C103.574 27.672 102.838 27.576 101.846 27.576C101.782 27.576 101.75 27.48 101.75 27.288C101.75 27.096 101.782 27 101.846 27L104.294 27.048C105.766 27.112 106.982 27.144 107.942 27.144C108.902 27.144 110.118 27.112 111.59 27.048L114.038 27C114.134 27 114.182 27.096 114.182 27.288C114.182 27.48 114.134 27.576 114.038 27.576C113.046 27.576 112.31 27.672 111.83 27.864C111.35 28.024 111.03 28.344 110.87 28.824C110.71 29.272 110.63 29.976 110.63 30.936V52.92ZM160.979 56.424C161.139 56.424 161.219 56.52 161.219 56.712C161.219 56.904 161.139 57 160.979 57C160.339 57 159.347 56.968 158.003 56.904C156.595 56.84 155.587 56.808 154.979 56.808C154.179 56.808 153.203 56.84 152.051 56.904C150.963 56.968 150.099 57 149.459 57C149.331 57 149.267 56.904 149.267 56.712C149.267 56.52 149.331 56.424 149.459 56.424C150.291 56.424 150.883 56.344 151.234 56.184C151.619 55.992 151.811 55.672 151.811 55.224C151.811 54.68 151.491 53.768 150.851 52.488L145.859 42.648H137.315L133.907 50.184C133.491 51.112 133.283 51.976 133.283 52.776C133.283 53.928 133.683 54.824 134.483 55.464C135.315 56.104 136.419 56.424 137.795 56.424C137.955 56.424 138.035 56.52 138.035 56.712C138.035 56.904 137.955 57 137.795 57C137.219 57 136.387 56.968 135.299 56.904C134.083 56.84 133.027 56.808 132.131 56.808C131.267 56.808 130.227 56.84 129.011 56.904C127.923 56.968 127.043 57 126.37 57C126.242 57 126.178 56.904 126.178 56.712C126.178 56.52 126.242 56.424 126.37 56.424C127.267 56.424 128.019 56.248 128.627 55.896C129.235 55.512 129.843 54.856 130.451 53.928C131.059 52.968 131.779 51.56 132.611 49.704L143.027 26.808C143.091 26.712 143.235 26.664 143.459 26.664C143.715 26.664 143.859 26.712 143.891 26.808L155.891 50.424C157.011 52.696 157.939 54.264 158.675 55.128C159.411 55.992 160.179 56.424 160.979 56.424ZM137.939 41.304H145.187L141.347 33.72L137.939 41.304ZM191.834 56.424C191.93 56.424 191.978 56.52 191.978 56.712C191.978 56.904 191.93 57 191.834 57C190.906 57 190.186 56.984 189.674 56.952L186.794 56.904L182.858 56.952C182.25 56.984 181.402 57 180.314 57C180.218 57 180.17 56.904 180.17 56.712C180.17 56.52 180.218 56.424 180.314 56.424C181.37 56.424 181.898 56.152 181.898 55.608C181.898 55.32 181.754 54.968 181.466 54.552L174.89 44.376L170.762 50.28C169.514 52.04 168.89 53.464 168.89 54.552C168.89 55.8 169.722 56.424 171.386 56.424C171.45 56.424 171.482 56.52 171.482 56.712C171.482 56.904 171.45 57 171.386 57C170.33 57 169.53 56.984 168.986 56.952L165.434 56.904L163.178 56.952C162.762 56.984 162.09 57 161.162 57C161.066 57 161.018 56.904 161.018 56.712C161.018 56.52 161.066 56.424 161.162 56.424C162.154 56.424 163.37 55.896 164.81 54.84C166.25 53.784 167.754 52.168 169.322 49.992L174.218 43.368L166.538 31.416C165.674 30.04 164.842 29.064 164.042 28.488C163.242 27.88 162.394 27.576 161.498 27.576C161.402 27.576 161.354 27.48 161.354 27.288C161.354 27.096 161.402 27 161.498 27L163.562 27.048C164.458 27.112 165.13 27.144 165.578 27.144C166.698 27.144 168.09 27.112 169.754 27.048L172.49 27C172.554 27 172.586 27.096 172.586 27.288C172.586 27.48 172.554 27.576 172.49 27.576C171.402 27.576 170.858 27.848 170.858 28.392C170.858 28.648 171.002 29.016 171.29 29.496L177.626 39.24L181.466 33.768C182.714 31.976 183.338 30.536 183.338 29.448C183.338 28.2 182.506 27.576 180.842 27.576C180.778 27.576 180.746 27.48 180.746 27.288C180.746 27.096 180.778 27 180.842 27L183.242 27.048C184.522 27.112 185.706 27.144 186.794 27.144C187.466 27.144 188.218 27.112 189.05 27.048L191.066 27C191.162 27 191.21 27.096 191.21 27.288C191.21 27.48 191.162 27.576 191.066 27.576C190.042 27.576 188.81 28.12 187.37 29.208C185.962 30.264 184.458 31.88 182.858 34.056L178.298 40.296L186.506 53.016C187.306 54.2 188.122 55.064 188.954 55.608C189.786 56.152 190.746 56.424 191.834 56.424ZM202.896 53.112C202.896 54.104 202.976 54.824 203.136 55.272C203.296 55.72 203.6 56.024 204.048 56.184C204.528 56.344 205.28 56.424 206.304 56.424C206.4 56.424 206.448 56.52 206.448 56.712C206.448 56.904 206.4 57 206.304 57C205.248 57 204.416 56.984 203.808 56.952L200.16 56.904L196.608 56.952C195.968 56.984 195.104 57 194.016 57C193.952 57 193.92 56.904 193.92 56.712C193.92 56.52 193.952 56.424 194.016 56.424C195.04 56.424 195.792 56.344 196.272 56.184C196.752 56.024 197.072 55.72 197.232 55.272C197.424 54.792 197.52 54.072 197.52 53.112V30.888C197.52 29.928 197.424 29.224 197.232 28.776C197.072 28.328 196.752 28.024 196.272 27.864C195.792 27.672 195.04 27.576 194.016 27.576C193.952 27.576 193.92 27.48 193.92 27.288C193.92 27.096 193.952 27 194.016 27L196.608 27.048C198.08 27.112 199.264 27.144 200.16 27.144C201.152 27.144 202.384 27.112 203.856 27.048L206.304 27C206.4 27 206.448 27.096 206.448 27.288C206.448 27.48 206.4 27.576 206.304 27.576C205.312 27.576 204.576 27.672 204.096 27.864C203.616 28.056 203.296 28.392 203.136 28.872C202.976 29.32 202.896 30.024 202.896 30.984V53.112ZM216.758 31.848C216.758 33 217.046 34.024 217.622 34.92C218.23 35.816 218.966 36.6 219.83 37.272C220.694 37.944 221.862 38.76 223.334 39.72C224.934 40.744 226.214 41.64 227.174 42.408C228.134 43.176 228.95 44.12 229.622 45.24C230.294 46.328 230.63 47.592 230.63 49.032C230.63 50.696 230.182 52.184 229.286 53.496C228.39 54.776 227.142 55.784 225.542 56.52C223.974 57.224 222.214 57.576 220.262 57.576C218.822 57.576 217.318 57.384 215.75 57C214.182 56.584 213.126 56.136 212.582 55.656C212.422 55.528 212.294 55.416 212.198 55.32C212.134 55.192 212.102 55 212.102 54.744L211.958 47.112V47.064C211.958 46.936 212.038 46.872 212.198 46.872C212.358 46.84 212.454 46.888 212.486 47.016C213.446 48.968 214.278 50.552 214.982 51.768C215.718 52.984 216.63 54.056 217.718 54.984C218.838 55.912 220.102 56.376 221.51 56.376C222.79 56.376 223.846 56.04 224.678 55.368C225.51 54.664 225.926 53.48 225.926 51.816C225.926 50.408 225.606 49.176 224.966 48.12C224.358 47.064 223.606 46.168 222.71 45.432C221.814 44.696 220.582 43.816 219.014 42.792C217.478 41.8 216.278 40.952 215.414 40.248C214.582 39.544 213.862 38.696 213.254 37.704C212.646 36.712 212.342 35.544 212.342 34.2C212.342 32.504 212.822 31.08 213.782 29.928C214.774 28.744 216.038 27.88 217.574 27.336C219.11 26.76 220.726 26.472 222.422 26.472C223.542 26.472 224.678 26.584 225.83 26.808C226.982 27 227.91 27.24 228.614 27.528C228.902 27.656 229.094 27.8 229.19 27.96C229.286 28.088 229.334 28.264 229.334 28.488V35.544C229.334 35.64 229.254 35.72 229.094 35.784C228.934 35.816 228.838 35.784 228.806 35.688L228.422 34.776C227.622 32.76 226.678 31.048 225.59 29.64C224.534 28.232 223.046 27.528 221.126 27.528C219.846 27.528 218.79 27.896 217.958 28.632C217.158 29.368 216.758 30.44 216.758 31.848Z" fill="#2C2C2C"/>
<path d="M52.528 28.088C52.528 28.1733 52.4 28.2373 52.144 28.28C51.9307 28.3227 51.8027 28.28 51.76 28.152C51.0773 25.6773 49.9253 23.8427 48.304 22.648C46.6827 21.4533 44.5493 20.856 41.904 20.856H39.984C38.704 20.856 37.7653 21.1333 37.168 21.688C36.5707 22.2427 36.272 23.096 36.272 24.248V38.072H40.88C43.3547 38.072 45.232 37.6453 46.512 36.792C47.8347 35.896 48.496 34.68 48.496 33.144C48.496 33.0587 48.624 33.016 48.88 33.016C49.136 33.016 49.264 33.0587 49.264 33.144L49.2 38.968C49.2 40.3333 49.2213 41.3573 49.264 42.04L49.328 45.432C49.328 45.56 49.2 45.624 48.944 45.624C48.688 45.624 48.56 45.56 48.56 45.432C48.56 43.7253 47.8773 42.3813 46.512 41.4C45.1893 40.376 43.2907 39.864 40.816 39.864H36.272V53.56C36.272 54.8827 36.4427 55.864 36.784 56.504C37.1253 57.144 37.7653 57.592 38.704 57.848C39.6427 58.104 41.1147 58.232 43.12 58.232C43.2053 58.232 43.248 58.36 43.248 58.616C43.248 58.872 43.2053 59 43.12 59C41.3707 59 40.0053 58.9787 39.024 58.936L32.496 58.872L27.696 58.936C26.8427 58.9787 25.6693 59 24.176 59C24.048 59 23.984 58.872 23.984 58.616C23.984 58.36 24.048 58.232 24.176 58.232C25.6693 58.232 26.7573 58.1253 27.44 57.912C28.1227 57.6987 28.5707 57.2933 28.784 56.696C29.04 56.056 29.168 55.096 29.168 53.816V24.184C29.168 22.904 29.0613 21.9653 28.848 21.368C28.6347 20.7707 28.208 20.3653 27.568 20.152C26.928 19.896 25.9467 19.768 24.624 19.768C24.496 19.768 24.432 19.64 24.432 19.384C24.432 19.128 24.496 19 24.624 19H51.76C52.1867 19 52.4 19.192 52.4 19.576L52.528 28.088Z" fill="#2C2C2C"/>
<rect x="0.5" y="0.5" width="71" height="71" stroke="#121212"/>
<rect x="3.5" y="3.5" width="71" height="71" stroke="#121212"/>
<rect x="6.5" y="6.5" width="71" height="71" stroke="#121212"/>
</svg>
