<svg width="78" height="78" viewBox="0 0 78 78" fill="none" xmlns="http://www.w3.org/2000/svg">
<path d="M52.528 28.088C52.528 28.1733 52.4 28.2373 52.144 28.28C51.9307 28.3227 51.8027 28.28 51.76 28.152C51.0773 25.6773 49.9253 23.8427 48.304 22.648C46.6827 21.4533 44.5493 20.856 41.904 20.856H39.984C38.704 20.856 37.7653 21.1333 37.168 21.688C36.5707 22.2427 36.272 23.096 36.272 24.248V38.072H40.88C43.3547 38.072 45.232 37.6453 46.512 36.792C47.8347 35.896 48.496 34.68 48.496 33.144C48.496 33.0587 48.624 33.016 48.88 33.016C49.136 33.016 49.264 33.0587 49.264 33.144L49.2 38.968C49.2 40.3333 49.2213 41.3573 49.264 42.04L49.328 45.432C49.328 45.56 49.2 45.624 48.944 45.624C48.688 45.624 48.56 45.56 48.56 45.432C48.56 43.7253 47.8773 42.3813 46.512 41.4C45.1893 40.376 43.2907 39.864 40.816 39.864H36.272V53.56C36.272 54.8827 36.4427 55.864 36.784 56.504C37.1253 57.144 37.7653 57.592 38.704 57.848C39.6427 58.104 41.1147 58.232 43.12 58.232C43.2053 58.232 43.248 58.36 43.248 58.616C43.248 58.872 43.2053 59 43.12 59C41.3707 59 40.0053 58.9787 39.024 58.936L32.496 58.872L27.696 58.936C26.8427 58.9787 25.6693 59 24.176 59C24.048 59 23.984 58.872 23.984 58.616C23.984 58.36 24.048 58.232 24.176 58.232C25.6693 58.232 26.7573 58.1253 27.44 57.912C28.1227 57.6987 28.5707 57.2933 28.784 56.696C29.04 56.056 29.168 55.096 29.168 53.816V24.184C29.168 22.904 29.0613 21.9653 28.848 21.368C28.6347 20.7707 28.208 20.3653 27.568 20.152C26.928 19.896 25.9467 19.768 24.624 19.768C24.496 19.768 24.432 19.64 24.432 19.384C24.432 19.128 24.496 19 24.624 19H51.76C52.1867 19 52.4 19.192 52.4 19.576L52.528 28.088Z" fill="#2C2C2C"/>
<rect x="0.5" y="0.5" width="71" height="71" stroke="#121212"/>
<rect x="3.5" y="3.5" width="71" height="71" stroke="#121212"/>
<rect x="6.5" y="6.5" width="71" height="71" stroke="#121212"/>
</svg>
