<svg width="421" height="132" viewBox="0 0 421 132" fill="none" xmlns="http://www.w3.org/2000/svg">
<rect y="15" width="96" height="32" rx="8" fill="url(#paint0_linear)"/>
<rect y="50" width="59" height="32" rx="8" fill="url(#paint1_linear)"/>
<rect y="85" width="26" height="32" rx="7" fill="url(#paint2_linear)"/>
<path d="M154 40.2V51.5H124.9V69.4H147.2V80.5H124.9V110H110.9V40.2H154ZM171.027 48C168.561 48 166.494 47.2333 164.827 45.7C163.227 44.1 162.427 42.1333 162.427 39.8C162.427 37.4667 163.227 35.5333 164.827 34C166.494 32.4 168.561 31.6 171.027 31.6C173.494 31.6 175.527 32.4 177.127 34C178.794 35.5333 179.627 37.4667 179.627 39.8C179.627 42.1333 178.794 44.1 177.127 45.7C175.527 47.2333 173.494 48 171.027 48ZM177.927 54.6V110H163.927V54.6H177.927ZM205.759 36V110H191.759V36H205.759ZM215.991 82.1C215.991 76.5 217.091 71.5333 219.291 67.2C221.558 62.8667 224.591 59.5333 228.391 57.2C232.258 54.8667 236.558 53.7 241.291 53.7C245.425 53.7 249.025 54.5333 252.091 56.2C255.225 57.8667 257.725 59.9667 259.591 62.5V54.6H273.691V110H259.591V101.9C257.791 104.5 255.291 106.667 252.091 108.4C248.958 110.067 245.325 110.9 241.191 110.9C236.525 110.9 232.258 109.7 228.391 107.3C224.591 104.9 221.558 101.533 219.291 97.2C217.091 92.8 215.991 87.7667 215.991 82.1ZM259.591 82.3C259.591 78.9 258.925 76 257.591 73.6C256.258 71.1333 254.458 69.2667 252.191 68C249.925 66.6667 247.491 66 244.891 66C242.291 66 239.891 66.6333 237.691 67.9C235.491 69.1667 233.691 71.0333 232.291 73.5C230.958 75.9 230.291 78.7667 230.291 82.1C230.291 85.4333 230.958 88.3667 232.291 90.9C233.691 93.3667 235.491 95.2667 237.691 96.6C239.958 97.9333 242.358 98.6 244.891 98.6C247.491 98.6 249.925 97.9667 252.191 96.7C254.458 95.3667 256.258 93.5 257.591 91.1C258.925 88.6333 259.591 85.7 259.591 82.3ZM317.965 110L306.565 92.8L296.465 110H281.465L299.565 82.2L281.265 54.6H297.065L308.365 71.7L318.565 54.6H333.565L315.365 82.2L333.765 110H317.965ZM348.469 48C346.002 48 343.935 47.2333 342.269 45.7C340.669 44.1 339.869 42.1333 339.869 39.8C339.869 37.4667 340.669 35.5333 342.269 34C343.935 32.4 346.002 31.6 348.469 31.6C350.935 31.6 352.969 32.4 354.569 34C356.235 35.5333 357.069 37.4667 357.069 39.8C357.069 42.1333 356.235 44.1 354.569 45.7C352.969 47.2333 350.935 48 348.469 48ZM355.369 54.6V110H341.369V54.6H355.369ZM390.401 110.9C385.867 110.9 381.801 110.1 378.201 108.5C374.601 106.833 371.734 104.6 369.601 101.8C367.534 99 366.401 95.9 366.201 92.5H380.301C380.567 94.6333 381.601 96.4 383.401 97.8C385.267 99.2 387.567 99.9 390.301 99.9C392.967 99.9 395.034 99.3667 396.501 98.3C398.034 97.2333 398.801 95.8667 398.801 94.2C398.801 92.4 397.867 91.0667 396.001 90.2C394.201 89.2667 391.301 88.2667 387.301 87.2C383.167 86.2 379.767 85.1667 377.101 84.1C374.501 83.0333 372.234 81.4 370.301 79.2C368.434 77 367.501 74.0333 367.501 70.3C367.501 67.2333 368.367 64.4333 370.101 61.9C371.901 59.3667 374.434 57.3667 377.701 55.9C381.034 54.4333 384.934 53.7 389.401 53.7C396.001 53.7 401.267 55.3667 405.201 58.7C409.134 61.9667 411.301 66.4 411.701 72H398.301C398.101 69.8 397.167 68.0667 395.501 66.8C393.901 65.4667 391.734 64.8 389.001 64.8C386.467 64.8 384.501 65.2667 383.101 66.2C381.767 67.1333 381.101 68.4333 381.101 70.1C381.101 71.9667 382.034 73.4 383.901 74.4C385.767 75.3333 388.667 76.3 392.601 77.3C396.601 78.3 399.901 79.3333 402.501 80.4C405.101 81.4667 407.334 83.1333 409.201 85.4C411.134 87.6 412.134 90.5333 412.201 94.2C412.201 97.4 411.301 100.267 409.501 102.8C407.767 105.333 405.234 107.333 401.901 108.8C398.634 110.2 394.801 110.9 390.401 110.9Z" fill="#3909E2"/>
<defs>
<linearGradient id="paint0_linear" x1="-7.15256e-07" y1="31" x2="94.674" y2="31" gradientUnits="userSpaceOnUse">
<stop stop-color="#3308CC"/>
<stop offset="0.854341" stop-color="#9876FF"/>
</linearGradient>
<linearGradient id="paint1_linear" x1="-4.39584e-07" y1="66" x2="59" y2="66" gradientUnits="userSpaceOnUse">
<stop stop-color="#3308CC"/>
<stop offset="0.821766" stop-color="#9876FF"/>
</linearGradient>
<linearGradient id="paint2_linear" x1="-9.68575e-08" y1="101" x2="28.3878" y2="101" gradientUnits="userSpaceOnUse">
<stop stop-color="#3308CC"/>
<stop offset="0.785335" stop-color="#9876FF"/>
</linearGradient>
</defs>
</svg>