<svg width="474" height="134" viewBox="0 16 474 134" fill="none" xmlns="http://www.w3.org/2000/svg">
<rect y="31" width="96" height="32" rx="8" fill="url(#paint0_linear)"/>
<rect y="66" width="59" height="32" rx="8" fill="url(#paint1_linear)"/>
<rect y="100" width="26" height="32" rx="8" fill="url(#paint2_linear)"/>
<path d="M161.52 48.36V57.24H125.16V85.44H154.68V94.32H125.16V132H114.24V48.36H161.52ZM180.349 55.56C178.269 55.56 176.509 54.84 175.069 53.4C173.629 51.96 172.909 50.2 172.909 48.12C172.909 46.04 173.629 44.28 175.069 42.84C176.509 41.4 178.269 40.68 180.349 40.68C182.349 40.68 184.029 41.4 185.389 42.84C186.829 44.28 187.549 46.04 187.549 48.12C187.549 50.2 186.829 51.96 185.389 53.4C184.029 54.84 182.349 55.56 180.349 55.56ZM185.629 66.24V132H174.709V66.24H185.629ZM215.16 43.2V132H204.24V43.2H215.16ZM229.691 98.88C229.691 92.16 231.051 86.28 233.771 81.24C236.491 76.12 240.211 72.16 244.931 69.36C249.731 66.56 255.051 65.16 260.891 65.16C266.651 65.16 271.651 66.4 275.891 68.88C280.131 71.36 283.291 74.48 285.371 78.24V66.24H296.411V132H285.371V119.76C283.211 123.6 279.971 126.8 275.651 129.36C271.411 131.84 266.451 133.08 260.771 133.08C254.931 133.08 249.651 131.64 244.931 128.76C240.211 125.88 236.491 121.84 233.771 116.64C231.051 111.44 229.691 105.52 229.691 98.88ZM285.371 99C285.371 94.04 284.371 89.72 282.371 86.04C280.371 82.36 277.651 79.56 274.211 77.64C270.851 75.64 267.131 74.64 263.051 74.64C258.971 74.64 255.251 75.6 251.891 77.52C248.531 79.44 245.851 82.24 243.851 85.92C241.851 89.6 240.851 93.92 240.851 98.88C240.851 103.92 241.851 108.32 243.851 112.08C245.851 115.76 248.531 118.6 251.891 120.6C255.251 122.52 258.971 123.48 263.051 123.48C267.131 123.48 270.851 122.52 274.211 120.6C277.651 118.6 280.371 115.76 282.371 112.08C284.371 108.32 285.371 103.96 285.371 99ZM349.185 132L333.585 107.52L318.585 132H307.185L328.425 99.36L307.185 66.24H319.545L335.145 90.6L350.025 66.24H361.425L340.305 98.76L361.545 132H349.185ZM377.927 55.56C375.847 55.56 374.087 54.84 372.647 53.4C371.207 51.96 370.487 50.2 370.487 48.12C370.487 46.04 371.207 44.28 372.647 42.84C374.087 41.4 375.847 40.68 377.927 40.68C379.927 40.68 381.607 41.4 382.967 42.84C384.407 44.28 385.127 46.04 385.127 48.12C385.127 50.2 384.407 51.96 382.967 53.4C381.607 54.84 379.927 55.56 377.927 55.56ZM383.207 66.24V132H372.287V66.24H383.207ZM425.098 133.08C420.058 133.08 415.538 132.24 411.538 130.56C407.538 128.8 404.378 126.4 402.058 123.36C399.738 120.24 398.458 116.68 398.218 112.68H409.498C409.818 115.96 411.338 118.64 414.058 120.72C416.858 122.8 420.498 123.84 424.978 123.84C429.138 123.84 432.418 122.92 434.818 121.08C437.218 119.24 438.418 116.92 438.418 114.12C438.418 111.24 437.138 109.12 434.578 107.76C432.018 106.32 428.058 104.92 422.698 103.56C417.818 102.28 413.818 101 410.698 99.72C407.658 98.36 405.018 96.4 402.778 93.84C400.618 91.2 399.538 87.76 399.538 83.52C399.538 80.16 400.538 77.08 402.538 74.28C404.538 71.48 407.378 69.28 411.058 67.68C414.738 66 418.938 65.16 423.658 65.16C430.938 65.16 436.818 67 441.298 70.68C445.778 74.36 448.178 79.4 448.498 85.8H437.578C437.338 82.36 435.938 79.6 433.378 77.52C430.898 75.44 427.538 74.4 423.298 74.4C419.378 74.4 416.258 75.24 413.938 76.92C411.618 78.6 410.458 80.8 410.458 83.52C410.458 85.68 411.138 87.48 412.498 88.92C413.938 90.28 415.698 91.4 417.778 92.28C419.938 93.08 422.898 94 426.658 95.04C431.378 96.32 435.218 97.6 438.178 98.88C441.138 100.08 443.658 101.92 445.738 104.4C447.898 106.88 449.018 110.12 449.098 114.12C449.098 117.72 448.098 120.96 446.098 123.84C444.098 126.72 441.258 129 437.578 130.68C433.978 132.28 429.818 133.08 425.098 133.08Z" fill="#3308CC"/>
<defs>
<linearGradient id="paint0_linear" x1="-7.15256e-07" y1="47" x2="94.674" y2="47" gradientUnits="userSpaceOnUse">
<stop stop-color="#3308CC"/>
<stop offset="0.854341" stop-color="#9876FF"/>
</linearGradient>
<linearGradient id="paint1_linear" x1="-4.39584e-07" y1="82" x2="59" y2="82" gradientUnits="userSpaceOnUse">
<stop stop-color="#3308CC"/>
<stop offset="0.821766" stop-color="#9876FF"/>
</linearGradient>
<linearGradient id="paint2_linear" x1="-9.68575e-08" y1="116" x2="28.3878" y2="116" gradientUnits="userSpaceOnUse">
<stop stop-color="#3308CC"/>
<stop offset="0.785335" stop-color="#9876FF"/>
</linearGradient>
</defs>
</svg>
