<svg width="419" height="132" viewBox="0 0 419 132" fill="none" xmlns="http://www.w3.org/2000/svg">
<rect y="15" width="96" height="32" rx="8" fill="#EFEFEF"/>
<rect y="50" width="59" height="32" rx="8" fill="#EFEFEF"/>
<rect y="85" width="26" height="32" rx="7" fill="#EFEFEF"/>
<path d="M155 40.2V51.5H125.9V69.4H148.2V80.5H125.9V110H111.9V40.2H155ZM172.027 48C169.561 48 167.494 47.2333 165.827 45.7C164.227 44.1 163.427 42.1333 163.427 39.8C163.427 37.4667 164.227 35.5333 165.827 34C167.494 32.4 169.561 31.6 172.027 31.6C174.494 31.6 176.527 32.4 178.127 34C179.794 35.5333 180.627 37.4667 180.627 39.8C180.627 42.1333 179.794 44.1 178.127 45.7C176.527 47.2333 174.494 48 172.027 48ZM178.927 54.6V110H164.927V54.6H178.927ZM206.759 36V110H192.759V36H206.759ZM216.991 82.1C216.991 76.5 218.091 71.5333 220.291 67.2C222.558 62.8667 225.591 59.5333 229.391 57.2C233.258 54.8667 237.558 53.7 242.291 53.7C246.425 53.7 250.025 54.5333 253.091 56.2C256.225 57.8667 258.725 59.9667 260.591 62.5V54.6H274.691V110H260.591V101.9C258.791 104.5 256.291 106.667 253.091 108.4C249.958 110.067 246.325 110.9 242.191 110.9C237.525 110.9 233.258 109.7 229.391 107.3C225.591 104.9 222.558 101.533 220.291 97.2C218.091 92.8 216.991 87.7667 216.991 82.1ZM260.591 82.3C260.591 78.9 259.925 76 258.591 73.6C257.258 71.1333 255.458 69.2667 253.191 68C250.925 66.6667 248.491 66 245.891 66C243.291 66 240.891 66.6333 238.691 67.9C236.491 69.1667 234.691 71.0333 233.291 73.5C231.958 75.9 231.291 78.7667 231.291 82.1C231.291 85.4333 231.958 88.3667 233.291 90.9C234.691 93.3667 236.491 95.2667 238.691 96.6C240.958 97.9333 243.358 98.6 245.891 98.6C248.491 98.6 250.925 97.9667 253.191 96.7C255.458 95.3667 257.258 93.5 258.591 91.1C259.925 88.6333 260.591 85.7 260.591 82.3ZM318.965 110L307.565 92.8L297.465 110H282.465L300.565 82.2L282.265 54.6H298.065L309.365 71.7L319.565 54.6H334.565L316.365 82.2L334.765 110H318.965ZM349.469 48C347.002 48 344.935 47.2333 343.269 45.7C341.669 44.1 340.869 42.1333 340.869 39.8C340.869 37.4667 341.669 35.5333 343.269 34C344.935 32.4 347.002 31.6 349.469 31.6C351.935 31.6 353.969 32.4 355.569 34C357.235 35.5333 358.069 37.4667 358.069 39.8C358.069 42.1333 357.235 44.1 355.569 45.7C353.969 47.2333 351.935 48 349.469 48ZM356.369 54.6V110H342.369V54.6H356.369ZM391.401 110.9C386.867 110.9 382.801 110.1 379.201 108.5C375.601 106.833 372.734 104.6 370.601 101.8C368.534 99 367.401 95.9 367.201 92.5H381.301C381.567 94.6333 382.601 96.4 384.401 97.8C386.267 99.2 388.567 99.9 391.301 99.9C393.967 99.9 396.034 99.3667 397.501 98.3C399.034 97.2333 399.801 95.8667 399.801 94.2C399.801 92.4 398.867 91.0667 397.001 90.2C395.201 89.2667 392.301 88.2667 388.301 87.2C384.167 86.2 380.767 85.1667 378.101 84.1C375.501 83.0333 373.234 81.4 371.301 79.2C369.434 77 368.501 74.0333 368.501 70.3C368.501 67.2333 369.367 64.4333 371.101 61.9C372.901 59.3667 375.434 57.3667 378.701 55.9C382.034 54.4333 385.934 53.7 390.401 53.7C397.001 53.7 402.267 55.3667 406.201 58.7C410.134 61.9667 412.301 66.4 412.701 72H399.301C399.101 69.8 398.167 68.0667 396.501 66.8C394.901 65.4667 392.734 64.8 390.001 64.8C387.467 64.8 385.501 65.2667 384.101 66.2C382.767 67.1333 382.101 68.4333 382.101 70.1C382.101 71.9667 383.034 73.4 384.901 74.4C386.767 75.3333 389.667 76.3 393.601 77.3C397.601 78.3 400.901 79.3333 403.501 80.4C406.101 81.4667 408.334 83.1333 410.201 85.4C412.134 87.6 413.134 90.5333 413.201 94.2C413.201 97.4 412.301 100.267 410.501 102.8C408.767 105.333 406.234 107.333 402.901 108.8C399.634 110.2 395.801 110.9 391.401 110.9Z" fill="#EFEFEF"/>
</svg>