<svg width="340" height="339" viewBox="0 0 340 339" fill="none" xmlns="http://www.w3.org/2000/svg">
<path fill-rule="evenodd" clip-rule="evenodd" d="M125.754 99.8782C125.754 74.3828 144.353 53.7147 167.297 53.7147C190.24 53.7147 208.84 74.3828 208.84 99.8782C208.84 125.374 183.463 194.497 160.519 194.497C137.576 194.497 125.754 125.374 125.754 99.8782Z" fill="#B3658E"/>
<path d="M127.69 150.663L127.633 150.57L127.549 150.429L127.492 150.336L127.482 150.214L127.473 150.092" stroke="#FB88C5" stroke-linecap="round" stroke-linejoin="round"/>
<path fill-rule="evenodd" clip-rule="evenodd" d="M162.785 51.9728C160.679 53.5529 155.355 54.4949 152.187 55.9375C138.888 61.9929 133.308 71.1421 130.276 85.1434C128.683 92.498 130.31 98.041 136.729 112.532C137.099 113.365 145.972 124.565 146.413 125.362C147.652 127.602 154.297 132.065 155.979 133.741C159.609 137.357 160.517 136.849 160.75 139.278C160.873 140.562 156.788 144.516 157.398 146.842C157.73 148.112 156.833 148.65 156.905 149.798C157.418 157.928 151.741 165.629 148.968 173.021C148.319 174.751 142.903 171.128 143.011 173.294C143.265 178.397 142.767 193.34 137.819 196.614C133.946 199.175 132.966 179.993 128.777 179.34C126.255 178.947 118.881 196.905 116.509 195.886C109.165 192.731 115.1 180.93 114.418 174.176C113.42 164.295 109.756 172.809 109.462 162.876C108.957 145.819 101.021 98.0066 109.357 74.7637C117.407 52.3188 128.017 30.9729 152.495 29.1008C154.977 28.9106 156.492 35.719 158.991 36.068C160.644 36.2984 162.163 41.4859 163.868 41.4586" fill="#FB88C5"/>
<path fill-rule="evenodd" clip-rule="evenodd" d="M157.808 132.681C157.756 132.655 153.721 165.901 149.73 172.435C149.541 172.745 147.346 172.679 147.167 172.864C143.964 176.169 147.539 175.523 159.605 176.529C160.576 176.61 165.614 178.431 166.651 178.362C176.391 177.71 181.746 174.219 180.806 172.509C179.802 170.679 184.452 176.012 183.722 171.757C182.314 163.56 172.95 135.669 174.85 130.691" fill="#D89F99"/>
<path fill-rule="evenodd" clip-rule="evenodd" d="M155 143.93C155 143.93 160.66 147.513 165.979 147.083C171.297 146.653 178.129 143.93 178.129 143.93C178.129 143.93 182.256 167.751 187.386 169.583C191.617 171.093 210.306 169.112 221.969 172.822C223.594 173.339 225.084 173.967 226.378 174.73C230.592 177.215 239.66 219.995 235.024 227.977C217.516 258.117 225.153 282.992 225.153 282.992L214.757 270.327C214.757 270.327 208.395 266.166 206.514 247.813C204.633 229.46 208.158 210.742 208.158 210.742C208.158 210.742 207.137 192.972 205.505 197.292C204.355 200.34 208.24 211.364 205.328 219.338C202.417 227.313 197.086 231.335 195.352 236.526C191.46 248.179 201.687 267.975 201.521 276.886C201.269 290.427 134.568 275.89 134.568 275.89C134.568 275.89 138.217 240.495 137.818 239.056C136.397 233.928 130.192 227.659 127.574 218.762C124.955 209.865 126.624 197.748 126.287 197.4C124.073 195.115 125.852 223.42 125.852 223.42C125.852 223.42 129.197 236.831 129.469 251.71C129.741 266.589 121.835 270.149 121.835 270.149L117.86 285.651C117.86 285.651 116.156 261.74 97.1459 233.681C91.083 224.732 101.668 176.444 110.973 173.483C123.029 169.646 142.861 169.189 146.517 167.545C152.031 165.063 155 143.93 155 143.93Z" fill="#7BDCCF"/>
<path fill-rule="evenodd" clip-rule="evenodd" d="M137.102 65.3319C136.393 64.9824 132.146 71.2772 131.937 71.8554C129.87 77.5672 128.687 83.42 128.249 89.4612C127.766 96.1446 131.718 107.698 134.836 113.288C139.474 121.604 139.254 119.677 143.297 125.165C149.883 134.101 163.209 142.039 173.892 136.181C181.435 132.045 189.531 123.575 193.824 116.313C202.464 101.694 211.434 79.3996 197.112 65.265C193.116 61.3205 187.438 54.4546 182.193 53.3449C171.165 51.0131 166.108 51.8514 155.087 54.0268C149.197 55.1898 135.88 64.4439 133.041 70.0472" fill="#FBBBB4"/>
<path fill-rule="evenodd" clip-rule="evenodd" d="M161.436 52.6625C162.185 52.7549 173.153 56.8214 174.705 56.8641C178.675 56.9725 181.367 69.8594 182.828 73.0705C187.521 83.3815 185.979 82.0674 186.17 93.0224C186.309 100.919 187.265 108.709 186.636 116.622C185.801 127.132 181.082 142.874 180.3 155.254C179.518 167.635 183.508 166.143 183.508 166.143C183.508 166.143 186.481 169.812 188.523 174.088C191.318 179.944 185.56 186.249 195.679 182.655C196.51 182.361 200.131 189.435 200.787 189.043C203.559 187.387 204.961 185.24 206.546 185.771C211.298 187.364 208.088 181.171 208.125 176.392C208.128 175.981 210.944 178.325 212.434 177.623C213.389 177.173 216.161 182.487 217.496 181.964C220.277 180.872 226.327 174.421 226.327 174.421C226.327 174.421 226.416 172.279 230.691 171.526C232.665 171.179 232.566 170.176 232.48 169.769C232.38 169.288 235.505 169.558 235.413 168.991C233.98 160.151 233.138 145.684 235.117 138.348C238.777 124.779 230.106 109.576 226.113 96.2056C223.636 87.9107 218.663 56.5809 213.592 48.8814C206.894 38.7139 185.217 24.3606 171.163 25.0111C165.509 25.273 156.659 27.0995 152.706 31.1904C149.279 34.7362 153.834 51.7252 161.436 52.6625Z" fill="#FB88C5"/>
<path fill-rule="evenodd" clip-rule="evenodd" d="M110.811 211.952H227.411V287.679H110.811V238.622V211.952Z" fill="#C1C1C1"/>
<path fill-rule="evenodd" clip-rule="evenodd" d="M168.113 246.153C167.497 246.153 169.993 245.299 170.273 245.223C171.302 244.946 174.932 245.46 175.598 246.809C176.404 248.442 173.53 248.769 173.5 250.443C173.455 252.982 175.955 253.751 176.027 253.899C176.183 254.214 175.245 256.119 174.362 257.195C173.581 258.146 172.391 258.536 171.948 258.625C170.667 258.885 169.144 257.689 167.925 258.13C165.133 259.142 164.487 258.692 162.975 256.942C159.042 252.389 160.708 242.258 168.167 246.034" fill="#FBFBFB"/>
<path fill-rule="evenodd" clip-rule="evenodd" d="M168.202 244.323C168.137 244.326 168.126 244.051 168.126 243.976C168.126 243.53 168.214 243.176 168.384 242.762C168.843 241.64 169.589 241.157 170.604 240.623C170.727 240.558 171.936 240.121 172.006 240.327C172.549 241.918 169.82 244.274 168.202 244.323Z" fill="#FBFBFB"/>
<path fill-rule="evenodd" clip-rule="evenodd" d="M76.4753 261.033C82.668 256.084 98.2307 255.139 155.891 283.81C172.046 291.843 215.592 307.828 230.399 312.64C249.546 318.864 130.278 298.272 107.762 296.106C87.198 294.128 59.1313 274.894 76.4753 261.033Z" fill="#40363B"/>
<path fill-rule="evenodd" clip-rule="evenodd" d="M262.018 256.268C252.681 243.444 241.521 240.96 186.562 275.319C141.23 303.658 107.193 322.186 121.902 316.306C126.639 314.412 159.545 307.946 198.438 300.204C256.566 288.634 275.708 275.069 262.018 256.268Z" fill="#4F454A"/>
<path fill-rule="evenodd" clip-rule="evenodd" d="M222.631 306.841C225.316 307.897 228.412 309.195 230.441 310.213C230.614 310.3 235.605 313.944 234.59 315.772C232.758 319.069 220.806 308.975 218.578 309.301C216.245 309.642 210.565 313.753 209.356 313.292C208.769 313.068 210.843 307.005 211.999 304.594C212.133 304.315 215.87 304.183 222.631 306.841Z" fill="#6FBEB3"/>
<path fill-rule="evenodd" clip-rule="evenodd" d="M124.473 309.002C121.903 310.312 118.947 311.903 117.026 313.113C116.862 313.217 112.247 317.326 113.435 319.047C115.578 322.152 126.496 310.949 128.745 311.058C131.101 311.172 137.152 314.715 138.311 314.138C138.872 313.859 136.222 308.025 134.837 305.737C134.677 305.472 130.945 305.702 124.473 309.002Z" fill="#7BDCCF"/>
<path fill-rule="evenodd" clip-rule="evenodd" d="M161.966 118.813C161.924 118.806 161.882 118.799 161.841 118.792Z" fill="#7BDCCF"/>
<path fill-rule="evenodd" clip-rule="evenodd" d="M178.753 76.8385C177.251 76.4741 173.132 80.3997 174.898 80.9833C176.101 81.3814 177.55 80.9216 179.049 80.3227C180.799 79.6236 182.617 78.7355 184.199 78.7995C185.331 78.8457 191.44 81.2824 191.93 80.1846C192.15 79.6947 191.077 79.3321 190.78 79.245C187.913 78.4025 181.474 75.5937 178.69 76.8497" fill="#FB88C5"/>
<path fill-rule="evenodd" clip-rule="evenodd" d="M149.5 77.5002C150.973 77.031 155.356 80.6586 153.636 81.3642C151.094 82.4075 147.127 79.5134 144.204 79.838C143.079 79.963 137.155 82.8222 136.589 81.7617C136.336 81.2884 137.381 80.8517 137.671 80.7433C140.472 79.7024 146.699 76.4492 149.564 77.5067" fill="#FB88C5"/>
<path fill-rule="evenodd" clip-rule="evenodd" d="M175.78 115.784C173.128 125 168.749 124.73 163.831 124.81C154.78 124.955 153.302 116.095 153.302 116.095" fill="#F3F7F7"/>
<path fill-rule="evenodd" clip-rule="evenodd" d="M164.538 97.0854C164.323 97.1049 161.559 106.052 162.212 107.932C162.751 109.487 167.995 109.383 168.436 108.189C169.142 106.277 166.27 96.9242 164.538 97.0854Z" fill="#E08278"/>
<path fill-rule="evenodd" clip-rule="evenodd" d="M177.464 90.2142C177.542 87.8888 179.181 86.0771 181.125 86.1666C183.07 86.2566 184.582 88.2141 184.505 90.5394C184.427 92.8642 182.788 94.6765 180.844 94.5864C178.899 94.4964 177.386 92.5389 177.464 90.2142Z" fill="#573A3A" stroke="#573A3A" stroke-linecap="round" stroke-linejoin="round"/>
<path d="M178.172 90.6289C177.382 90.2053 178.151 88.2235 178.392 87.7282C179.386 85.6813 181.275 84.8501 183.492 85.2317" stroke="#573A3A" stroke-linecap="round" stroke-linejoin="round"/>
<path fill-rule="evenodd" clip-rule="evenodd" d="M151.515 90.4411C151.437 88.1163 149.798 86.304 147.854 86.3941C145.909 86.4841 144.396 88.4416 144.474 90.7663C144.552 93.0917 146.191 94.9034 148.135 94.8133C150.079 94.7239 151.592 92.7664 151.515 90.4411Z" fill="#573A3A" stroke="#573A3A" stroke-linecap="round" stroke-linejoin="round"/>
<path d="M150.807 90.8564C151.596 90.4322 150.827 88.4504 150.587 87.9557C149.593 85.9088 147.704 85.0776 145.487 85.4592" stroke="#573A3A" stroke-linecap="round" stroke-linejoin="round"/>
<path fill-rule="evenodd" clip-rule="evenodd" d="M140.805 102.798C140.805 101.038 143.024 99.6098 145.762 99.6098C148.498 99.6098 150.718 101.038 150.718 102.798C150.718 104.56 148.498 105.987 145.762 105.987C143.024 105.987 140.805 104.56 140.805 102.798Z" fill="#FFA9A0"/>
<path fill-rule="evenodd" clip-rule="evenodd" d="M179.965 102.548C179.965 100.812 182.055 99.406 184.631 99.406C187.208 99.406 189.297 100.812 189.297 102.548C189.297 104.283 187.208 105.689 184.631 105.689C182.055 105.689 179.965 104.283 179.965 102.548Z" fill="#FFA9A0"/>
<path fill-rule="evenodd" clip-rule="evenodd" d="M187.369 89.3972C187.368 89.3871 188.085 89.425 188.023 89.9843C187.939 90.7491 187.381 91.5312 187.115 92.2468C186.347 94.3127 187.089 93.225 186.529 95.3631C185.18 100.519 189.607 125.295 189.607 125.295C189.607 125.295 200.873 128.204 202.536 127.136" fill="#FB88C5"/>
<path d="M240.347 168.007C240.347 168.007 237 164.5 236.181 161.5C235.362 158.5 234.5 150.5 236.181 143.837C237.508 136.88 238.725 133.777 238.528 128.975C238.089 118.263 235.793 117.821 233.632 112.891C233.469 112.519 218.504 83.6771 214.638 68.3369" stroke="#FB88C5" stroke-linecap="round" stroke-linejoin="round"/>
<path d="M211.102 127.858C216.692 128.159 222.791 120.533 226.24 116.783" stroke="#FB88C5" stroke-linecap="round" stroke-linejoin="round"/>
<circle cx="262.701" cy="128.118" r="16.0664" fill="#F25E5E"/>
<path d="M264.321 126.184C264.321 129.813 261.42 132.755 257.841 132.755C254.262 132.755 251.36 129.813 251.36 126.184C251.36 122.555 254.262 119.613 257.841 119.613C261.42 119.613 264.321 122.555 264.321 126.184Z" fill="white"/>
<path d="M274.042 126.184C274.042 129.813 271.141 132.755 267.562 132.755C263.983 132.755 261.081 129.813 261.081 126.184C261.081 122.555 263.983 119.613 267.562 119.613C271.141 119.613 274.042 122.555 274.042 126.184Z" fill="white"/>
<path d="M253.536 131.112L262.701 121.819L271.866 131.112L262.701 140.405L253.536 131.112Z" fill="white"/>
<circle cx="90.7915" cy="226.123" r="22.4929" fill="#F25E5E"/>
<path d="M93.0596 223.414C93.0596 228.495 88.9976 232.614 83.9868 232.614C78.9761 232.614 74.9141 228.495 74.9141 223.414C74.9141 218.334 78.9761 214.215 83.9868 214.215C88.9976 214.215 93.0596 218.334 93.0596 223.414Z" fill="white"/>
<path d="M106.669 223.414C106.669 228.495 102.607 232.614 97.596 232.614C92.5852 232.614 88.5232 228.495 88.5232 223.414C88.5232 218.334 92.5852 214.215 97.596 214.215C102.607 214.215 106.669 218.334 106.669 223.414Z" fill="white"/>
<path d="M77.9606 230.314L90.7914 217.304L103.622 230.314L90.7914 243.324L77.9606 230.314Z" fill="white"/>
<circle cx="103.645" cy="92.7725" r="16.0664" fill="#F25E5E"/>
<path d="M105.265 90.8377C105.265 94.4667 102.363 97.4086 98.7841 97.4086C95.205 97.4086 92.3036 94.4667 92.3036 90.8377C92.3036 87.2087 95.205 84.2668 98.7841 84.2668C102.363 84.2668 105.265 87.2087 105.265 90.8377Z" fill="white"/>
<path d="M114.985 90.8377C114.985 94.4667 112.084 97.4086 108.505 97.4086C104.926 97.4086 102.024 94.4667 102.024 90.8377C102.024 87.2087 104.926 84.2668 108.505 84.2668C112.084 84.2668 114.985 87.2087 114.985 90.8377Z" fill="white"/>
<path d="M94.4797 95.7659L103.645 86.4732L112.809 95.7659L103.645 105.059L94.4797 95.7659Z" fill="white"/>
<circle cx="227.355" cy="67.0664" r="16.0664" fill="#FFD130"/>
<path d="M220.929 63.6863C220.929 65.3689 219.49 66.7328 217.716 66.7328C215.941 66.7328 214.502 65.3689 214.502 63.6863C214.502 62.0038 215.941 60.6398 217.716 60.6398C219.49 60.6398 220.929 62.0038 220.929 63.6863Z" fill="#F25E5E"/>
<path d="M225.749 63.6863C225.749 65.3689 224.31 66.7328 222.535 66.7328C220.761 66.7328 219.322 65.3689 219.322 63.6863C219.322 62.0038 220.761 60.6398 222.535 60.6398C224.31 60.6398 225.749 62.0038 225.749 63.6863Z" fill="#F25E5E"/>
<path d="M215.581 65.9712L220.126 61.6628L224.67 65.9712L220.126 70.2796L215.581 65.9712Z" fill="#F25E5E"/>
<path d="M235.389 63.6863C235.389 65.3689 233.95 66.7328 232.175 66.7328C230.401 66.7328 228.962 65.3689 228.962 63.6863C228.962 62.0038 230.401 60.6398 232.175 60.6398C233.95 60.6398 235.389 62.0038 235.389 63.6863Z" fill="#F25E5E"/>
<path d="M240.208 63.6863C240.208 65.3689 238.77 66.7328 236.995 66.7328C235.221 66.7328 233.782 65.3689 233.782 63.6863C233.782 62.0038 235.221 60.6398 236.995 60.6398C238.77 60.6398 240.208 62.0038 240.208 63.6863Z" fill="#F25E5E"/>
<path d="M230.041 65.9712L234.585 61.6628L239.13 65.9712L234.585 70.2796L230.041 65.9712Z" fill="#F25E5E"/>
<path d="M235.389 73.4929H219.322C219.322 73.4929 220.929 78.3128 227.355 78.3128C233.782 78.3128 235.389 73.4929 235.389 73.4929Z" fill="#D69B04"/>
<path d="M235.389 73.4929H219.322C219.322 73.4929 220.929 78.3128 227.355 78.3128C233.782 78.3128 235.389 73.4929 235.389 73.4929Z" fill="url(#paint0_linear)"/>
<circle cx="73.5" cy="160.841" r="14.5" fill="#FFD130"/>
<path d="M67.7 157.791C67.7 159.309 66.4016 160.54 64.8 160.54C63.1984 160.54 61.9 159.309 61.9 157.791C61.9 156.272 63.1984 155.041 64.8 155.041C66.4016 155.041 67.7 156.272 67.7 157.791Z" fill="#F25E5E"/>
<path d="M72.05 157.791C72.05 159.309 70.7516 160.54 69.15 160.54C67.5484 160.54 66.25 159.309 66.25 157.791C66.25 156.272 67.5484 155.041 69.15 155.041C70.7516 155.041 72.05 156.272 72.05 157.791Z" fill="#F25E5E"/>
<path d="M62.8738 159.853L66.975 155.964L71.0762 159.853L66.975 163.741L62.8738 159.853Z" fill="#F25E5E"/>
<path d="M80.7501 157.791C80.7501 159.309 79.4517 160.54 77.8501 160.54C76.2484 160.54 74.9501 159.309 74.9501 157.791C74.9501 156.272 76.2484 155.041 77.8501 155.041C79.4517 155.041 80.7501 156.272 80.7501 157.791Z" fill="#F25E5E"/>
<path d="M85.1001 157.791C85.1001 159.309 83.8017 160.54 82.2001 160.54C80.5984 160.54 79.3001 159.309 79.3001 157.791C79.3001 156.272 80.5984 155.041 82.2001 155.041C83.8017 155.041 85.1001 156.272 85.1001 157.791Z" fill="#F25E5E"/>
<path d="M75.9238 159.853L80.0251 155.964L84.1263 159.853L80.0251 163.741L75.9238 159.853Z" fill="#F25E5E"/>
<path d="M80.75 166.641H66.25C66.25 166.641 67.7 170.991 73.5 170.991C79.3 170.991 80.75 166.641 80.75 166.641Z" fill="#D69B04"/>
<path d="M80.75 166.641H66.25C66.25 166.641 67.7 170.991 73.5 170.991C79.3 170.991 80.75 166.641 80.75 166.641Z" fill="url(#paint1_linear)"/>
<circle cx="254.668" cy="187.564" r="22.4929" fill="#FFD130"/>
<path d="M245.671 182.832C245.671 185.187 243.657 187.097 241.172 187.097C238.688 187.097 236.674 185.187 236.674 182.832C236.674 180.476 238.688 178.567 241.172 178.567C243.657 178.567 245.671 180.476 245.671 182.832Z" fill="#F25E5E"/>
<path d="M252.419 182.832C252.419 185.187 250.405 187.097 247.92 187.097C245.436 187.097 243.422 185.187 243.422 182.832C243.422 180.476 245.436 178.567 247.92 178.567C250.405 178.567 252.419 180.476 252.419 182.832Z" fill="#F25E5E"/>
<path d="M238.184 186.031L244.546 179.999L250.908 186.031L244.546 192.063L238.184 186.031Z" fill="#F25E5E"/>
<path d="M265.915 182.832C265.915 185.187 263.901 187.097 261.416 187.097C258.932 187.097 256.917 185.187 256.917 182.832C256.917 180.476 258.932 178.567 261.416 178.567C263.901 178.567 265.915 180.476 265.915 182.832Z" fill="#F25E5E"/>
<path d="M272.663 182.832C272.663 185.187 270.648 187.097 268.164 187.097C265.679 187.097 263.665 185.187 263.665 182.832C263.665 180.476 265.679 178.567 268.164 178.567C270.648 178.567 272.663 180.476 272.663 182.832Z" fill="#F25E5E"/>
<path d="M258.428 186.031L264.79 179.999L271.152 186.031L264.79 192.063L258.428 186.031Z" fill="#F25E5E"/>
<path d="M265.915 196.561H243.422C243.422 196.561 245.671 203.309 254.668 203.309C263.665 203.309 265.915 196.561 265.915 196.561Z" fill="#D69B04"/>
<path d="M265.915 196.561H243.422C243.422 196.561 245.671 203.309 254.668 203.309C263.665 203.309 265.915 196.561 265.915 196.561Z" fill="url(#paint2_linear)"/>
<defs>
<linearGradient id="paint0_linear" x1="227.355" y1="73.4929" x2="227.355" y2="78.3128" gradientUnits="userSpaceOnUse">
<stop offset="0.359375" stop-color="#FF0000" stop-opacity="0.29"/>
<stop offset="1" stop-color="white" stop-opacity="0"/>
</linearGradient>
<linearGradient id="paint1_linear" x1="73.5" y1="166.641" x2="73.5" y2="170.991" gradientUnits="userSpaceOnUse">
<stop offset="0.359375" stop-color="#FF0000" stop-opacity="0.29"/>
<stop offset="1" stop-color="white" stop-opacity="0"/>
</linearGradient>
<linearGradient id="paint2_linear" x1="254.668" y1="196.561" x2="254.668" y2="203.309" gradientUnits="userSpaceOnUse">
<stop offset="0.359375" stop-color="#FF0000" stop-opacity="0.29"/>
<stop offset="1" stop-color="white" stop-opacity="0"/>
</linearGradient>
</defs>
</svg>
