<svg width="405" height="622" viewBox="0 0 405 622" fill="none" xmlns="http://www.w3.org/2000/svg">

<path d="M52.7755 31.951C54.1509 15.9894 70.4807 5.83087 85.4067 11.6516L204.824 58.2216C214.745 62.0903 220.93 72.0331 220.016 82.642L190.201 428.622C189.287 439.231 181.492 447.969 171.056 450.083L45.4319 475.537C29.7302 478.719 15.3791 465.916 16.7546 449.955L52.7755 31.951Z" fill="#343434"/>
<path d="M62.0605 27.3864C63.2068 14.085 76.8149 5.61962 89.2532 10.4703L216.439 60.0697C224.706 63.2937 229.861 71.5794 229.099 80.4201L198.771 432.365C198.009 441.206 191.513 448.487 182.816 450.25L49.0197 477.359C35.9349 480.01 23.9756 469.342 25.1219 456.04L62.0605 27.3864Z" fill="#5C5C5C"/>
<path d="M74.5325 37.4294L215.822 90.0331L189.454 396.026L41.2476 423.683L74.5325 37.4294Z" fill="#EFEFEF"/>
<g filter="url(#filter0_i)">
<ellipse rx="14.0054" ry="14.1722" transform="matrix(0.754929 -0.655807 0.256466 0.966553 123.416 434.054)" fill="#5C5C5C"/>
</g>
<path d="M133.234 425.525C135.103 432.567 132.208 442.083 126.794 446.786C121.38 451.489 115.466 449.625 113.598 442.583C111.729 435.541 114.624 426.026 120.038 421.322C125.452 416.619 131.366 418.483 133.234 425.525Z" stroke="#BABABA" stroke-width="2"/>
<path d="M137.094 41.2947L172.252 55.414C172.745 56.0259 173.095 56.5226 173.317 56.9337C173.552 57.3704 173.615 57.6582 173.598 57.8691C173.58 58.0817 173.471 58.3159 173.167 58.5691C172.882 58.8063 172.455 59.0346 171.861 59.2671L136.646 45.1245C135.553 44.2935 135.166 43.6879 135.058 43.3077C134.958 42.9531 135.053 42.6105 135.365 42.2698C135.673 41.9335 136.126 41.6791 136.523 41.5066C136.718 41.4219 136.892 41.3599 137.016 41.3193C137.045 41.3099 137.071 41.3017 137.094 41.2947Z" fill="#BABABA" stroke="#BABABA"/>
<path fill-rule="evenodd" clip-rule="evenodd" d="M290.997 529.698C271.281 505.622 257.941 487.773 250.976 476.152C239.051 456.252 229.291 438.546 226.211 431.782C218.866 415.653 243.12 408.1 248.609 415.624C256.917 427.01 274.66 462.841 301.838 523.115L290.997 529.698Z" fill="#7c96f2"/>
<path fill-rule="evenodd" clip-rule="evenodd" d="M250.596 522.698L213.903 430.335C206.056 413.497 243.954 402.43 249.721 410.266C262.815 428.055 293.937 498.232 297.838 503.532L250.596 522.698Z" fill="#AC2727"/>
<path fill-rule="evenodd" clip-rule="evenodd" d="M152.871 504.175C160.019 493.749 186.017 458.672 200.177 444.159C204.246 439.988 208.217 435.985 211.972 432.255C223.134 421.168 245.362 439.803 234.22 449.902C206.474 475.053 165.989 509.005 162.607 512.032C157.866 516.275 148.379 510.727 152.871 504.175Z" fill="#7c96f2"/>
<path fill-rule="evenodd" clip-rule="evenodd" d="M154.543 499.465C152.08 501.492 150.479 503.148 149.737 504.432C148.836 505.993 147.78 508.422 146.571 511.719C148.382 512.765 164.664 522.165 195.416 539.92C199.108 536.456 199.683 533.768 197.142 531.854C194.6 529.941 192.503 528.327 190.85 527.013L173.99 503.785C173.666 503.338 173.04 503.238 172.594 503.563C172.586 503.568 172.578 503.574 172.571 503.58L169.068 506.277C165.854 505.997 163.456 505.399 161.873 504.486C160.587 503.743 159.111 502.198 157.445 499.851L157.445 499.851C156.805 498.951 155.557 498.739 154.656 499.378C154.617 499.406 154.579 499.435 154.543 499.465Z" fill="#E4E4E4"/>
<path fill-rule="evenodd" clip-rule="evenodd" d="M282.516 526.1C281.398 529.086 280.838 531.321 280.838 532.803C280.838 534.607 281.139 537.238 281.739 540.698C283.831 540.698 302.632 540.698 338.141 540.698C339.607 535.852 338.761 533.236 335.603 532.85C332.445 532.464 329.822 532.115 327.733 531.803L301.518 520.117C301.014 519.892 300.422 520.118 300.198 520.623C300.194 520.631 300.19 520.64 300.186 520.649L298.501 524.736C295.578 526.1 293.203 526.782 291.375 526.782C289.89 526.782 287.839 526.183 285.223 524.983L285.223 524.983C284.219 524.523 283.031 524.964 282.571 525.968C282.551 526.011 282.533 526.055 282.516 526.1Z" fill="#E4E4E4"/>
<path fill-rule="evenodd" clip-rule="evenodd" d="M200.7 434.948C170.203 429.98 149.776 426.582 139.419 424.756C109.896 419.55 101.286 403.663 106.377 369H160.772C167.971 371.079 198.049 383.935 251.006 407.569C260.534 412.299 258.759 426.245 257.018 430.84C256.947 431.027 240.884 458.551 208.83 513.411L164.332 485.063L200.784 438.288C201.746 436.349 201.719 435.236 200.7 434.948Z" fill="#DF2727"/>
<path fill-rule="evenodd" clip-rule="evenodd" d="M196.001 203.75C201.251 223.05 208.093 266.434 201.112 273.239H156.942C156.938 273.161 156.933 273.083 156.929 273.005C140.558 271.198 127.825 257.35 127.825 240.536V208.627C127.825 190.584 142.486 175.958 160.571 175.958H163.618C180.041 175.958 193.641 188.02 196.001 203.75Z" fill="#FF99BE"/>
<path fill-rule="evenodd" clip-rule="evenodd" d="M218.16 345.567L245.371 372.501C253.288 375.928 259.775 379.711 264.832 383.852C265.969 385.244 267.207 387.911 261.857 386.718C256.506 385.524 250.825 384.513 249.82 386.279C248.814 388.044 251.777 390.75 249.919 393.06C248.68 394.601 244.513 389.701 237.418 378.361L209.122 361.434L218.16 345.567ZM85.0999 321.191L106.134 321.271C90.1137 373.934 81.6097 401.508 80.6219 403.992C78.3992 409.581 83.1027 418.093 85.1141 422.667C78.563 425.642 79.261 414.626 70.997 418.527C63.454 422.088 57.7161 428.54 49.0012 423.084C47.9298 422.413 46.7557 419.887 49.5925 417.913C56.6601 412.996 66.8449 404.39 68.221 401.558C70.0976 397.695 75.7239 370.906 85.0999 321.191Z" fill="#7c96f2"/>
<path fill-rule="evenodd" clip-rule="evenodd" d="M124.904 260.732L134.237 259.297C148.939 305.864 224.478 337.606 229.116 355.014C230.816 361.398 225.689 364.625 228.337 366.57L216.206 374.527C214.152 372.379 209.768 376.308 200.613 373.56C191.459 370.812 124.904 315.871 124.904 260.732Z" fill="#35A69F"/>
<path fill-rule="evenodd" clip-rule="evenodd" d="M148.203 266.846C147.38 328.202 177.79 343.853 171.016 368.466C165.423 388.792 106.239 412.924 96.9744 393C93.2242 384.935 97.1675 372.899 96.9744 362.294C94.6066 370.441 92.7339 377.455 91.3563 383.335C88.9798 393.48 85.0013 395.592 85.0013 399.5L67.6286 395.092C68.4519 389.783 54.4669 374.155 56.0012 362.294C62.8757 309.15 89.6088 283.67 119.675 259.77L119.986 254.581C120.113 252.46 121.691 250.861 123.509 251.01L145.735 252.822C147.553 252.971 148.924 254.81 148.797 256.931L148.203 266.846Z" fill="#35BBB3"/>
<path fill-rule="evenodd" clip-rule="evenodd" d="M136.703 221.484C134.866 210.834 135.926 199.749 142.372 190.451C160.945 163.662 196.301 192.983 195.508 211.601C194.715 230.219 172.553 265.476 161.248 262.173C156.74 260.855 149.871 253.443 144.42 243.307L134.001 240L125.501 250L136.703 221.484Z" fill="#7c96f2"/>
<path d="M142.964 233L154.99 245.015L146.001 253L136.001 252L142.964 233Z" fill="#7c96f2"/>
<path fill-rule="evenodd" clip-rule="evenodd" d="M148.846 224.904C145.026 242.623 138.186 262.078 131.928 265.235L89.8023 251.956C100.28 210.532 117.997 233.437 130.072 195.132C131.921 194.2 133.687 193.256 135.38 192.497L135.689 191.355C147.68 178.756 159.282 174.224 170.496 177.759C187.318 183.062 190.166 192.544 192.597 200.599C185.568 211.105 171.909 208.686 157.978 212.224C156.955 210.678 155.414 209.458 153.505 208.856C149.093 207.465 144.391 209.906 143.003 214.308C141.616 218.71 144.068 223.406 148.48 224.797C148.602 224.836 148.724 224.871 148.846 224.904Z" fill="#FF99BE"/>
<path fill-rule="evenodd" clip-rule="evenodd" d="M163.834 422.858C160.767 421.604 160.341 418.268 163.061 416.804L253.593 368.092C254.785 367.45 256.336 367.342 257.728 367.804L309.278 384.906C312.497 385.974 313.232 389.353 310.596 390.968L222.799 444.77C221.487 445.574 219.668 445.683 218.119 445.05L163.834 422.858Z" fill="#706C6C"/>
<path fill-rule="evenodd" clip-rule="evenodd" d="M245.033 394.456C244.526 394.766 246.111 393.041 246.3 392.858C246.994 392.187 250.261 390.639 251.547 391.043C253.106 391.531 250.921 393.159 251.814 394.091C253.167 395.504 255.644 394.666 255.785 394.71C256.086 394.805 256.358 396.321 256.221 397.356C256.1 398.27 255.334 399.083 255.019 399.356C254.108 400.143 252.199 400.256 251.439 401.112C249.697 403.074 248.919 403.153 246.717 402.956C240.988 402.444 236.808 396.054 245.012 394.364" fill="#FBFBFB"/>
<path fill-rule="evenodd" clip-rule="evenodd" d="M244.103 393.409C244.051 393.443 243.892 393.298 243.85 393.257C243.606 393.013 243.485 392.774 243.397 392.462C243.161 391.615 243.509 390.975 244.052 390.171C244.117 390.073 244.873 389.225 245.043 389.302C246.361 389.9 245.407 392.566 244.103 393.409Z" fill="#FBFBFB"/>
<path fill-rule="evenodd" clip-rule="evenodd" d="M162.834 420.793C159.767 419.539 159.341 416.203 162.061 414.739L252.593 366.027C253.785 365.385 255.336 365.277 256.728 365.739L308.278 382.841C311.497 383.909 312.232 387.288 309.596 388.903L221.799 442.705C220.487 443.509 218.668 443.618 217.119 442.985L162.834 420.793Z" fill="#949494"/>
<path fill-rule="evenodd" clip-rule="evenodd" d="M244.033 392.391C243.526 392.701 245.111 390.976 245.3 390.793C245.994 390.122 249.261 388.574 250.547 388.978C252.106 389.466 249.921 391.094 250.814 392.026C252.167 393.439 254.644 392.601 254.785 392.645C255.086 392.74 255.358 394.256 255.221 395.291C255.1 396.205 254.334 397.018 254.019 397.291C253.108 398.078 251.199 398.191 250.439 399.047C248.697 401.009 247.919 401.088 245.717 400.891C239.988 400.379 235.808 393.989 244.012 392.299" fill="#FBFBFB"/>
<path fill-rule="evenodd" clip-rule="evenodd" d="M243.103 391.344C243.051 391.378 242.892 391.233 242.85 391.192C242.606 390.947 242.485 390.709 242.397 390.397C242.161 389.55 242.509 388.91 243.052 388.106C243.117 388.008 243.873 387.16 244.043 387.237C245.361 387.835 244.407 390.501 243.103 391.344Z" fill="#FBFBFB"/>
<path fill-rule="evenodd" clip-rule="evenodd" d="M222.78 375.47C222.871 373.263 224.484 370.558 226.383 369.428L316.167 316.012C318.066 314.883 319.531 315.756 319.439 317.964L316.749 382.954C316.658 385.161 315.045 387.866 313.146 388.996L223.362 442.412C221.464 443.541 219.998 442.668 220.09 440.46L221.881 397.178L222.78 375.47Z" fill="#C1C1C1"/>
<path fill-rule="evenodd" clip-rule="evenodd" d="M269.084 376.175C268.573 376.479 270.676 374.425 270.911 374.213C271.776 373.438 274.764 372.144 275.262 373.115C275.866 374.292 273.47 376.025 273.378 377.653C273.24 380.121 275.281 379.63 275.335 379.736C275.452 379.964 274.598 382.262 273.823 383.735C273.138 385.036 272.136 385.999 271.765 386.304C270.693 387.186 269.478 386.784 268.45 387.81C266.095 390.163 265.577 390.048 264.394 389.107C261.315 386.659 263.101 376.072 269.133 376.034" fill="#FBFBFB"/>
<path fill-rule="evenodd" clip-rule="evenodd" d="M269.23 374.368C269.176 374.402 269.178 374.143 269.181 374.07C269.199 373.641 269.286 373.256 269.443 372.773C269.869 371.465 270.506 370.632 271.369 369.617C271.474 369.493 272.494 368.476 272.543 368.64C272.93 369.905 270.574 373.522 269.23 374.368Z" fill="#FBFBFB"/>
<circle cx="99.0676" cy="332.066" r="16.0664" fill="#F25E5E"/>
<path d="M100.688 330.132C100.688 333.761 97.7862 336.702 94.2071 336.702C90.628 336.702 87.7266 333.761 87.7266 330.132C87.7266 326.503 90.628 323.561 94.2071 323.561C97.7862 323.561 100.688 326.503 100.688 330.132Z" fill="white"/>
<path d="M110.408 330.132C110.408 333.761 107.507 336.702 103.928 336.702C100.349 336.702 97.4474 333.761 97.4474 330.132C97.4474 326.503 100.349 323.561 103.928 323.561C107.507 323.561 110.408 326.503 110.408 330.132Z" fill="white"/>
<path d="M89.9026 335.06L99.0675 325.767L108.232 335.06L99.0675 344.352L89.9026 335.06Z" fill="white"/>
<circle cx="332.494" cy="294.493" r="22.4929" fill="#F25E5E"/>
<path d="M334.762 291.784C334.762 296.865 330.7 300.983 325.689 300.983C320.678 300.983 316.616 296.865 316.616 291.784C316.616 286.704 320.678 282.585 325.689 282.585C330.7 282.585 334.762 286.704 334.762 291.784Z" fill="white"/>
<path d="M348.371 291.784C348.371 296.865 344.309 300.983 339.298 300.983C334.288 300.983 330.226 296.865 330.226 291.784C330.226 286.704 334.288 282.585 339.298 282.585C344.309 282.585 348.371 286.704 348.371 291.784Z" fill="white"/>
<path d="M319.663 298.684L332.494 285.674L345.325 298.684L332.494 311.693L319.663 298.684Z" fill="white"/>
<circle cx="273.068" cy="263.066" r="16.0664" fill="#F25E5E"/>
<path d="M274.688 261.132C274.688 264.761 271.786 267.702 268.207 267.702C264.628 267.702 261.727 264.761 261.727 261.132C261.727 257.503 264.628 254.561 268.207 254.561C271.786 254.561 274.688 257.503 274.688 261.132Z" fill="white"/>
<path d="M284.408 261.132C284.408 264.761 281.507 267.702 277.928 267.702C274.349 267.702 271.447 264.761 271.447 261.132C271.447 257.503 274.349 254.561 277.928 254.561C281.507 254.561 284.408 257.503 284.408 261.132Z" fill="white"/>
<path d="M263.903 266.06L273.068 256.767L282.232 266.06L273.068 275.352L263.903 266.06Z" fill="white"/>
<circle cx="244.068" cy="318.066" r="16.0664" fill="#FFD130"/>
<path d="M237.641 314.686C237.641 316.369 236.203 317.733 234.428 317.733C232.653 317.733 231.215 316.369 231.215 314.686C231.215 313.004 232.653 311.64 234.428 311.64C236.203 311.64 237.641 313.004 237.641 314.686Z" fill="#F25E5E"/>
<path d="M242.461 314.686C242.461 316.369 241.022 317.733 239.248 317.733C237.473 317.733 236.035 316.369 236.035 314.686C236.035 313.004 237.473 311.64 239.248 311.64C241.022 311.64 242.461 313.004 242.461 314.686Z" fill="#F25E5E"/>
<path d="M232.294 316.971L236.838 312.663L241.382 316.971L236.838 321.28L232.294 316.971Z" fill="#F25E5E"/>
<path d="M252.101 314.686C252.101 316.369 250.662 317.733 248.888 317.733C247.113 317.733 245.674 316.369 245.674 314.686C245.674 313.004 247.113 311.64 248.888 311.64C250.662 311.64 252.101 313.004 252.101 314.686Z" fill="#F25E5E"/>
<path d="M256.921 314.686C256.921 316.369 255.482 317.733 253.707 317.733C251.933 317.733 250.494 316.369 250.494 314.686C250.494 313.004 251.933 311.64 253.707 311.64C255.482 311.64 256.921 313.004 256.921 314.686Z" fill="#F25E5E"/>
<path d="M246.753 316.971L251.298 312.663L255.842 316.971L251.298 321.28L246.753 316.971Z" fill="#F25E5E"/>
<path d="M252.101 324.493H236.034C236.034 324.493 237.641 329.313 244.068 329.313C250.494 329.313 252.101 324.493 252.101 324.493Z" fill="#D69B04"/>
<path d="M252.101 324.493H236.034C236.034 324.493 237.641 329.313 244.068 329.313C250.494 329.313 252.101 324.493 252.101 324.493Z" fill="url(#paint0_linear)"/>
<circle cx="90.5012" cy="252.5" r="14.5" fill="#FFD130"/>
<path d="M84.7011 249.449C84.7011 250.968 83.4027 252.199 81.8011 252.199C80.1995 252.199 78.9011 250.968 78.9011 249.449C78.9011 247.931 80.1995 246.7 81.8011 246.7C83.4027 246.7 84.7011 247.931 84.7011 249.449Z" fill="#F25E5E"/>
<path d="M89.0511 249.449C89.0511 250.968 87.7527 252.199 86.1511 252.199C84.5495 252.199 83.2511 250.968 83.2511 249.449C83.2511 247.931 84.5495 246.7 86.1511 246.7C87.7527 246.7 89.0511 247.931 89.0511 249.449Z" fill="#F25E5E"/>
<path d="M79.8749 251.512L83.9761 247.623L88.0773 251.512L83.9761 255.4L79.8749 251.512Z" fill="#F25E5E"/>
<path d="M97.7512 249.449C97.7512 250.968 96.4528 252.199 94.8512 252.199C93.2495 252.199 91.9512 250.968 91.9512 249.449C91.9512 247.931 93.2495 246.7 94.8512 246.7C96.4528 246.7 97.7512 247.931 97.7512 249.449Z" fill="#F25E5E"/>
<path d="M102.101 249.449C102.101 250.968 100.803 252.199 99.2012 252.199C97.5995 252.199 96.3012 250.968 96.3012 249.449C96.3012 247.931 97.5995 246.7 99.2012 246.7C100.803 246.7 102.101 247.931 102.101 249.449Z" fill="#F25E5E"/>
<path d="M92.9249 251.512L97.0262 247.623L101.127 251.512L97.0262 255.4L92.9249 251.512Z" fill="#F25E5E"/>
<path d="M97.7512 258.3H83.2512C83.2512 258.3 84.7012 262.65 90.5012 262.65C96.3012 262.65 97.7512 258.3 97.7512 258.3Z" fill="#D69B04"/>
<path d="M97.7512 258.3H83.2512C83.2512 258.3 84.7012 262.65 90.5012 262.65C96.3012 262.65 97.7512 258.3 97.7512 258.3Z" fill="url(#paint1_linear)"/>
<circle cx="163.494" cy="415.493" r="22.4929" fill="#FFD130"/>
<path d="M154.497 410.761C154.497 413.116 152.483 415.026 149.998 415.026C147.514 415.026 145.5 413.116 145.5 410.761C145.5 408.405 147.514 406.496 149.998 406.496C152.483 406.496 154.497 408.405 154.497 410.761Z" fill="#F25E5E"/>
<path d="M161.245 410.761C161.245 413.116 159.231 415.026 156.746 415.026C154.262 415.026 152.248 413.116 152.248 410.761C152.248 408.405 154.262 406.496 156.746 406.496C159.231 406.496 161.245 408.405 161.245 410.761Z" fill="#F25E5E"/>
<path d="M147.01 413.96L153.372 407.928L159.734 413.96L153.372 419.991L147.01 413.96Z" fill="#F25E5E"/>
<path d="M174.741 410.761C174.741 413.116 172.726 415.026 170.242 415.026C167.757 415.026 165.743 413.116 165.743 410.761C165.743 408.405 167.757 406.496 170.242 406.496C172.726 406.496 174.741 408.405 174.741 410.761Z" fill="#F25E5E"/>
<path d="M181.488 410.761C181.488 413.116 179.474 415.026 176.99 415.026C174.505 415.026 172.491 413.116 172.491 410.761C172.491 408.405 174.505 406.496 176.99 406.496C179.474 406.496 181.488 408.405 181.488 410.761Z" fill="#F25E5E"/>
<path d="M167.254 413.96L173.616 407.928L179.978 413.96L173.616 419.991L167.254 413.96Z" fill="#F25E5E"/>
<path d="M174.74 424.49H152.248C152.248 424.49 154.497 431.238 163.494 431.238C172.491 431.238 174.74 424.49 174.74 424.49Z" fill="#D69B04"/>
<path d="M174.74 424.49H152.248C152.248 424.49 154.497 431.238 163.494 431.238C172.491 431.238 174.74 424.49 174.74 424.49Z" fill="url(#paint2_linear)"/>
<defs>
<filter id="filter0_i" x="112.233" y="417.56" width="22.3668" height="36.9883" filterUnits="userSpaceOnUse" color-interpolation-filters="sRGB">
<feFlood flood-opacity="0" result="BackgroundImageFix"/>
<feBlend mode="normal" in="SourceGraphic" in2="BackgroundImageFix" result="shape"/>
<feColorMatrix in="SourceAlpha" type="matrix" values="0 0 0 0 0 0 0 0 0 0 0 0 0 0 0 0 0 0 127 0" result="hardAlpha"/>
<feOffset dy="4"/>
<feGaussianBlur stdDeviation="2"/>
<feComposite in2="hardAlpha" operator="arithmetic" k2="-1" k3="1"/>
<feColorMatrix type="matrix" values="0 0 0 0 0 0 0 0 0 0 0 0 0 0 0 0 0 0 0.5 0"/>
<feBlend mode="normal" in2="shape" result="effect1_innerShadow"/>
</filter>
<linearGradient id="paint0_linear" x1="244.068" y1="324.493" x2="244.068" y2="329.313" gradientUnits="userSpaceOnUse">
<stop offset="0.359375" stop-color="#FF0000" stop-opacity="0.29"/>
<stop offset="1" stop-color="white" stop-opacity="0"/>
</linearGradient>
<linearGradient id="paint1_linear" x1="90.5012" y1="258.3" x2="90.5012" y2="262.65" gradientUnits="userSpaceOnUse">
<stop offset="0.359375" stop-color="#FF0000" stop-opacity="0.29"/>
<stop offset="1" stop-color="white" stop-opacity="0"/>
</linearGradient>
<linearGradient id="paint2_linear" x1="163.494" y1="424.49" x2="163.494" y2="431.238" gradientUnits="userSpaceOnUse">
<stop offset="0.359375" stop-color="#FF0000" stop-opacity="0.29"/>
<stop offset="1" stop-color="white" stop-opacity="0"/>
</linearGradient>
</defs>
</svg>
