<svg width="548" height="529" viewBox="0 0 548 529" fill="none" xmlns="http://www.w3.org/2000/svg">
<path d="M548 31.7887C548 15.8523 532.754 4.34169 517.427 8.7064L372.427 49.9984C362.114 52.9353 355 62.3574 355 73.0807V455.919C355 466.643 362.114 476.065 372.427 479.002L517.427 520.294C532.754 524.658 548 513.148 548 497.211V31.7887Z" fill="#343434"/>
<path d="M538 26.4906C538 13.2103 525.295 3.61807 512.522 7.25533L359.522 50.8255C350.928 53.2729 345 61.1247 345 70.0607V458.939C345 467.875 350.928 475.727 359.522 478.175L512.522 521.745C525.295 525.382 538 515.79 538 502.509V26.4906Z" fill="#5C5C5C"/>
<path d="M523 39L359 83.0519V418.948L523 463V39Z" fill="#EFEFEF"/>
<g filter="url(#filter0_i)">
<circle r="15.5576" transform="matrix(-0.707107 -0.707107 -0.348081 0.937464 429.584 466.586)" fill="#5C5C5C"/>
</g>
<circle r="14.5576" transform="matrix(-0.707107 -0.707107 -0.348081 0.937464 429.584 466.586)" stroke="#BABABA" stroke-width="2"/>
<path d="M452.287 37.2839L411.334 49.3808C410.709 50.0108 410.258 50.5291 409.962 50.9663C409.65 51.4275 409.545 51.7453 409.545 51.987C409.544 52.2305 409.648 52.503 409.971 52.8119C410.275 53.1034 410.743 53.3969 411.4 53.7101L452.41 41.5961C453.736 40.7849 454.251 40.1456 454.417 39.7196C454.572 39.3251 454.492 38.932 454.17 38.5264C453.852 38.1259 453.362 37.8035 452.931 37.5771C452.718 37.4658 452.527 37.3815 452.39 37.3251C452.351 37.309 452.316 37.2953 452.287 37.2839Z" fill="#BABABA" stroke="#BABABA"/>
<path fill-rule="evenodd" clip-rule="evenodd" d="M456.762 155.902C460.013 152.085 462.214 147.408 461.846 142.167C460.787 127.067 439.767 130.389 435.678 138.01C431.589 145.632 432.075 164.963 437.359 166.326C439.467 166.869 443.956 165.538 448.525 162.784L445.657 183.074H462.592L456.762 155.902Z" fill="#F06040"/>
<path fill-rule="evenodd" clip-rule="evenodd" d="M443.147 139.116C445.445 140.401 447.08 142.81 449.049 145.969C449.528 145.781 450.051 145.677 450.597 145.677C452.935 145.677 454.83 147.573 454.83 149.911C454.83 151.098 454.342 152.171 453.555 152.94C454.535 154.322 455.633 155.767 456.891 157.257C461.585 154.441 465.077 146.232 460.594 138.307C456.738 122.433 434.884 132.286 430.68 129.609C429.761 135.369 432.725 140.014 443.147 139.116Z" fill="#25409D"/>
<g clip-path="url(#clip0)">
<path fill-rule="evenodd" clip-rule="evenodd" d="M472.549 250.363L446.967 340.133L428.303 406.299H414.69L434.524 250.363H472.549Z" fill="#0A092C"/>
<path fill-rule="evenodd" clip-rule="evenodd" d="M479.39 250.363C479.982 296.631 481.999 321.868 482.621 326.071C483.242 330.275 492.636 357.018 510.802 406.299H496.7C473.573 359.022 460.663 332.28 457.969 326.071C455.276 319.863 446.965 294.627 434.447 250.363H479.39Z" fill="#1C214D"/>
<path fill-rule="evenodd" clip-rule="evenodd" d="M512.062 419L511.357 404.182H496.539C489.513 409.122 480.34 413.12 469.021 416.178V419H495.834L505.006 417.589V419H512.062Z" fill="#0A092C"/>
<path fill-rule="evenodd" clip-rule="evenodd" d="M430.213 419L429.508 404.182H414.69C407.664 409.122 398.491 413.12 387.172 416.178V419H413.984L423.157 417.589V419H430.213Z" fill="#0A092C"/>
</g>
<path fill-rule="evenodd" clip-rule="evenodd" d="M407.012 232.809L387.024 252.308C381.208 254.789 376.443 257.528 372.728 260.526C371.893 261.534 370.983 263.464 374.914 262.6C378.844 261.736 383.017 261.004 383.756 262.283C384.494 263.561 382.318 265.519 383.683 267.192C384.593 268.307 387.654 264.76 392.866 256.55L413.651 244.296L407.012 232.809ZM495.731 235.559L480.986 235.617C490.09 265.008 495.005 280.602 495.731 282.401C497.364 286.447 493.909 292.609 492.431 295.921C497.243 298.074 496.731 290.1 502.801 292.924C508.342 295.502 512.557 300.172 518.958 296.222C519.746 295.737 520.608 293.908 518.524 292.479C513.333 288.92 505.851 282.689 504.84 280.638C503.462 277.842 500.425 262.815 495.731 235.559Z" fill="#F06040"/>
<path fill-rule="evenodd" clip-rule="evenodd" d="M453.828 173.687L447.726 172.64C437.222 198.882 418.882 222.725 392.707 244.171L412.486 268.201C438.658 237.665 454.791 206.16 453.828 173.687Z" fill="#3A47BB"/>
<path fill-rule="evenodd" clip-rule="evenodd" d="M480.425 250.363H426.094C438.682 219.757 444.975 193.759 444.975 172.366L461.364 169.925C474.244 190.64 477.882 216.144 480.425 250.363Z" fill="#DDE3E9"/>
<path fill-rule="evenodd" clip-rule="evenodd" d="M461.711 169.936C461.709 169.932 461.707 169.928 461.705 169.925L460.635 169.925C459.355 169.969 457.405 170.048 454.786 170.163L450.825 181.48C450.406 195.278 447.96 223.086 443.486 264.902H479.101C479.008 267.79 478.854 270.705 478.64 273.647H505.121C501.16 228.958 486.694 194.383 461.724 169.925L461.711 169.936Z" fill="#4D5CE9"/>
<path fill-rule="evenodd" clip-rule="evenodd" d="M476.749 227.948C475.735 245.951 473.197 258.362 469.136 265.18H479.092C479.528 252.227 478.747 239.817 476.749 227.948V227.948Z" fill="black" fill-opacity="0.1"/>
<path fill-rule="evenodd" clip-rule="evenodd" d="M471.174 243.307L453.612 235.142V243.307H471.174Z" fill="white" fill-opacity="0.2"/>
<path fill-rule="evenodd" clip-rule="evenodd" d="M131.262 192.49C126.654 187.081 123.536 180.453 124.057 173.025C125.558 151.625 155.349 156.333 161.143 167.134C166.938 177.935 166.25 205.333 158.76 207.263C155.774 208.033 149.411 206.147 142.935 202.244L147 231H123L131.262 192.49Z" fill="#B8A6FF"/>
<path fill-rule="evenodd" clip-rule="evenodd" d="M147.464 154.685C144.301 154.167 135.784 153.81 134.213 153.81C133.21 153.81 132.122 154.039 131.527 153.118C131.041 152.363 131.219 151.087 131.074 150.211C130.905 149.193 130.665 148.189 130.423 147.187C129.733 144.337 128.69 141.625 127.231 139.079C124.493 134.302 120.481 130.56 115.417 128.383C109.824 125.979 103.496 125.428 97.4805 125.916C91.0431 126.438 85.2159 128.563 79.138 130.562C73.346 132.468 67.2796 133.218 61.2219 132.288C55.1185 131.35 50.5068 128.042 45.3587 124.902C40.0885 121.688 34.0657 119.586 27.8354 120.069C22.0196 120.52 16.6594 122.922 11.8503 126.129C7.35089 129.131 3.63827 132.742 1.54221 137.824C-0.712674 143.291 -0.710602 149.292 2.99743 154.123C8.37207 161.127 18.3499 162.938 26.651 162.758C31.4525 162.654 36.1682 161.777 40.7014 160.183C46.7469 158.056 51.9712 154.452 57.627 151.528C60.2813 150.156 63.0248 149.029 65.9006 148.217C68.6912 147.429 71.4398 147.067 73.9665 148.753C76.6393 150.537 79.0344 152.289 82.0922 153.405C85.0256 154.476 88.1327 155.075 91.258 155.051C97.3386 155.004 103.333 153.109 109.239 151.84C114.054 150.806 119.207 149.774 124.117 150.769C126.166 151.184 129.159 152.041 129.899 154.17C117.444 156.427 112.553 171.83 116.064 183.137C117.959 189.24 129.35 196.374 133.779 193.166C136.585 191.133 134.881 188.465 133.779 186.703C131.668 183.33 130.945 178.997 134.852 176.648C138.222 174.622 141.765 179.433 141.832 179.427C142.758 179.354 150.76 174.829 156.274 168.224C161.713 168.547 162.539 164.96 161.24 162.027C159.941 159.094 151.834 155.402 147.464 154.685Z" fill="#065AA8"/>
<path d="M113 488C155.526 488 190 455.093 190 414.5C190 373.907 155.526 341 113 341C70.4741 341 36 373.907 36 414.5C36 455.093 70.4741 488 113 488Z" fill="#C5CFD6"/>
<path fill-rule="evenodd" clip-rule="evenodd" d="M258.509 476.66C245.697 448.302 236.43 423.608 232.711 410.58C226.343 388.273 221.498 368.643 220.273 361.313C217.353 343.832 242.735 342.814 246.09 351.502C251.168 364.651 260.033 407.853 270.685 473.107L258.509 476.66ZM109.888 387.664C121.644 383.017 162.812 368.475 182.667 364.361C188.373 363.179 193.903 362.081 199.102 361.088C214.556 358.138 222.563 386.017 207.679 388.16C170.612 393.494 118.063 399.003 113.566 399.622C107.263 400.488 102.5 390.584 109.888 387.664Z" fill="#B8A6FF"/>
<path fill-rule="evenodd" clip-rule="evenodd" d="M208.587 353.416L145 321.047V314H152.562C214.08 329.676 245.515 339.722 246.869 344.138C246.883 344.185 246.897 344.233 246.909 344.281C246.94 344.321 246.97 344.362 247 344.403C259.192 361.17 266.493 443.027 268.889 449.156L245.528 452.641C236.591 419.503 208 396.418 208.759 356.729C208.554 355.565 208.503 354.461 208.587 353.416Z" fill="#1F28CF"/>
<path fill-rule="evenodd" clip-rule="evenodd" d="M150.283 372.64C144.465 371.476 139.107 370.436 134.523 369.632C104.909 364.438 96.2738 348.586 101.38 314H155.942C164.855 316.56 211.174 335.985 235.207 346.316C251.113 353.154 246.099 377.804 237.091 384.219C237.042 384.613 236.88 384.88 236.591 385C188.137 405.083 149.805 394.545 137 397.912L131.077 379.228L150.283 372.64Z" fill="#2B44FF"/>
<path fill-rule="evenodd" clip-rule="evenodd" d="M113.908 384.694C110.733 384.997 108.479 385.474 107.147 386.124C105.526 386.915 103.293 388.338 100.446 390.395C101.364 392.275 109.605 409.173 125.171 441.088C130.169 440.282 132.149 438.375 131.112 435.367C130.075 432.359 129.239 429.849 128.603 427.835L127.615 399.15C127.596 398.598 127.133 398.166 126.581 398.185C126.572 398.185 126.562 398.186 126.553 398.186L122.14 398.463C119.633 396.434 117.979 394.598 117.177 392.955C116.526 391.62 116.167 389.514 116.098 386.637L116.098 386.637C116.071 385.533 115.154 384.659 114.05 384.685C114.003 384.686 113.955 384.689 113.908 384.694Z" fill="#E4E4E4"/>
<path fill-rule="evenodd" clip-rule="evenodd" d="M252.678 471.402C251.559 474.388 251 476.623 251 478.106C251 479.909 251.3 482.54 251.901 486C253.993 486 272.794 486 308.303 486C309.769 481.154 308.923 478.539 305.765 478.152C302.607 477.766 299.984 477.417 297.895 477.106L271.68 465.419C271.176 465.194 270.584 465.421 270.359 465.925C270.356 465.934 270.352 465.942 270.348 465.951L268.663 470.039C265.74 471.403 263.364 472.085 261.537 472.085C260.052 472.085 258.001 471.485 255.384 470.285L255.384 470.285C254.38 469.825 253.193 470.266 252.733 471.27C252.713 471.313 252.695 471.357 252.678 471.402Z" fill="#E4E4E4"/>
<path fill-rule="evenodd" clip-rule="evenodd" d="M207 286.617L243.235 270.704C249.582 264.379 255.711 259.572 261.623 256.282C263.39 255.719 266.41 255.549 263.188 260.255C259.966 264.961 256.789 270.056 258.076 271.705C259.364 273.355 263.093 271.534 264.566 274.216C265.549 276.004 259.262 278.143 245.707 280.633L218.57 301.439L207 286.617ZM60.5083 291L81 295.066C60.3921 333.471 49.3404 353.826 47.845 356.13C44.4804 361.315 47.6197 370.817 48.7793 375.821C41.5044 377.515 44.3734 366.565 35.1672 368.851C26.7641 370.938 19.6394 376.293 11.8039 369.071C10.8406 368.183 10.1354 365.407 13.4198 363.984C21.6026 360.437 33.692 353.796 35.6523 351.218C38.3256 347.702 46.6109 327.629 60.5083 291Z" fill="#B8A6FF"/>
<path fill-rule="evenodd" clip-rule="evenodd" d="M136.695 214.332L145.342 212.849C164.176 231.119 171.862 275.012 184.414 280.822C196.281 286.316 213.104 281 233.1 273.822L239.223 287.505C221.055 307.161 182.349 323.767 166.66 314.287C141.576 299.13 135.786 244.994 136.695 214.332Z" fill="#D26C0D"/>
<path fill-rule="evenodd" clip-rule="evenodd" d="M99 323C133.672 323 159.176 323 175.511 323C179.008 323 178.349 317.952 177.843 315.404C172.011 286.004 149.241 254.312 149.241 212.461L127.172 209C108.917 238.358 102.605 274.505 99 323Z" fill="#4A6785"/>
<path fill-rule="evenodd" clip-rule="evenodd" d="M91.3688 293.233C75.7714 321.368 62.6609 341.623 52.0374 354L36 350.859C46.3306 286.791 76.2466 239.504 125.748 209H129.731L134.486 209C154.299 276.537 159.761 321.537 150.872 344H82C83.0896 327.563 86.5834 310.181 91.3688 293.233H91.3688Z" fill="#FF9533"/>
<path d="M366 121C366 119.895 366.895 119 368 119H421C422.105 119 423 119.895 423 121V152.544C423 153.648 422.105 154.544 421 154.544H415.482C414.008 154.544 413.18 156.241 414.088 157.402V157.402C415.409 159.091 413.148 161.233 411.532 159.825L406.039 155.036C405.675 154.719 405.208 154.544 404.725 154.544H368C366.895 154.544 366 153.648 366 152.544V121Z" fill="#757B7D"/>
<circle cx="380.354" cy="138.139" r="3.18983" fill="#FDEFEF"/>
<circle cx="394.708" cy="138.139" r="3.18983" fill="#FDEFEF"/>
<circle cx="409.063" cy="138.139" r="3.18983" fill="#FDEFEF"/>
<path d="M246 146C275.271 146 299 122.271 299 93C299 63.7289 275.271 40 246 40C216.729 40 193 63.7289 193 93C193 122.271 216.729 146 246 146Z" fill="#F2F2F2"/>
<path d="M246 54C247.657 54 249 52.6569 249 51C249 49.3431 247.657 48 246 48C244.343 48 243 49.3431 243 51C243 52.6569 244.343 54 246 54Z" fill="black" fill-opacity="0.1"/>
<path d="M204 96C205.657 96 207 94.6569 207 93C207 91.3431 205.657 90 204 90C202.343 90 201 91.3431 201 93C201 94.6569 202.343 96 204 96Z" fill="black" fill-opacity="0.1"/>
<path d="M288 96C289.657 96 291 94.6569 291 93C291 91.3431 289.657 90 288 90C286.343 90 285 91.3431 285 93C285 94.6569 286.343 96 288 96Z" fill="black" fill-opacity="0.1"/>
<path d="M246 138C247.657 138 249 136.657 249 135C249 133.343 247.657 132 246 132C244.343 132 243 133.343 243 135C243 136.657 244.343 138 246 138Z" fill="black" fill-opacity="0.1"/>
<path fill-rule="evenodd" clip-rule="evenodd" d="M246 57L248 92H244L246 57Z" fill="#AFB9C5"/>
<path fill-rule="evenodd" clip-rule="evenodd" d="M263.699 110.698L245.314 95.1421L248.142 92.3137L263.699 110.698Z" fill="#AFB9C5"/>
<path d="M246 97C248.209 97 250 95.2091 250 93C250 90.7909 248.209 89 246 89C243.791 89 242 90.7909 242 93C242 95.2091 243.791 97 246 97Z" fill="#C5CFD6"/>
<defs>
<filter id="filter0_i" x="417.32" y="448.316" width="24.5285" height="40.5388" filterUnits="userSpaceOnUse" color-interpolation-filters="sRGB">
<feFlood flood-opacity="0" result="BackgroundImageFix"/>
<feBlend mode="normal" in="SourceGraphic" in2="BackgroundImageFix" result="shape"/>
<feColorMatrix in="SourceAlpha" type="matrix" values="0 0 0 0 0 0 0 0 0 0 0 0 0 0 0 0 0 0 127 0" result="hardAlpha"/>
<feOffset dy="4"/>
<feGaussianBlur stdDeviation="2"/>
<feComposite in2="hardAlpha" operator="arithmetic" k2="-1" k3="1"/>
<feColorMatrix type="matrix" values="0 0 0 0 0 0 0 0 0 0 0 0 0 0 0 0 0 0 0.5 0"/>
<feBlend mode="normal" in2="shape" result="effect1_innerShadow"/>
</filter>
<clipPath id="clip0">
<rect width="124.891" height="168.637" fill="white" transform="matrix(-1 0 0 1 512.062 250.363)"/>
</clipPath>
</defs>
</svg>
