<svg width="329" height="402" viewBox="0 0 329 402" fill="none" xmlns="http://www.w3.org/2000/svg">
<circle cx="133" cy="135" r="133" fill="#E1C9FF"/>
<path d="M193 30.1302C193 29.1811 193.667 28.3627 194.597 28.1713L326.597 0.994796C327.837 0.739361 329 1.68701 329 2.95371V158.457C329 159.752 327.787 160.706 326.528 160.4L194.528 128.371C193.632 128.153 193 127.35 193 126.427V30.1302Z" fill="#8997C9"/>
<path d="M193 48.775C193 47.8186 193.677 46.996 194.616 46.8123L326.616 20.9668C327.851 20.725 329 21.6708 329 22.9296V160.784C329 161.969 327.975 162.894 326.795 162.773L194.795 149.185C193.775 149.08 193 148.221 193 147.195V48.775Z" fill="#ECECEC"/>
<path d="M198 83.1129C198 81.2078 199.344 79.567 201.211 79.1914L319.211 55.4629C321.688 54.965 324 56.8585 324 59.3844V147.601C324 149.96 321.969 151.807 319.621 151.583L201.621 140.345C199.568 140.149 198 138.425 198 136.363V83.1129Z" fill="#F8F8F8"/>
<path d="M202.985 60.1304C202.296 59.5758 202.696 58.3461 203.629 58.1498L307.633 36.271C308.97 35.9899 310.125 36.8786 310.19 38.2378V38.2378C310.255 39.5731 309.241 40.8522 307.926 41.0948L203.761 60.3129C203.475 60.3655 203.196 60.2998 202.985 60.1304V60.1304Z" fill="#D1D4E8"/>
<path d="M201.547 67.0844C201.608 66.5895 201.998 66.1623 202.478 66.0657L289.354 48.5487C290.432 48.3313 291.358 49.0534 291.406 50.149V50.149C291.453 51.2284 290.629 52.2585 289.566 52.4499L202.588 68.0977C201.966 68.2096 201.469 67.7257 201.547 67.0844V67.0844Z" fill="#D1D4E8"/>
<path fill-rule="evenodd" clip-rule="evenodd" d="M39.6054 278H137.395C144.909 278 151 285.163 151 294V386C151 394.837 144.909 402 137.395 402H39.6054C32.0914 402 26 394.837 26 386V294C26 285.163 32.0914 278 39.6054 278ZM53.2109 306C51.3324 306 49.8095 307.791 49.8095 310V370C49.8095 372.209 51.3324 374 53.2109 374H123.789C125.668 374 127.19 372.209 127.19 370V310C127.19 307.791 125.668 306 123.789 306H53.2109Z" fill="#efefef"/>
<ellipse cx="255.364" cy="103.044" rx="11" ry="14" transform="rotate(5.8234 255.364 103.044)" fill="#AED6A7"/>
<path fill-rule="evenodd" clip-rule="evenodd" d="M120.262 86.4901C115.654 81.0814 112.536 74.4529 113.057 67.0255C114.558 45.625 144.349 50.3328 150.143 61.1339C155.938 71.9351 155.25 99.333 147.76 101.263C144.774 102.033 138.411 100.147 131.935 96.2443L136 125H112L120.262 86.4901Z" fill="#79AFFF"/>
<path fill-rule="evenodd" clip-rule="evenodd" d="M124.999 51.7866C137.055 47.6097 152.701 52.4907 150.607 62.2807C149.263 68.5671 141.982 71.7071 134.819 75.0674C133.765 73.2369 131.754 72 129.447 72C126.046 72 123.29 74.6863 123.29 78C123.29 79.1936 123.648 80.3058 124.264 81.2404C121.855 83.3365 120.154 85.8595 119.743 89.1318C115.859 89.1318 109.582 77.7286 111.655 66.9098C111.111 66.9694 110.559 67 110 67C101.716 67 95 60.2843 95 52C95 43.7157 101.716 37 110 37C118.213 37 124.884 43.6007 124.999 51.7866V51.7866Z" fill="#17446F"/>
<path fill-rule="evenodd" clip-rule="evenodd" d="M229.953 256.756C238.19 251.81 252.009 258.165 252 265.238C251.972 286.403 232.657 386.151 231.648 392.457C230.64 398.762 219.837 400.428 219.208 392.477C218.207 379.827 216.347 336.033 218.208 315.763C218.976 307.395 219.803 299.427 220.617 292.318C210.482 310.621 194.807 336.826 173.593 370.934L162.077 365.672C171.12 335.876 178.536 314.841 184.323 302.567C194.233 281.55 203.525 263.552 207.436 257.212C213.588 247.24 224.295 250.719 229.953 256.756Z" fill="#79AFFF"/>
<path fill-rule="evenodd" clip-rule="evenodd" d="M162.9 349.125L202.427 255.487C211.897 240.255 238.446 258.587 235.217 267.422C227.886 287.479 190.6 352.414 188.415 358.39L162.9 349.125Z" fill="#1F28CF"/>
<path fill-rule="evenodd" clip-rule="evenodd" d="M160.705 359.767C158.242 361.794 156.641 363.45 155.899 364.734C154.998 366.296 153.942 368.725 152.733 372.021C154.544 373.067 170.826 382.467 201.578 400.222C205.27 396.759 205.845 394.07 203.304 392.157C200.762 390.243 198.665 388.629 197.012 387.315L180.152 364.087C179.828 363.64 179.202 363.54 178.756 363.865C178.748 363.87 178.74 363.876 178.733 363.882L175.23 366.579C172.016 366.299 169.618 365.702 168.035 364.788C166.749 364.045 165.273 362.501 163.607 360.154L163.607 360.154C162.967 359.253 161.719 359.041 160.818 359.681C160.779 359.708 160.741 359.737 160.705 359.767Z" fill="#E4E4E4"/>
<path fill-rule="evenodd" clip-rule="evenodd" d="M216.678 387.402C215.559 390.388 215 392.623 215 394.106C215 395.909 215.3 398.54 215.901 402C217.993 402 236.794 402 272.303 402C273.769 397.155 272.923 394.539 269.765 394.152C266.607 393.766 263.984 393.417 261.895 393.106L235.68 381.419C235.176 381.194 234.584 381.421 234.359 381.925C234.356 381.934 234.352 381.942 234.348 381.951L232.663 386.039C229.74 387.403 227.364 388.085 225.537 388.085C224.052 388.085 222.001 387.485 219.384 386.286L219.384 386.285C218.38 385.825 217.193 386.266 216.733 387.27C216.713 387.313 216.695 387.357 216.678 387.402Z" fill="#E4E4E4"/>
<path fill-rule="evenodd" clip-rule="evenodd" d="M254.77 272.433C254.77 299 242.154 360.97 242.146 366.82L215 366.841C218.973 311.545 220.382 283.6 219.227 283.004C217.493 282.111 148.176 289.925 127.386 289.925C97.4078 289.925 85.0063 271.02 84 236H143.386C155.478 237.294 218.549 250.015 241.972 254.388C252 256.261 254.77 265.115 254.77 272.433Z" fill="#2B44FF"/>
<path fill-rule="evenodd" clip-rule="evenodd" d="M195.527 119.565L233.43 108.186C240.501 102.682 247.171 98.6574 253.439 96.1126C255.262 95.7695 258.28 95.9688 254.509 100.247C250.737 104.525 246.963 109.195 248.039 110.989C249.116 112.783 253.04 111.43 254.175 114.272C254.932 116.166 248.432 117.523 234.675 118.342L205.204 135.687L195.527 119.565ZM192.177 186.392L224.075 209.816C232.727 212.15 239.955 215.055 245.76 218.529C247.131 219.779 248.788 222.309 243.101 221.872C237.415 221.434 231.414 221.23 230.629 223.17C229.845 225.109 233.286 227.429 231.7 230.046C230.642 231.79 225.647 227.416 216.713 216.922L185.126 203.823L192.177 186.392Z" fill="#79AFFF"/>
<path fill-rule="evenodd" clip-rule="evenodd" d="M142.631 123.311C160.002 155.7 185.12 180.529 221.536 206.34L207.748 221.887C167.088 206.777 145.629 197.66 135.091 167.059C132.446 159.378 130.598 134.895 129.012 122.013L142.631 123.311Z" fill="#2026A2"/>
<path fill-rule="evenodd" clip-rule="evenodd" d="M94.0703 231.224H171.07C153.629 178.029 144.719 141.52 144.341 121.696C144.321 120.685 142.455 118.904 141.629 119.137C135.59 120.843 129.128 120.205 122.242 117.224C103.988 146.582 97.6751 182.729 94.0703 231.224Z" fill="#F2F2F2"/>
<path fill-rule="evenodd" clip-rule="evenodd" d="M128.813 117.271C150.885 117.452 186.694 121.483 227.993 108.224L232.07 128.597C200.857 148.672 169.251 164.223 141.557 162.015C153.583 213.601 153.028 255.83 126.478 255.83C113.799 255.83 100.113 255.83 85.4214 255.83C78.9008 212.008 96.0384 151.248 111.926 120.601C112.533 119.43 113.825 117.224 116.867 117.224C119.518 117.224 123.495 117.224 128.797 117.224C128.802 117.24 128.808 117.256 128.813 117.271Z" fill="#1F28CF"/>
</svg>