<svg width="347" height="548" viewBox="0 0 347 548" fill="none" xmlns="http://www.w3.org/2000/svg">
<path d="M38.7743 31.951C40.1497 15.9894 56.4795 5.83087 71.4054 11.6516L190.823 58.2216C200.744 62.0903 206.929 72.0331 206.015 82.642L176.2 428.622C175.286 439.231 167.491 447.969 157.055 450.083L31.4307 475.537C15.729 478.719 1.37789 465.916 2.75336 449.955L38.7743 31.951Z" fill="#343434"/>
<path d="M48.0593 27.3864C49.2055 14.085 62.8137 5.61962 75.252 10.4703L202.438 60.0697C210.705 63.2937 215.86 71.5794 215.098 80.4201L184.769 432.365C184.008 441.206 177.512 448.487 168.815 450.25L35.0184 477.359C21.9337 480.01 9.97441 469.342 11.1206 456.04L48.0593 27.3864Z" fill="#5C5C5C"/>
<path d="M60.5312 37.4294L201.821 90.0331L175.453 396.026L27.2464 423.683L60.5312 37.4294Z" fill="#EFEFEF"/>
<g filter="url(#filter0_i)">
<ellipse rx="14.0054" ry="14.1722" transform="matrix(0.754929 -0.655807 0.256466 0.966553 109.415 434.054)" fill="#5C5C5C"/>
</g>
<path d="M119.233 425.525C121.102 432.567 118.207 442.083 112.793 446.786C107.379 451.489 101.465 449.625 99.5966 442.583C97.728 435.541 100.623 426.026 106.037 421.322C111.451 416.619 117.364 418.483 119.233 425.525Z" stroke="#BABABA" stroke-width="2"/>
<path d="M123.093 41.2947L158.251 55.414C158.744 56.0259 159.094 56.5226 159.315 56.9337C159.551 57.3704 159.614 57.6582 159.597 57.8691C159.579 58.0817 159.47 58.3159 159.166 58.5691C158.88 58.8063 158.454 59.0346 157.86 59.2671L122.644 45.1245C121.552 44.2935 121.165 43.6879 121.057 43.3077C120.956 42.9531 121.052 42.6105 121.364 42.2698C121.672 41.9335 122.125 41.6791 122.522 41.5066C122.716 41.4219 122.89 41.3599 123.015 41.3193C123.044 41.3099 123.07 41.3017 123.093 41.2947Z" fill="#BABABA" stroke="#BABABA"/>
<path fill-rule="evenodd" clip-rule="evenodd" d="M298.996 536.698C279.28 512.622 265.94 494.773 258.975 483.152C247.05 463.252 237.29 445.546 234.21 438.782C226.865 422.653 251.119 415.1 256.608 422.624C264.916 434.01 282.659 469.841 309.837 530.115L298.996 536.698Z" fill="#7c96f2"/>
<path fill-rule="evenodd" clip-rule="evenodd" d="M258.594 529.698L221.902 437.335C214.054 420.497 251.953 409.43 257.72 417.266C270.814 435.055 301.936 505.232 305.837 510.532L258.594 529.698Z" fill="#AC2727"/>
<path fill-rule="evenodd" clip-rule="evenodd" d="M160.87 511.175C168.017 500.749 194.015 465.672 208.176 451.159C212.245 446.988 216.215 442.985 219.971 439.255C231.133 428.168 253.361 446.803 242.219 456.902C214.472 482.053 173.988 516.005 170.606 519.032C165.865 523.275 156.378 517.727 160.87 511.175Z" fill="#7c96f2"/>
<path fill-rule="evenodd" clip-rule="evenodd" d="M162.541 506.465C160.079 508.492 158.478 510.148 157.736 511.432C156.835 512.993 155.779 515.422 154.57 518.719C156.381 519.765 172.663 529.165 203.415 546.92C207.107 543.456 207.682 540.768 205.141 538.854C202.599 536.941 200.502 535.327 198.848 534.013L181.989 510.785C181.665 510.338 181.039 510.238 180.592 510.563C180.585 510.568 180.577 510.574 180.57 510.58L177.066 513.277C173.853 512.997 171.455 512.399 169.872 511.486C168.586 510.743 167.11 509.198 165.443 506.851L165.443 506.851C164.804 505.951 163.555 505.739 162.655 506.378C162.616 506.406 162.578 506.435 162.541 506.465Z" fill="#E4E4E4"/>
<path fill-rule="evenodd" clip-rule="evenodd" d="M290.515 533.1C289.396 536.086 288.837 538.321 288.837 539.803C288.837 541.607 289.137 544.238 289.738 547.698C291.83 547.698 310.631 547.698 346.14 547.698C347.606 542.852 346.76 540.236 343.602 539.85C340.444 539.464 337.821 539.115 335.732 538.803L309.517 527.117C309.012 526.892 308.421 527.118 308.196 527.623C308.193 527.631 308.189 527.64 308.185 527.649L306.5 531.736C303.577 533.1 301.201 533.782 299.374 533.782C297.889 533.782 295.838 533.183 293.221 531.983L293.221 531.983C292.217 531.523 291.03 531.964 290.57 532.968C290.55 533.011 290.532 533.055 290.515 533.1Z" fill="#E4E4E4"/>
<path fill-rule="evenodd" clip-rule="evenodd" d="M208.699 441.948C178.202 436.98 157.775 433.582 147.417 431.756C117.894 426.55 109.285 410.663 114.375 376H168.771C175.97 378.079 206.047 390.935 259.004 414.569C268.532 419.299 266.758 433.245 265.016 437.84C264.945 438.027 248.883 465.551 216.829 520.411L172.331 492.063L208.783 445.288C209.745 443.349 209.717 442.236 208.699 441.948Z" fill="#DF2727"/>
<path fill-rule="evenodd" clip-rule="evenodd" d="M204 205.75C209.25 225.05 216.092 268.434 209.11 275.239H164.941C164.937 275.161 164.932 275.083 164.928 275.005C148.557 273.198 135.824 259.35 135.824 242.536V210.627C135.824 192.584 150.485 177.958 168.57 177.958H171.616C188.04 177.958 201.64 190.02 204 205.75Z" fill="#FF99BE"/>
<path fill-rule="evenodd" clip-rule="evenodd" d="M212.057 347.611L241.14 374.803C249.602 378.263 256.536 382.083 261.941 386.264C263.156 387.669 264.479 390.361 258.761 389.157C253.042 387.952 246.97 386.931 245.895 388.713C244.82 390.496 247.988 393.227 246.001 395.56C244.677 397.115 240.223 392.168 232.64 380.719L202.398 363.63L212.057 347.611ZM69.8415 323L92.3226 323.081C75.2002 376.25 66.1112 404.089 65.0553 406.597C62.6797 412.24 67.7069 420.833 69.8567 425.452C62.8548 428.455 63.6009 417.334 54.7682 421.272C46.7062 424.867 40.5735 431.381 31.259 425.872C30.1138 425.195 28.8589 422.645 31.8909 420.652C39.4448 415.688 50.3304 406.999 51.8012 404.139C53.8069 400.239 59.8204 373.193 69.8415 323Z" fill="#7c96f2"/>
<path fill-rule="evenodd" clip-rule="evenodd" d="M131.902 262.732L141.235 261.297C155.938 307.864 231.477 339.606 236.114 357.014C237.815 363.398 232.687 366.625 235.336 368.57L223.205 376.527C221.151 374.379 216.767 378.308 207.612 375.56C198.457 372.812 131.902 317.871 131.902 262.732Z" fill="#35A69F"/>
<path fill-rule="evenodd" clip-rule="evenodd" d="M150.354 269.06C149.363 331.245 185.968 347.108 177.814 372.054C171.081 392.654 106.636 414.799 95.4845 394.606C90.9704 386.432 88.9223 376.546 88.6899 365.798C85.8397 374.056 83.5856 381.164 81.9274 387.124C79.0668 397.405 67.977 399.039 67.977 403L53.3663 399.039C54.3573 393.658 47.4694 391.038 49.3162 379.017C57.591 325.155 79.8239 286.112 116.015 261.888L116.389 256.63C116.542 254.48 118.441 252.859 120.63 253.01L147.383 254.847C149.572 254.997 151.222 256.862 151.069 259.011L150.354 269.06Z" fill="#35BBB3"/>
<path fill-rule="evenodd" clip-rule="evenodd" d="M144.702 223.484C142.865 212.834 143.925 201.749 150.371 192.451C168.943 165.662 204.3 194.983 203.507 213.601C202.714 232.219 180.552 267.476 169.247 264.173C164.739 262.855 157.87 255.443 152.419 245.307L142 242L133.5 252L144.702 223.484Z" fill="#7c96f2"/>
<path d="M150.962 235L162.989 247.015L154 255L144 254L150.962 235Z" fill="#7c96f2"/>
<path fill-rule="evenodd" clip-rule="evenodd" d="M156.845 226.904C153.025 244.623 146.185 264.078 139.927 267.235L97.8011 253.956C108.279 212.532 125.996 235.437 138.071 197.132C139.92 196.2 141.686 195.256 143.379 194.497L143.688 193.355C155.678 180.756 167.281 176.224 178.495 179.759C195.316 185.062 198.164 194.544 200.595 202.599C193.567 213.105 179.908 210.686 165.977 214.224C164.954 212.678 163.412 211.458 161.504 210.856C157.092 209.465 152.39 211.906 151.002 216.308C149.615 220.71 152.067 225.406 156.479 226.797C156.601 226.836 156.723 226.871 156.845 226.904Z" fill="#FF99BE"/>
<path fill-rule="evenodd" clip-rule="evenodd" d="M149.833 422.858C146.765 421.604 146.339 418.268 149.06 416.804L239.592 368.092C240.784 367.45 242.335 367.342 243.726 367.804L295.277 384.906C298.496 385.974 299.231 389.353 296.595 390.968L208.798 444.77C207.486 445.574 205.666 445.683 204.118 445.05L149.833 422.858Z" fill="#706C6C"/>
<path fill-rule="evenodd" clip-rule="evenodd" d="M231.031 394.456C230.524 394.766 232.11 393.041 232.299 392.858C232.993 392.187 236.26 390.639 237.546 391.043C239.105 391.531 236.92 393.159 237.813 394.091C239.166 395.504 241.643 394.666 241.784 394.71C242.085 394.805 242.357 396.321 242.22 397.356C242.098 398.27 241.333 399.083 241.018 399.356C240.106 400.143 238.198 400.256 237.438 401.112C235.696 403.074 234.918 403.153 232.716 402.956C226.987 402.444 222.807 396.054 231.01 394.364" fill="#FBFBFB"/>
<path fill-rule="evenodd" clip-rule="evenodd" d="M230.102 393.409C230.05 393.443 229.89 393.298 229.849 393.257C229.605 393.013 229.484 392.774 229.396 392.462C229.159 391.615 229.508 390.975 230.051 390.171C230.116 390.073 230.871 389.225 231.042 389.302C232.36 389.9 231.406 392.566 230.102 393.409Z" fill="#FBFBFB"/>
<path fill-rule="evenodd" clip-rule="evenodd" d="M148.833 420.793C145.765 419.539 145.339 416.203 148.06 414.739L238.592 366.027C239.784 365.385 241.335 365.277 242.726 365.739L294.277 382.841C297.496 383.909 298.231 387.288 295.595 388.903L207.798 442.705C206.486 443.509 204.666 443.618 203.118 442.985L148.833 420.793Z" fill="#949494"/>
<path fill-rule="evenodd" clip-rule="evenodd" d="M230.031 392.391C229.524 392.701 231.11 390.976 231.299 390.793C231.993 390.122 235.26 388.574 236.546 388.978C238.105 389.466 235.92 391.094 236.813 392.026C238.166 393.439 240.643 392.601 240.784 392.645C241.085 392.74 241.357 394.256 241.22 395.291C241.098 396.205 240.333 397.018 240.018 397.291C239.106 398.078 237.198 398.191 236.438 399.047C234.696 401.009 233.918 401.088 231.716 400.891C225.987 400.379 221.807 393.989 230.01 392.299" fill="#FBFBFB"/>
<path fill-rule="evenodd" clip-rule="evenodd" d="M229.102 391.344C229.05 391.378 228.89 391.233 228.849 391.192C228.605 390.947 228.484 390.709 228.396 390.397C228.159 389.55 228.508 388.91 229.051 388.106C229.116 388.008 229.871 387.16 230.042 387.237C231.36 387.835 230.406 390.501 229.102 391.344Z" fill="#FBFBFB"/>
<path fill-rule="evenodd" clip-rule="evenodd" d="M208.778 375.47C208.87 373.263 210.483 370.558 212.381 369.428L302.166 316.012C304.064 314.883 305.529 315.756 305.438 317.964L302.748 382.954C302.657 385.161 301.044 387.866 299.145 388.996L209.361 442.412C207.462 443.541 205.997 442.668 206.089 440.46L207.88 397.178L208.778 375.47Z" fill="#C1C1C1"/>
<path fill-rule="evenodd" clip-rule="evenodd" d="M255.083 376.175C254.571 376.479 256.675 374.425 256.91 374.213C257.774 373.438 260.763 372.144 261.261 373.115C261.864 374.292 259.469 376.025 259.377 377.653C259.239 380.121 261.28 379.63 261.334 379.736C261.451 379.964 260.597 382.262 259.822 383.735C259.137 385.036 258.135 385.999 257.764 386.304C256.692 387.186 255.476 386.784 254.449 387.81C252.094 390.163 251.576 390.048 250.393 389.107C247.314 386.659 249.099 376.072 255.132 376.034" fill="#FBFBFB"/>
<path fill-rule="evenodd" clip-rule="evenodd" d="M255.229 374.368C255.175 374.402 255.177 374.143 255.18 374.07C255.198 373.641 255.285 373.256 255.442 372.773C255.868 371.465 256.505 370.632 257.368 369.617C257.472 369.493 258.492 368.476 258.542 368.64C258.929 369.905 256.572 373.522 255.229 374.368Z" fill="#FBFBFB"/>
<circle cx="85.0664" cy="332.066" r="16.0664" fill="#F25E5E"/>
<path d="M86.6864 330.132C86.6864 333.761 83.785 336.702 80.2059 336.702C76.6268 336.702 73.7253 333.761 73.7253 330.132C73.7253 326.503 76.6268 323.561 80.2059 323.561C83.785 323.561 86.6864 326.503 86.6864 330.132Z" fill="white"/>
<path d="M96.4072 330.132C96.4072 333.761 93.5058 336.702 89.9267 336.702C86.3476 336.702 83.4462 333.761 83.4462 330.132C83.4462 326.503 86.3476 323.561 89.9267 323.561C93.5058 323.561 96.4072 326.503 96.4072 330.132Z" fill="white"/>
<path d="M75.9014 335.06L85.0663 325.767L94.2312 335.06L85.0663 344.352L75.9014 335.06Z" fill="white"/>
<circle cx="318.493" cy="294.493" r="22.4929" fill="#F25E5E"/>
<path d="M320.761 291.784C320.761 296.865 316.699 300.983 311.688 300.983C306.677 300.983 302.615 296.865 302.615 291.784C302.615 286.704 306.677 282.585 311.688 282.585C316.699 282.585 320.761 286.704 320.761 291.784Z" fill="white"/>
<path d="M334.37 291.784C334.37 296.865 330.308 300.983 325.297 300.983C320.287 300.983 316.225 296.865 316.225 291.784C316.225 286.704 320.287 282.585 325.297 282.585C330.308 282.585 334.37 286.704 334.37 291.784Z" fill="white"/>
<path d="M305.662 298.684L318.493 285.674L331.324 298.684L318.493 311.693L305.662 298.684Z" fill="white"/>
<circle cx="259.066" cy="263.066" r="16.0664" fill="#F25E5E"/>
<path d="M260.686 261.132C260.686 264.761 257.785 267.702 254.206 267.702C250.627 267.702 247.725 264.761 247.725 261.132C247.725 257.503 250.627 254.561 254.206 254.561C257.785 254.561 260.686 257.503 260.686 261.132Z" fill="white"/>
<path d="M270.407 261.132C270.407 264.761 267.506 267.702 263.927 267.702C260.348 267.702 257.446 264.761 257.446 261.132C257.446 257.503 260.348 254.561 263.927 254.561C267.506 254.561 270.407 257.503 270.407 261.132Z" fill="white"/>
<path d="M249.901 266.06L259.066 256.767L268.231 266.06L259.066 275.352L249.901 266.06Z" fill="white"/>
<circle cx="230.066" cy="318.066" r="16.0664" fill="#FFD130"/>
<path d="M223.64 314.686C223.64 316.369 222.201 317.733 220.427 317.733C218.652 317.733 217.213 316.369 217.213 314.686C217.213 313.004 218.652 311.64 220.427 311.64C222.201 311.64 223.64 313.004 223.64 314.686Z" fill="#F25E5E"/>
<path d="M228.46 314.686C228.46 316.369 227.021 317.733 225.247 317.733C223.472 317.733 222.033 316.369 222.033 314.686C222.033 313.004 223.472 311.64 225.247 311.64C227.021 311.64 228.46 313.004 228.46 314.686Z" fill="#F25E5E"/>
<path d="M218.292 316.971L222.837 312.663L227.381 316.971L222.837 321.28L218.292 316.971Z" fill="#F25E5E"/>
<path d="M238.1 314.686C238.1 316.369 236.661 317.733 234.886 317.733C233.112 317.733 231.673 316.369 231.673 314.686C231.673 313.004 233.112 311.64 234.886 311.64C236.661 311.64 238.1 313.004 238.1 314.686Z" fill="#F25E5E"/>
<path d="M242.92 314.686C242.92 316.369 241.481 317.733 239.706 317.733C237.932 317.733 236.493 316.369 236.493 314.686C236.493 313.004 237.932 311.64 239.706 311.64C241.481 311.64 242.92 313.004 242.92 314.686Z" fill="#F25E5E"/>
<path d="M232.752 316.971L237.296 312.663L241.841 316.971L237.296 321.28L232.752 316.971Z" fill="#F25E5E"/>
<path d="M238.1 324.493H222.033C222.033 324.493 223.64 329.313 230.066 329.313C236.493 329.313 238.1 324.493 238.1 324.493Z" fill="#D69B04"/>
<path d="M238.1 324.493H222.033C222.033 324.493 223.64 329.313 230.066 329.313C236.493 329.313 238.1 324.493 238.1 324.493Z" fill="url(#paint0_linear)"/>
<circle cx="76.5" cy="252.5" r="14.5" fill="#FFD130"/>
<path d="M70.6999 249.449C70.6999 250.968 69.4015 252.199 67.7999 252.199C66.1983 252.199 64.8999 250.968 64.8999 249.449C64.8999 247.931 66.1983 246.7 67.7999 246.7C69.4015 246.7 70.6999 247.931 70.6999 249.449Z" fill="#F25E5E"/>
<path d="M75.0499 249.449C75.0499 250.968 73.7515 252.199 72.1499 252.199C70.5483 252.199 69.2499 250.968 69.2499 249.449C69.2499 247.931 70.5483 246.7 72.1499 246.7C73.7515 246.7 75.0499 247.931 75.0499 249.449Z" fill="#F25E5E"/>
<path d="M65.8737 251.512L69.9749 247.623L74.0761 251.512L69.9749 255.4L65.8737 251.512Z" fill="#F25E5E"/>
<path d="M83.75 249.449C83.75 250.968 82.4516 252.199 80.85 252.199C79.2483 252.199 77.95 250.968 77.95 249.449C77.95 247.931 79.2483 246.7 80.85 246.7C82.4516 246.7 83.75 247.931 83.75 249.449Z" fill="#F25E5E"/>
<path d="M88.1 249.449C88.1 250.968 86.8016 252.199 85.2 252.199C83.5983 252.199 82.3 250.968 82.3 249.449C82.3 247.931 83.5983 246.7 85.2 246.7C86.8016 246.7 88.1 247.931 88.1 249.449Z" fill="#F25E5E"/>
<path d="M78.9237 251.512L83.0249 247.623L87.1262 251.512L83.0249 255.4L78.9237 251.512Z" fill="#F25E5E"/>
<path d="M83.75 258.3H69.25C69.25 258.3 70.7 262.65 76.5 262.65C82.3 262.65 83.75 258.3 83.75 258.3Z" fill="#D69B04"/>
<path d="M83.75 258.3H69.25C69.25 258.3 70.7 262.65 76.5 262.65C82.3 262.65 83.75 258.3 83.75 258.3Z" fill="url(#paint1_linear)"/>
<circle cx="149.493" cy="415.493" r="22.4929" fill="#FFD130"/>
<path d="M140.496 410.761C140.496 413.116 138.482 415.026 135.997 415.026C133.513 415.026 131.499 413.116 131.499 410.761C131.499 408.405 133.513 406.496 135.997 406.496C138.482 406.496 140.496 408.405 140.496 410.761Z" fill="#F25E5E"/>
<path d="M147.244 410.761C147.244 413.116 145.229 415.026 142.745 415.026C140.26 415.026 138.246 413.116 138.246 410.761C138.246 408.405 140.26 406.496 142.745 406.496C145.229 406.496 147.244 408.405 147.244 410.761Z" fill="#F25E5E"/>
<path d="M133.009 413.96L139.371 407.928L145.733 413.96L139.371 419.991L133.009 413.96Z" fill="#F25E5E"/>
<path d="M160.739 410.761C160.739 413.116 158.725 415.026 156.241 415.026C153.756 415.026 151.742 413.116 151.742 410.761C151.742 408.405 153.756 406.496 156.241 406.496C158.725 406.496 160.739 408.405 160.739 410.761Z" fill="#F25E5E"/>
<path d="M167.487 410.761C167.487 413.116 165.473 415.026 162.989 415.026C160.504 415.026 158.49 413.116 158.49 410.761C158.49 408.405 160.504 406.496 162.989 406.496C165.473 406.496 167.487 408.405 167.487 410.761Z" fill="#F25E5E"/>
<path d="M153.253 413.96L159.615 407.928L165.977 413.96L159.615 419.991L153.253 413.96Z" fill="#F25E5E"/>
<path d="M160.739 424.49H138.246C138.246 424.49 140.496 431.238 149.493 431.238C158.49 431.238 160.739 424.49 160.739 424.49Z" fill="#D69B04"/>
<path d="M160.739 424.49H138.246C138.246 424.49 140.496 431.238 149.493 431.238C158.49 431.238 160.739 424.49 160.739 424.49Z" fill="url(#paint2_linear)"/>
<defs>
<filter id="filter0_i" x="98.2314" y="417.56" width="22.3668" height="36.9883" filterUnits="userSpaceOnUse" color-interpolation-filters="sRGB">
<feFlood flood-opacity="0" result="BackgroundImageFix"/>
<feBlend mode="normal" in="SourceGraphic" in2="BackgroundImageFix" result="shape"/>
<feColorMatrix in="SourceAlpha" type="matrix" values="0 0 0 0 0 0 0 0 0 0 0 0 0 0 0 0 0 0 127 0" result="hardAlpha"/>
<feOffset dy="4"/>
<feGaussianBlur stdDeviation="2"/>
<feComposite in2="hardAlpha" operator="arithmetic" k2="-1" k3="1"/>
<feColorMatrix type="matrix" values="0 0 0 0 0 0 0 0 0 0 0 0 0 0 0 0 0 0 0.5 0"/>
<feBlend mode="normal" in2="shape" result="effect1_innerShadow"/>
</filter>
<linearGradient id="paint0_linear" x1="230.066" y1="324.493" x2="230.066" y2="329.313" gradientUnits="userSpaceOnUse">
<stop offset="0.359375" stop-color="#FF0000" stop-opacity="0.29"/>
<stop offset="1" stop-color="white" stop-opacity="0"/>
</linearGradient>
<linearGradient id="paint1_linear" x1="76.5" y1="258.3" x2="76.5" y2="262.65" gradientUnits="userSpaceOnUse">
<stop offset="0.359375" stop-color="#FF0000" stop-opacity="0.29"/>
<stop offset="1" stop-color="white" stop-opacity="0"/>
</linearGradient>
<linearGradient id="paint2_linear" x1="149.493" y1="424.49" x2="149.493" y2="431.238" gradientUnits="userSpaceOnUse">
<stop offset="0.359375" stop-color="#FF0000" stop-opacity="0.29"/>
<stop offset="1" stop-color="white" stop-opacity="0"/>
</linearGradient>
</defs>
</svg>
