<svg width="341" height="541" viewBox="0 0 341 541" fill="none" xmlns="http://www.w3.org/2000/svg">
<path d="M38.7743 31.951C40.1497 15.9894 56.4795 5.83087 71.4054 11.6516L190.823 58.2216C200.744 62.0903 206.929 72.0331 206.015 82.642L176.2 428.622C175.286 439.231 167.491 447.969 157.055 450.083L31.4307 475.537C15.729 478.719 1.37789 465.916 2.75336 449.955L38.7743 31.951Z" fill="#343434"/>
<path d="M48.0593 27.3864C49.2055 14.085 62.8137 5.61962 75.252 10.4703L202.438 60.0697C210.705 63.2937 215.86 71.5794 215.098 80.4201L184.769 432.365C184.008 441.206 177.512 448.487 168.815 450.25L35.0184 477.359C21.9337 480.01 9.97441 469.342 11.1206 456.04L48.0593 27.3864Z" fill="#5C5C5C"/>
<path d="M60.5312 37.4294L201.821 90.0331L175.453 396.026L27.2464 423.683L60.5312 37.4294Z" fill="#EFEFEF"/>
<g filter="url(#filter0_i)">
<ellipse rx="14.0054" ry="14.1722" transform="matrix(0.754929 -0.655807 0.256466 0.966553 109.415 434.054)" fill="#5C5C5C"/>
</g>
<path d="M119.233 425.525C121.102 432.567 118.207 442.083 112.793 446.786C107.379 451.489 101.465 449.625 99.5966 442.583C97.728 435.541 100.623 426.026 106.037 421.322C111.451 416.619 117.364 418.483 119.233 425.525Z" stroke="#BABABA" stroke-width="2"/>
<path d="M123.093 41.2947L158.251 55.414C158.744 56.0259 159.094 56.5226 159.315 56.9337C159.551 57.3704 159.614 57.6582 159.597 57.8691C159.579 58.0817 159.47 58.3159 159.166 58.5691C158.88 58.8063 158.454 59.0346 157.86 59.2671L122.644 45.1245C121.552 44.2935 121.165 43.6879 121.057 43.3077C120.956 42.9531 121.052 42.6105 121.364 42.2698C121.672 41.9335 122.125 41.6791 122.522 41.5066C122.716 41.4219 122.89 41.3599 123.015 41.3193C123.044 41.3099 123.07 41.3017 123.093 41.2947Z" fill="#BABABA" stroke="#BABABA"/>
<path fill-rule="evenodd" clip-rule="evenodd" d="M276.996 529.698C257.28 505.622 243.94 487.773 236.975 476.152C225.05 456.252 215.29 438.546 212.21 431.782C204.865 415.653 229.119 408.1 234.608 415.624C242.916 427.01 260.659 462.841 287.837 523.115L276.996 529.698Z" fill="#748CDF"/>
<path fill-rule="evenodd" clip-rule="evenodd" d="M236.594 522.698L199.902 430.335C192.054 413.497 229.953 402.43 235.72 410.266C248.814 428.055 279.936 498.232 283.837 503.532L236.594 522.698Z" fill="#AC2727"/>
<path fill-rule="evenodd" clip-rule="evenodd" d="M138.87 504.175C146.017 493.749 172.015 458.672 186.176 444.159C190.245 439.988 194.215 435.985 197.971 432.255C209.133 421.168 231.361 439.803 220.219 449.902C192.472 475.053 151.988 509.005 148.606 512.032C143.865 516.275 134.378 510.727 138.87 504.175Z" fill="#748CDF"/>
<path fill-rule="evenodd" clip-rule="evenodd" d="M140.541 499.465C138.079 501.492 136.478 503.148 135.736 504.432C134.835 505.993 133.779 508.422 132.57 511.719C134.381 512.765 150.663 522.165 181.415 539.92C185.107 536.456 185.682 533.768 183.141 531.854C180.599 529.941 178.502 528.327 176.848 527.013L159.989 503.785C159.665 503.338 159.039 503.238 158.592 503.563C158.585 503.568 158.577 503.574 158.57 503.58L155.066 506.277C151.853 505.997 149.455 505.399 147.872 504.486C146.586 503.743 145.11 502.198 143.443 499.851L143.443 499.851C142.804 498.951 141.555 498.739 140.655 499.378C140.616 499.406 140.578 499.435 140.541 499.465Z" fill="#E4E4E4"/>
<path fill-rule="evenodd" clip-rule="evenodd" d="M268.515 526.1C267.396 529.086 266.837 531.321 266.837 532.803C266.837 534.607 267.137 537.238 267.738 540.698C269.83 540.698 288.631 540.698 324.14 540.698C325.606 535.852 324.76 533.236 321.602 532.85C318.444 532.464 315.821 532.115 313.732 531.803L287.517 520.117C287.012 519.892 286.421 520.118 286.196 520.623C286.193 520.631 286.189 520.64 286.185 520.649L284.5 524.736C281.577 526.1 279.201 526.782 277.374 526.782C275.889 526.782 273.838 526.183 271.221 524.983L271.221 524.983C270.217 524.523 269.03 524.964 268.57 525.968C268.55 526.011 268.532 526.055 268.515 526.1Z" fill="#E4E4E4"/>
<path fill-rule="evenodd" clip-rule="evenodd" d="M186.699 434.948C156.202 429.98 135.775 426.582 125.417 424.756C95.8943 419.55 87.2851 403.663 92.3753 369H146.771C153.97 371.079 184.047 383.935 237.004 407.569C246.532 412.299 244.758 426.245 243.016 430.84C242.945 431.027 226.883 458.551 194.829 513.411L150.331 485.063L186.783 438.288C187.745 436.349 187.717 435.236 186.699 434.948Z" fill="#DF2727"/>
<path fill-rule="evenodd" clip-rule="evenodd" d="M182 203.75C187.25 223.05 194.092 266.434 187.11 273.239H142.941C142.937 273.161 142.932 273.083 142.928 273.005C126.557 271.198 113.824 257.35 113.824 240.536V208.627C113.824 190.584 128.485 175.958 146.57 175.958H149.616C166.04 175.958 179.64 188.02 182 203.75Z" fill="#FF99BE"/>
<path fill-rule="evenodd" clip-rule="evenodd" d="M204.159 345.567L231.37 372.501C239.287 375.928 245.774 379.711 250.831 383.852C251.968 385.244 253.206 387.911 247.856 386.718C242.505 385.524 236.824 384.513 235.819 386.279C234.813 388.044 237.776 390.75 235.918 393.06C234.679 394.601 230.512 389.701 223.417 378.361L195.121 361.434L204.159 345.567ZM71.0987 321.191L92.1325 321.271C76.1124 373.934 67.6085 401.508 66.6206 403.992C64.398 409.581 69.1015 418.093 71.1129 422.667C64.5618 425.642 65.2598 414.626 56.9958 418.527C49.4528 422.088 43.7149 428.54 35 423.084C33.9286 422.413 32.7544 419.887 35.5913 417.913C42.6588 412.996 52.8437 404.39 54.2198 401.558C56.0964 397.695 61.7227 370.906 71.0987 321.191Z" fill="#748CDF"/>
<path fill-rule="evenodd" clip-rule="evenodd" d="M110.902 260.732L120.235 259.297C134.938 305.864 210.477 337.606 215.114 355.014C216.815 361.398 211.687 364.625 214.336 366.57L202.205 374.527C200.151 372.379 195.767 376.308 186.612 373.56C177.457 370.812 110.902 315.871 110.902 260.732Z" fill="#35A69F"/>
<path fill-rule="evenodd" clip-rule="evenodd" d="M134.202 266.846C133.379 328.202 163.789 343.853 157.015 368.466C151.422 388.792 92.2378 412.924 82.9732 393C79.223 384.935 83.1662 372.899 82.9732 362.294C80.6053 370.441 78.7326 377.455 77.3551 383.335C74.9786 393.48 71 395.592 71 399.5L53.6274 395.092C54.4507 389.783 40.4657 374.155 42 362.294C48.8744 309.15 75.6076 283.67 105.674 259.77L105.985 254.581C106.112 252.46 107.689 250.861 109.508 251.01L131.734 252.822C133.552 252.971 134.923 254.81 134.796 256.931L134.202 266.846Z" fill="#35BBB3"/>
<path fill-rule="evenodd" clip-rule="evenodd" d="M122.702 221.484C120.865 210.834 121.925 199.749 128.371 190.451C146.943 163.662 182.3 192.983 181.507 211.601C180.714 230.219 158.552 265.476 147.247 262.173C142.739 260.855 135.87 253.443 130.419 243.307L120 240L111.5 250L122.702 221.484Z" fill="#748CDF"/>
<path d="M128.962 233L140.989 245.015L132 253L122 252L128.962 233Z" fill="#748CDF"/>
<path fill-rule="evenodd" clip-rule="evenodd" d="M134.845 224.904C131.025 242.623 124.185 262.078 117.927 265.235L75.8011 251.956C86.2786 210.532 103.996 233.437 116.071 195.132C117.92 194.2 119.686 193.256 121.379 192.497L121.688 191.355C133.678 178.756 145.281 174.224 156.495 177.759C173.316 183.062 176.164 192.544 178.595 200.599C171.567 211.105 157.908 208.686 143.977 212.224C142.954 210.678 141.412 209.458 139.504 208.856C135.092 207.465 130.39 209.906 129.002 214.308C127.615 218.71 130.067 223.406 134.479 224.797C134.601 224.836 134.723 224.871 134.845 224.904Z" fill="#FF99BE"/>
<path fill-rule="evenodd" clip-rule="evenodd" d="M149.833 422.858C146.765 421.604 146.339 418.268 149.06 416.804L239.592 368.092C240.784 367.45 242.335 367.342 243.726 367.804L295.277 384.906C298.496 385.974 299.231 389.353 296.595 390.968L208.798 444.77C207.486 445.574 205.666 445.683 204.118 445.05L149.833 422.858Z" fill="#706C6C"/>
<path fill-rule="evenodd" clip-rule="evenodd" d="M231.031 394.456C230.524 394.766 232.11 393.041 232.299 392.858C232.993 392.187 236.26 390.639 237.546 391.043C239.105 391.531 236.92 393.159 237.813 394.091C239.166 395.504 241.643 394.666 241.784 394.71C242.085 394.805 242.357 396.321 242.22 397.356C242.098 398.27 241.333 399.083 241.018 399.356C240.106 400.143 238.198 400.256 237.438 401.112C235.696 403.074 234.918 403.153 232.716 402.956C226.987 402.444 222.807 396.054 231.01 394.364" fill="#FBFBFB"/>
<path fill-rule="evenodd" clip-rule="evenodd" d="M230.102 393.409C230.05 393.443 229.89 393.298 229.849 393.257C229.605 393.013 229.484 392.774 229.396 392.462C229.159 391.615 229.508 390.975 230.051 390.171C230.116 390.073 230.871 389.225 231.042 389.302C232.36 389.9 231.406 392.566 230.102 393.409Z" fill="#FBFBFB"/>
<path fill-rule="evenodd" clip-rule="evenodd" d="M148.833 420.793C145.765 419.539 145.339 416.203 148.06 414.739L238.592 366.027C239.784 365.385 241.335 365.277 242.726 365.739L294.277 382.841C297.496 383.909 298.231 387.288 295.595 388.903L207.798 442.705C206.486 443.509 204.666 443.618 203.118 442.985L148.833 420.793Z" fill="#949494"/>
<path fill-rule="evenodd" clip-rule="evenodd" d="M230.031 392.391C229.524 392.701 231.11 390.976 231.299 390.793C231.993 390.122 235.26 388.574 236.546 388.978C238.105 389.466 235.92 391.094 236.813 392.026C238.166 393.439 240.643 392.601 240.784 392.645C241.085 392.74 241.357 394.256 241.22 395.291C241.098 396.205 240.333 397.018 240.018 397.291C239.106 398.078 237.198 398.191 236.438 399.047C234.696 401.009 233.918 401.088 231.716 400.891C225.987 400.379 221.807 393.989 230.01 392.299" fill="#FBFBFB"/>
<path fill-rule="evenodd" clip-rule="evenodd" d="M229.102 391.344C229.05 391.378 228.89 391.233 228.849 391.192C228.605 390.947 228.484 390.709 228.396 390.397C228.159 389.55 228.508 388.91 229.051 388.106C229.116 388.008 229.871 387.16 230.042 387.237C231.36 387.835 230.406 390.501 229.102 391.344Z" fill="#FBFBFB"/>
<path fill-rule="evenodd" clip-rule="evenodd" d="M208.778 375.47C208.87 373.263 210.483 370.558 212.381 369.428L302.166 316.012C304.064 314.883 305.529 315.756 305.438 317.964L302.748 382.954C302.657 385.161 301.044 387.866 299.145 388.996L209.361 442.412C207.462 443.541 205.997 442.668 206.089 440.46L207.88 397.178L208.778 375.47Z" fill="#C1C1C1"/>
<path fill-rule="evenodd" clip-rule="evenodd" d="M255.083 376.175C254.571 376.479 256.675 374.425 256.91 374.213C257.774 373.438 260.763 372.144 261.261 373.115C261.864 374.292 259.469 376.025 259.377 377.653C259.239 380.121 261.28 379.63 261.334 379.736C261.451 379.964 260.597 382.262 259.822 383.735C259.137 385.036 258.135 385.999 257.764 386.304C256.692 387.186 255.476 386.784 254.449 387.81C252.094 390.163 251.576 390.048 250.393 389.107C247.314 386.659 249.099 376.072 255.132 376.034" fill="#FBFBFB"/>
<path fill-rule="evenodd" clip-rule="evenodd" d="M255.229 374.368C255.175 374.402 255.177 374.143 255.18 374.07C255.198 373.641 255.285 373.256 255.442 372.773C255.868 371.465 256.505 370.632 257.368 369.617C257.472 369.493 258.492 368.476 258.542 368.64C258.929 369.905 256.572 373.522 255.229 374.368Z" fill="#FBFBFB"/>
<circle cx="85.0664" cy="332.066" r="16.0664" fill="#F25E5E"/>
<path d="M86.6864 330.132C86.6864 333.761 83.785 336.702 80.2059 336.702C76.6268 336.702 73.7253 333.761 73.7253 330.132C73.7253 326.503 76.6268 323.561 80.2059 323.561C83.785 323.561 86.6864 326.503 86.6864 330.132Z" fill="white"/>
<path d="M96.4072 330.132C96.4072 333.761 93.5058 336.702 89.9267 336.702C86.3476 336.702 83.4462 333.761 83.4462 330.132C83.4462 326.503 86.3476 323.561 89.9267 323.561C93.5058 323.561 96.4072 326.503 96.4072 330.132Z" fill="white"/>
<path d="M75.9014 335.06L85.0663 325.767L94.2312 335.06L85.0663 344.352L75.9014 335.06Z" fill="white"/>
<circle cx="318.493" cy="294.493" r="22.4929" fill="#F25E5E"/>
<path d="M320.761 291.784C320.761 296.865 316.699 300.983 311.688 300.983C306.677 300.983 302.615 296.865 302.615 291.784C302.615 286.704 306.677 282.585 311.688 282.585C316.699 282.585 320.761 286.704 320.761 291.784Z" fill="white"/>
<path d="M334.37 291.784C334.37 296.865 330.308 300.983 325.297 300.983C320.286 300.983 316.224 296.865 316.224 291.784C316.224 286.704 320.286 282.585 325.297 282.585C330.308 282.585 334.37 286.704 334.37 291.784Z" fill="white"/>
<path d="M305.662 298.684L318.493 285.674L331.323 298.684L318.493 311.693L305.662 298.684Z" fill="white"/>
<circle cx="259.066" cy="263.066" r="16.0664" fill="#F25E5E"/>
<path d="M260.686 261.132C260.686 264.761 257.785 267.702 254.206 267.702C250.627 267.702 247.725 264.761 247.725 261.132C247.725 257.503 250.627 254.561 254.206 254.561C257.785 254.561 260.686 257.503 260.686 261.132Z" fill="white"/>
<path d="M270.407 261.132C270.407 264.761 267.506 267.702 263.927 267.702C260.348 267.702 257.446 264.761 257.446 261.132C257.446 257.503 260.348 254.561 263.927 254.561C267.506 254.561 270.407 257.503 270.407 261.132Z" fill="white"/>
<path d="M249.901 266.06L259.066 256.767L268.231 266.06L259.066 275.352L249.901 266.06Z" fill="white"/>
<circle cx="230.066" cy="318.066" r="16.0664" fill="#FFD130"/>
<path d="M223.64 314.686C223.64 316.369 222.201 317.733 220.427 317.733C218.652 317.733 217.213 316.369 217.213 314.686C217.213 313.004 218.652 311.64 220.427 311.64C222.201 311.64 223.64 313.004 223.64 314.686Z" fill="#F25E5E"/>
<path d="M228.46 314.686C228.46 316.369 227.021 317.733 225.247 317.733C223.472 317.733 222.033 316.369 222.033 314.686C222.033 313.004 223.472 311.64 225.247 311.64C227.021 311.64 228.46 313.004 228.46 314.686Z" fill="#F25E5E"/>
<path d="M218.292 316.971L222.837 312.663L227.381 316.971L222.837 321.28L218.292 316.971Z" fill="#F25E5E"/>
<path d="M238.1 314.686C238.1 316.369 236.661 317.733 234.886 317.733C233.112 317.733 231.673 316.369 231.673 314.686C231.673 313.004 233.112 311.64 234.886 311.64C236.661 311.64 238.1 313.004 238.1 314.686Z" fill="#F25E5E"/>
<path d="M242.92 314.686C242.92 316.369 241.481 317.733 239.706 317.733C237.932 317.733 236.493 316.369 236.493 314.686C236.493 313.004 237.932 311.64 239.706 311.64C241.481 311.64 242.92 313.004 242.92 314.686Z" fill="#F25E5E"/>
<path d="M232.752 316.971L237.296 312.663L241.841 316.971L237.296 321.28L232.752 316.971Z" fill="#F25E5E"/>
<path d="M238.1 324.493H222.033C222.033 324.493 223.64 329.313 230.066 329.313C236.493 329.313 238.1 324.493 238.1 324.493Z" fill="#D69B04"/>
<path d="M238.1 324.493H222.033C222.033 324.493 223.64 329.313 230.066 329.313C236.493 329.313 238.1 324.493 238.1 324.493Z" fill="url(#paint0_linear)"/>
<circle cx="76.5" cy="252.5" r="14.5" fill="#FFD130"/>
<path d="M70.6999 249.449C70.6999 250.968 69.4015 252.199 67.7999 252.199C66.1983 252.199 64.8999 250.968 64.8999 249.449C64.8999 247.931 66.1983 246.7 67.7999 246.7C69.4015 246.7 70.6999 247.931 70.6999 249.449Z" fill="#F25E5E"/>
<path d="M75.0499 249.449C75.0499 250.968 73.7515 252.199 72.1499 252.199C70.5483 252.199 69.2499 250.968 69.2499 249.449C69.2499 247.931 70.5483 246.7 72.1499 246.7C73.7515 246.7 75.0499 247.931 75.0499 249.449Z" fill="#F25E5E"/>
<path d="M65.8737 251.512L69.9749 247.623L74.0761 251.512L69.9749 255.4L65.8737 251.512Z" fill="#F25E5E"/>
<path d="M83.75 249.449C83.75 250.968 82.4516 252.199 80.85 252.199C79.2483 252.199 77.95 250.968 77.95 249.449C77.95 247.931 79.2483 246.7 80.85 246.7C82.4516 246.7 83.75 247.931 83.75 249.449Z" fill="#F25E5E"/>
<path d="M88.1 249.449C88.1 250.968 86.8016 252.199 85.2 252.199C83.5983 252.199 82.3 250.968 82.3 249.449C82.3 247.931 83.5983 246.7 85.2 246.7C86.8016 246.7 88.1 247.931 88.1 249.449Z" fill="#F25E5E"/>
<path d="M78.9237 251.512L83.0249 247.623L87.1262 251.512L83.0249 255.4L78.9237 251.512Z" fill="#F25E5E"/>
<path d="M83.75 258.3H69.25C69.25 258.3 70.7 262.65 76.5 262.65C82.3 262.65 83.75 258.3 83.75 258.3Z" fill="#D69B04"/>
<path d="M83.75 258.3H69.25C69.25 258.3 70.7 262.65 76.5 262.65C82.3 262.65 83.75 258.3 83.75 258.3Z" fill="url(#paint1_linear)"/>
<circle cx="149.493" cy="415.493" r="22.4929" fill="#FFD130"/>
<path d="M140.496 410.761C140.496 413.116 138.482 415.026 135.997 415.026C133.513 415.026 131.499 413.116 131.499 410.761C131.499 408.405 133.513 406.496 135.997 406.496C138.482 406.496 140.496 408.405 140.496 410.761Z" fill="#F25E5E"/>
<path d="M147.244 410.761C147.244 413.116 145.229 415.026 142.745 415.026C140.26 415.026 138.246 413.116 138.246 410.761C138.246 408.405 140.26 406.496 142.745 406.496C145.229 406.496 147.244 408.405 147.244 410.761Z" fill="#F25E5E"/>
<path d="M133.009 413.96L139.371 407.928L145.733 413.96L139.371 419.991L133.009 413.96Z" fill="#F25E5E"/>
<path d="M160.739 410.761C160.739 413.116 158.725 415.026 156.241 415.026C153.756 415.026 151.742 413.116 151.742 410.761C151.742 408.405 153.756 406.496 156.241 406.496C158.725 406.496 160.739 408.405 160.739 410.761Z" fill="#F25E5E"/>
<path d="M167.487 410.761C167.487 413.116 165.473 415.026 162.989 415.026C160.504 415.026 158.49 413.116 158.49 410.761C158.49 408.405 160.504 406.496 162.989 406.496C165.473 406.496 167.487 408.405 167.487 410.761Z" fill="#F25E5E"/>
<path d="M153.253 413.96L159.615 407.928L165.977 413.96L159.615 419.991L153.253 413.96Z" fill="#F25E5E"/>
<path d="M160.739 424.49H138.246C138.246 424.49 140.496 431.238 149.493 431.238C158.49 431.238 160.739 424.49 160.739 424.49Z" fill="#D69B04"/>
<path d="M160.739 424.49H138.246C138.246 424.49 140.496 431.238 149.493 431.238C158.49 431.238 160.739 424.49 160.739 424.49Z" fill="url(#paint2_linear)"/>
<defs>
<filter id="filter0_i" x="98.2314" y="417.56" width="22.3668" height="36.9883" filterUnits="userSpaceOnUse" color-interpolation-filters="sRGB">
<feFlood flood-opacity="0" result="BackgroundImageFix"/>
<feBlend mode="normal" in="SourceGraphic" in2="BackgroundImageFix" result="shape"/>
<feColorMatrix in="SourceAlpha" type="matrix" values="0 0 0 0 0 0 0 0 0 0 0 0 0 0 0 0 0 0 127 0" result="hardAlpha"/>
<feOffset dy="4"/>
<feGaussianBlur stdDeviation="2"/>
<feComposite in2="hardAlpha" operator="arithmetic" k2="-1" k3="1"/>
<feColorMatrix type="matrix" values="0 0 0 0 0 0 0 0 0 0 0 0 0 0 0 0 0 0 0.5 0"/>
<feBlend mode="normal" in2="shape" result="effect1_innerShadow"/>
</filter>
<linearGradient id="paint0_linear" x1="230.066" y1="324.493" x2="230.066" y2="329.313" gradientUnits="userSpaceOnUse">
<stop offset="0.359375" stop-color="#FF0000" stop-opacity="0.29"/>
<stop offset="1" stop-color="white" stop-opacity="0"/>
</linearGradient>
<linearGradient id="paint1_linear" x1="76.5" y1="258.3" x2="76.5" y2="262.65" gradientUnits="userSpaceOnUse">
<stop offset="0.359375" stop-color="#FF0000" stop-opacity="0.29"/>
<stop offset="1" stop-color="white" stop-opacity="0"/>
</linearGradient>
<linearGradient id="paint2_linear" x1="149.493" y1="424.49" x2="149.493" y2="431.238" gradientUnits="userSpaceOnUse">
<stop offset="0.359375" stop-color="#FF0000" stop-opacity="0.29"/>
<stop offset="1" stop-color="white" stop-opacity="0"/>
</linearGradient>
</defs>
</svg>
