<svg width="311" height="385" viewBox="0 0 311 385" fill="none" xmlns="http://www.w3.org/2000/svg">
<path fill-rule="evenodd" clip-rule="evenodd" d="M262.996 373.698C243.28 349.622 229.94 331.773 222.975 320.152C211.05 300.252 201.29 282.546 198.21 275.782C190.865 259.653 215.119 252.1 220.608 259.624C228.916 271.01 246.659 306.841 273.837 367.115L262.996 373.698Z" fill="#64A3EC"/>
<path fill-rule="evenodd" clip-rule="evenodd" d="M222.594 366.698L185.902 274.335C178.054 257.497 215.953 246.43 221.72 254.266C234.814 272.055 265.936 342.232 269.837 347.532L222.594 366.698Z" fill="#AC2727"/>
<path fill-rule="evenodd" clip-rule="evenodd" d="M124.87 348.175C132.017 337.749 158.015 302.672 172.176 288.159C176.245 283.988 180.215 279.985 183.971 276.255C195.133 265.168 217.361 283.803 206.219 293.902C178.472 319.053 137.988 353.005 134.606 356.032C129.865 360.275 120.378 354.727 124.87 348.175Z" fill="#64A3EC"/>
<path fill-rule="evenodd" clip-rule="evenodd" d="M126.541 343.465C124.079 345.492 122.478 347.148 121.736 348.432C120.835 349.993 119.779 352.422 118.57 355.719C120.381 356.765 136.663 366.165 167.415 383.92C171.107 380.456 171.682 377.768 169.141 375.854C166.599 373.941 164.502 372.327 162.848 371.013L145.989 347.785C145.665 347.338 145.039 347.238 144.592 347.563C144.585 347.568 144.577 347.574 144.57 347.58L141.066 350.277C137.853 349.997 135.455 349.399 133.872 348.486C132.586 347.743 131.11 346.198 129.443 343.851L129.443 343.851C128.804 342.951 127.555 342.739 126.655 343.378C126.616 343.406 126.578 343.435 126.541 343.465Z" fill="#E4E4E4"/>
<path fill-rule="evenodd" clip-rule="evenodd" d="M254.515 370.1C253.396 373.086 252.837 375.321 252.837 376.803C252.837 378.607 253.137 381.238 253.738 384.698C255.83 384.698 274.631 384.698 310.14 384.698C311.606 379.852 310.76 377.236 307.602 376.85C304.444 376.464 301.821 376.115 299.732 375.803L273.517 364.117C273.012 363.892 272.421 364.118 272.196 364.623C272.193 364.631 272.189 364.64 272.185 364.649L270.5 368.736C267.577 370.1 265.201 370.782 263.374 370.782C261.889 370.782 259.838 370.183 257.221 368.983L257.221 368.983C256.217 368.523 255.03 368.964 254.57 369.968C254.55 370.011 254.532 370.055 254.515 370.1Z" fill="#E4E4E4"/>
<path fill-rule="evenodd" clip-rule="evenodd" d="M172.699 278.948C142.202 273.98 121.775 270.582 111.417 268.756C81.8943 263.55 73.2851 247.663 78.3753 213H132.771C139.97 215.079 170.047 227.935 223.004 251.569C232.532 256.299 230.758 270.245 229.016 274.84C228.945 275.027 212.883 302.551 180.829 357.411L136.331 329.063L172.783 282.288C173.745 280.349 173.717 279.236 172.699 278.948Z" fill="#DF2727"/>
<path fill-rule="evenodd" clip-rule="evenodd" d="M168 42.7496C173.25 62.0502 180.092 105.434 173.11 112.239H128.941C128.937 112.161 128.932 112.083 128.928 112.005C112.557 110.198 99.824 96.3502 99.824 79.5359V47.6268C99.824 29.5843 114.485 14.958 132.57 14.958H135.616C152.04 14.958 165.64 27.0205 168 42.7496Z" fill="#FF99BE"/>
<path fill-rule="evenodd" clip-rule="evenodd" d="M177.33 180.189L205.658 205.833C213.901 209.096 220.654 212.698 225.919 216.641C227.103 217.966 228.391 220.505 222.821 219.369C217.251 218.233 211.337 217.27 210.29 218.951C209.243 220.632 212.328 223.208 210.393 225.408C209.103 226.874 204.765 222.209 197.379 211.412L167.922 195.296L177.33 180.189ZM38.807 156.98L60.7044 157.057C44.0267 207.198 35.1736 233.451 34.1452 235.816C31.8312 241.137 36.7278 249.242 38.8218 253.597C32.0018 256.429 32.7285 245.941 24.1252 249.655C16.2725 253.045 10.2989 259.188 1.22628 253.993C0.110847 253.355 -1.11148 250.95 1.84182 249.071C9.19957 244.389 19.8025 236.195 21.2352 233.498C23.1888 229.821 29.0461 204.315 38.807 156.98Z" fill="#64A3EC"/>
<path fill-rule="evenodd" clip-rule="evenodd" d="M105.532 99.3379L114.179 97.9616C127.801 142.644 197.79 173.102 202.086 189.806C203.662 195.931 198.911 199.028 201.365 200.894L190.126 208.529C188.222 206.468 184.161 210.238 175.679 207.601C167.197 204.964 105.532 152.246 105.532 99.3379Z" fill="#35A69F"/>
<path fill-rule="evenodd" clip-rule="evenodd" d="M120.078 105.278C119.081 164.435 155.933 179.525 147.725 203.256C140.946 222.853 76.0646 243.92 64.8373 224.71C60.2926 216.934 58.2306 207.53 57.9967 197.306C55.1272 205.161 52.8578 211.923 51.1884 217.593C48.3085 227.373 37.1435 228.928 37.1435 232.696L22.4339 228.928C23.4316 223.809 16.4971 221.317 18.3565 209.881C26.6873 158.641 49.0707 121.5 85.5067 98.4553L85.8836 93.4531C86.0377 91.4081 87.9491 89.8662 90.1529 90.0092L117.087 91.7569C119.291 91.8999 120.952 93.6736 120.798 95.7186L120.078 105.278Z" fill="#35BBB3"/>
<path fill-rule="evenodd" clip-rule="evenodd" d="M108.702 60.4844C106.865 49.8344 107.925 38.7491 114.371 29.4512C132.943 2.66156 168.3 31.983 167.507 50.6009C166.714 69.2188 144.552 104.476 133.247 101.173C128.739 99.8553 121.87 92.4427 116.419 82.3068L106 79L97.5 89L108.702 60.4844Z" fill="#64A3EC"/>
<path d="M114.962 72L126.989 84.0151L118 92L108 91L114.962 72Z" fill="#64A3EC"/>
<path fill-rule="evenodd" clip-rule="evenodd" d="M120.845 63.9036C117.025 81.6234 110.185 101.078 103.927 104.235L61.8011 90.9559C72.2786 49.5321 89.996 72.4373 102.071 34.1323C103.92 33.1996 105.686 32.2564 107.379 31.4966L107.688 30.3553C119.678 17.7564 131.281 13.2245 142.495 16.7595C159.316 22.062 162.164 31.5444 164.595 39.5991C157.567 50.1053 143.908 47.6858 129.977 51.2244C128.954 49.6775 127.412 48.4578 125.504 47.8562C121.092 46.4653 116.39 48.9063 115.002 53.3083C113.615 57.7103 116.067 62.4063 120.479 63.7972C120.601 63.8356 120.723 63.871 120.845 63.9036Z" fill="#FF99BE"/>
<path fill-rule="evenodd" clip-rule="evenodd" d="M113.833 259.858C110.765 258.604 110.339 255.268 113.06 253.804L203.592 205.092C204.784 204.45 206.335 204.342 207.726 204.804L259.277 221.906C262.496 222.974 263.231 226.353 260.595 227.968L172.798 281.77C171.486 282.574 169.666 282.683 168.118 282.05L113.833 259.858Z" fill="#706C6C"/>
<path fill-rule="evenodd" clip-rule="evenodd" d="M195.031 231.456C194.524 231.766 196.11 230.041 196.299 229.858C196.993 229.187 200.26 227.639 201.546 228.043C203.105 228.531 200.92 230.159 201.813 231.091C203.166 232.504 205.643 231.666 205.784 231.71C206.085 231.805 206.357 233.321 206.22 234.356C206.098 235.27 205.333 236.083 205.018 236.356C204.106 237.143 202.198 237.256 201.438 238.112C199.696 240.074 198.918 240.153 196.716 239.956C190.987 239.444 186.807 233.054 195.01 231.364" fill="#FBFBFB"/>
<path fill-rule="evenodd" clip-rule="evenodd" d="M194.102 230.409C194.05 230.443 193.89 230.298 193.849 230.257C193.605 230.013 193.484 229.774 193.396 229.462C193.159 228.615 193.508 227.975 194.051 227.171C194.116 227.073 194.871 226.225 195.042 226.302C196.36 226.9 195.406 229.566 194.102 230.409Z" fill="#FBFBFB"/>
<path fill-rule="evenodd" clip-rule="evenodd" d="M112.833 257.793C109.765 256.539 109.339 253.203 112.06 251.739L202.592 203.027C203.784 202.385 205.335 202.277 206.726 202.739L258.277 219.841C261.496 220.909 262.231 224.288 259.595 225.903L171.798 279.705C170.486 280.509 168.666 280.618 167.118 279.985L112.833 257.793Z" fill="#949494"/>
<path fill-rule="evenodd" clip-rule="evenodd" d="M194.031 229.391C193.524 229.701 195.11 227.976 195.299 227.793C195.993 227.122 199.26 225.574 200.546 225.978C202.105 226.466 199.92 228.094 200.813 229.026C202.166 230.439 204.643 229.601 204.784 229.645C205.085 229.74 205.357 231.256 205.22 232.291C205.098 233.205 204.333 234.018 204.018 234.291C203.106 235.078 201.198 235.191 200.438 236.047C198.696 238.009 197.918 238.088 195.716 237.891C189.987 237.379 185.807 230.989 194.01 229.299" fill="#FBFBFB"/>
<path fill-rule="evenodd" clip-rule="evenodd" d="M193.102 228.344C193.05 228.378 192.89 228.233 192.849 228.192C192.605 227.948 192.484 227.709 192.396 227.397C192.159 226.55 192.508 225.91 193.051 225.106C193.116 225.008 193.871 224.16 194.042 224.237C195.36 224.835 194.406 227.501 193.102 228.344Z" fill="#FBFBFB"/>
<path fill-rule="evenodd" clip-rule="evenodd" d="M172.778 212.47C172.87 210.263 174.483 207.558 176.381 206.428L266.166 153.012C268.064 151.883 269.529 152.756 269.438 154.964L266.748 219.954C266.657 222.161 265.044 224.866 263.145 225.996L173.361 279.412C171.462 280.541 169.997 279.668 170.089 277.46L171.88 234.178L172.778 212.47Z" fill="#C1C1C1"/>
<path fill-rule="evenodd" clip-rule="evenodd" d="M219.083 213.175C218.571 213.479 220.675 211.425 220.91 211.213C221.774 210.438 224.763 209.144 225.261 210.115C225.864 211.292 223.469 213.025 223.377 214.653C223.239 217.121 225.28 216.63 225.334 216.736C225.451 216.964 224.597 219.262 223.822 220.735C223.137 222.036 222.135 222.999 221.764 223.304C220.692 224.186 219.476 223.784 218.449 224.81C216.094 227.163 215.576 227.048 214.393 226.107C211.314 223.659 213.099 213.072 219.132 213.034" fill="#FBFBFB"/>
<path fill-rule="evenodd" clip-rule="evenodd" d="M219.229 211.368C219.175 211.402 219.177 211.143 219.18 211.07C219.198 210.641 219.285 210.256 219.442 209.773C219.868 208.465 220.505 207.632 221.368 206.617C221.472 206.493 222.492 205.476 222.542 205.64C222.929 206.905 220.572 210.522 219.229 211.368Z" fill="#FBFBFB"/>
<circle cx="49.0664" cy="169.066" r="16.0664" fill="#F25E5E"/>
<path d="M50.6864 167.132C50.6864 170.761 47.785 173.702 44.2059 173.702C40.6268 173.702 37.7253 170.761 37.7253 167.132C37.7253 163.503 40.6268 160.561 44.2059 160.561C47.785 160.561 50.6864 163.503 50.6864 167.132Z" fill="white"/>
<path d="M60.4072 167.132C60.4072 170.761 57.5058 173.702 53.9267 173.702C50.3476 173.702 47.4462 170.761 47.4462 167.132C47.4462 163.503 50.3476 160.561 53.9267 160.561C57.5058 160.561 60.4072 163.503 60.4072 167.132Z" fill="white"/>
<path d="M39.9014 172.06L49.0663 162.767L58.2312 172.06L49.0663 181.352L39.9014 172.06Z" fill="white"/>
<circle cx="282.493" cy="131.493" r="22.4929" fill="#F25E5E"/>
<path d="M284.761 128.784C284.761 133.865 280.699 137.983 275.688 137.983C270.677 137.983 266.615 133.865 266.615 128.784C266.615 123.704 270.677 119.585 275.688 119.585C280.699 119.585 284.761 123.704 284.761 128.784Z" fill="white"/>
<path d="M298.37 128.784C298.37 133.865 294.308 137.983 289.297 137.983C284.287 137.983 280.225 133.865 280.225 128.784C280.225 123.704 284.287 119.585 289.297 119.585C294.308 119.585 298.37 123.704 298.37 128.784Z" fill="white"/>
<path d="M269.662 135.684L282.493 122.674L295.324 135.684L282.493 148.693L269.662 135.684Z" fill="white"/>
<circle cx="223.066" cy="100.066" r="16.0664" fill="#F25E5E"/>
<path d="M224.686 98.1315C224.686 101.761 221.785 104.702 218.206 104.702C214.627 104.702 211.725 101.761 211.725 98.1315C211.725 94.5025 214.627 91.5606 218.206 91.5606C221.785 91.5606 224.686 94.5025 224.686 98.1315Z" fill="white"/>
<path d="M234.407 98.1315C234.407 101.761 231.506 104.702 227.927 104.702C224.348 104.702 221.446 101.761 221.446 98.1315C221.446 94.5025 224.348 91.5606 227.927 91.5606C231.506 91.5606 234.407 94.5025 234.407 98.1315Z" fill="white"/>
<path d="M213.901 103.06L223.066 93.767L232.231 103.06L223.066 112.352L213.901 103.06Z" fill="white"/>
<circle cx="194.066" cy="155.066" r="16.0664" fill="#FFD130"/>
<path d="M187.64 151.686C187.64 153.369 186.201 154.733 184.427 154.733C182.652 154.733 181.213 153.369 181.213 151.686C181.213 150.004 182.652 148.64 184.427 148.64C186.201 148.64 187.64 150.004 187.64 151.686Z" fill="#F25E5E"/>
<path d="M192.46 151.686C192.46 153.369 191.021 154.733 189.247 154.733C187.472 154.733 186.033 153.369 186.033 151.686C186.033 150.004 187.472 148.64 189.247 148.64C191.021 148.64 192.46 150.004 192.46 151.686Z" fill="#F25E5E"/>
<path d="M182.292 153.971L186.837 149.663L191.381 153.971L186.837 158.28L182.292 153.971Z" fill="#F25E5E"/>
<path d="M202.1 151.686C202.1 153.369 200.661 154.733 198.886 154.733C197.112 154.733 195.673 153.369 195.673 151.686C195.673 150.004 197.112 148.64 198.886 148.64C200.661 148.64 202.1 150.004 202.1 151.686Z" fill="#F25E5E"/>
<path d="M206.92 151.686C206.92 153.369 205.481 154.733 203.706 154.733C201.932 154.733 200.493 153.369 200.493 151.686C200.493 150.004 201.932 148.64 203.706 148.64C205.481 148.64 206.92 150.004 206.92 151.686Z" fill="#F25E5E"/>
<path d="M196.752 153.971L201.296 149.663L205.841 153.971L201.296 158.28L196.752 153.971Z" fill="#F25E5E"/>
<path d="M202.1 161.493H186.033C186.033 161.493 187.64 166.313 194.066 166.313C200.493 166.313 202.1 161.493 202.1 161.493Z" fill="#D69B04"/>
<path d="M202.1 161.493H186.033C186.033 161.493 187.64 166.313 194.066 166.313C200.493 166.313 202.1 161.493 202.1 161.493Z" fill="url(#paint0_linear)"/>
<circle cx="40.5" cy="89.5" r="14.5" fill="#FFD130"/>
<path d="M34.6999 86.4495C34.6999 87.968 33.4015 89.199 31.7999 89.199C30.1983 89.199 28.8999 87.968 28.8999 86.4495C28.8999 84.931 30.1983 83.7 31.7999 83.7C33.4015 83.7 34.6999 84.931 34.6999 86.4495Z" fill="#F25E5E"/>
<path d="M39.0499 86.4495C39.0499 87.968 37.7515 89.199 36.1499 89.199C34.5483 89.199 33.2499 87.968 33.2499 86.4495C33.2499 84.931 34.5483 83.7 36.1499 83.7C37.7515 83.7 39.0499 84.931 39.0499 86.4495Z" fill="#F25E5E"/>
<path d="M29.8737 88.5116L33.9749 84.6232L38.0761 88.5116L33.9749 92.4L29.8737 88.5116Z" fill="#F25E5E"/>
<path d="M47.75 86.4495C47.75 87.968 46.4516 89.199 44.85 89.199C43.2483 89.199 41.95 87.968 41.95 86.4495C41.95 84.931 43.2483 83.7 44.85 83.7C46.4516 83.7 47.75 84.931 47.75 86.4495Z" fill="#F25E5E"/>
<path d="M52.1 86.4495C52.1 87.968 50.8016 89.199 49.2 89.199C47.5983 89.199 46.3 87.968 46.3 86.4495C46.3 84.931 47.5983 83.7 49.2 83.7C50.8016 83.7 52.1 84.931 52.1 86.4495Z" fill="#F25E5E"/>
<path d="M42.9237 88.5116L47.0249 84.6232L51.1262 88.5116L47.0249 92.4L42.9237 88.5116Z" fill="#F25E5E"/>
<path d="M47.75 95.3H33.25C33.25 95.3 34.7 99.65 40.5 99.65C46.3 99.65 47.75 95.3 47.75 95.3Z" fill="#D69B04"/>
<path d="M47.75 95.3H33.25C33.25 95.3 34.7 99.65 40.5 99.65C46.3 99.65 47.75 95.3 47.75 95.3Z" fill="url(#paint1_linear)"/>
<circle cx="113.493" cy="252.493" r="22.4929" fill="#FFD130"/>
<path d="M104.496 247.761C104.496 250.116 102.482 252.026 99.9971 252.026C97.5126 252.026 95.4985 250.116 95.4985 247.761C95.4985 245.405 97.5126 243.496 99.9971 243.496C102.482 243.496 104.496 245.405 104.496 247.761Z" fill="#F25E5E"/>
<path d="M111.244 247.761C111.244 250.116 109.229 252.026 106.745 252.026C104.26 252.026 102.246 250.116 102.246 247.761C102.246 245.405 104.26 243.496 106.745 243.496C109.229 243.496 111.244 245.405 111.244 247.761Z" fill="#F25E5E"/>
<path d="M97.0091 250.96L103.371 244.928L109.733 250.96L103.371 256.991L97.0091 250.96Z" fill="#F25E5E"/>
<path d="M124.739 247.761C124.739 250.116 122.725 252.026 120.241 252.026C117.756 252.026 115.742 250.116 115.742 247.761C115.742 245.405 117.756 243.496 120.241 243.496C122.725 243.496 124.739 245.405 124.739 247.761Z" fill="#F25E5E"/>
<path d="M131.487 247.761C131.487 250.116 129.473 252.026 126.989 252.026C124.504 252.026 122.49 250.116 122.49 247.761C122.49 245.405 124.504 243.496 126.989 243.496C129.473 243.496 131.487 245.405 131.487 247.761Z" fill="#F25E5E"/>
<path d="M117.253 250.96L123.615 244.928L129.977 250.96L123.615 256.991L117.253 250.96Z" fill="#F25E5E"/>
<path d="M124.739 261.49H102.246C102.246 261.49 104.496 268.238 113.493 268.238C122.49 268.238 124.739 261.49 124.739 261.49Z" fill="#D69B04"/>
<path d="M124.739 261.49H102.246C102.246 261.49 104.496 268.238 113.493 268.238C122.49 268.238 124.739 261.49 124.739 261.49Z" fill="url(#paint2_linear)"/>
<defs>
<linearGradient id="paint0_linear" x1="194.066" y1="161.493" x2="194.066" y2="166.313" gradientUnits="userSpaceOnUse">
<stop offset="0.359375" stop-color="#FF0000" stop-opacity="0.29"/>
<stop offset="1" stop-color="white" stop-opacity="0"/>
</linearGradient>
<linearGradient id="paint1_linear" x1="40.5" y1="95.3" x2="40.5" y2="99.65" gradientUnits="userSpaceOnUse">
<stop offset="0.359375" stop-color="#FF0000" stop-opacity="0.29"/>
<stop offset="1" stop-color="white" stop-opacity="0"/>
</linearGradient>
<linearGradient id="paint2_linear" x1="113.493" y1="261.49" x2="113.493" y2="268.238" gradientUnits="userSpaceOnUse">
<stop offset="0.359375" stop-color="#FF0000" stop-opacity="0.29"/>
<stop offset="1" stop-color="white" stop-opacity="0"/>
</linearGradient>
</defs>
</svg>
