<svg width="513" height="618" viewBox="0 0 513 618" fill="none" xmlns="http://www.w3.org/2000/svg">
<path d="M0 31.7887C0 15.8523 15.2462 4.34169 30.5732 8.7064L207.898 59.2037C218.212 62.1406 225.325 71.5627 225.325 82.286V535.315C225.325 546.038 218.212 555.46 207.898 558.397L30.5732 608.895C15.2462 613.259 0 601.749 0 585.812V31.7887Z" fill="#343434"/>
<path d="M11.6748 26.4906C11.6748 13.2102 24.3799 3.61807 37.1525 7.25533L222.478 60.0308C231.072 62.4782 237 70.33 237 79.266V538.335C237 547.271 231.072 555.123 222.478 557.57L37.1525 610.346C24.38 613.983 11.6748 604.391 11.6748 591.11V26.4906Z" fill="#5C5C5C"/>
<path d="M29.1873 45.532L220.655 96.9621V489.117L29.1873 540.547V45.532Z" fill="#EFEFEF"/>
<g filter="url(#filter0_i)">
<circle r="18.1633" transform="matrix(0.707107 -0.707107 0.348081 0.937464 138.249 544.733)" fill="#5C5C5C"/>
</g>
<circle r="17.1633" transform="matrix(0.707107 -0.707107 0.348081 0.937464 138.249 544.733)" stroke="#BABABA" stroke-width="2"/>
<path d="M111.721 43.4377L159.582 57.575C160.324 58.3217 160.863 58.9398 161.218 59.4642C161.59 60.0131 161.724 60.4067 161.725 60.7166C161.726 61.0284 161.592 61.3618 161.209 61.7287C160.844 62.0781 160.285 62.427 159.505 62.7975L111.587 48.6431C110.024 47.6891 109.393 46.9227 109.184 46.3867C108.986 45.8818 109.097 45.3948 109.479 44.9132C109.858 44.4367 110.437 44.0561 110.943 43.7905C111.193 43.6596 111.418 43.5603 111.579 43.494C111.635 43.4713 111.683 43.4525 111.721 43.4377Z" fill="#BABABA" stroke="#BABABA"/>
<path fill-rule="evenodd" clip-rule="evenodd" d="M106.52 182.013C102.724 177.558 100.155 172.097 100.584 165.979C101.821 148.349 126.362 152.228 131.135 161.125C135.909 170.023 135.342 192.593 129.172 194.183C126.712 194.817 121.47 193.264 116.136 190.048L119.484 213.737H99.7136L106.52 182.013Z" fill="#F06040"/>
<path fill-rule="evenodd" clip-rule="evenodd" d="M122.416 162.416C119.733 163.917 117.823 166.729 115.525 170.417C114.965 170.197 114.355 170.077 113.718 170.077C110.988 170.077 108.775 172.289 108.775 175.019C108.775 176.405 109.345 177.658 110.264 178.555C109.12 180.169 107.838 181.856 106.37 183.596C100.889 180.307 96.8124 170.724 102.046 161.472C106.548 142.939 132.062 154.442 136.97 151.317C138.043 158.042 134.582 163.464 122.416 162.416Z" fill="#25409D"/>
<g clip-path="url(#clip0)">
<path fill-rule="evenodd" clip-rule="evenodd" d="M88.0889 292.295L117.955 397.101L139.745 474.349H155.638L132.483 292.295H88.0889Z" fill="#0A092C"/>
<path fill-rule="evenodd" clip-rule="evenodd" d="M80.102 292.295C79.4112 346.314 77.0556 375.777 76.3303 380.684C75.605 385.592 64.6379 416.814 43.4292 474.349H59.8934C86.8938 419.154 101.966 387.932 105.11 380.684C108.255 373.437 117.958 343.974 132.573 292.295H80.102Z" fill="#1C214D"/>
<path fill-rule="evenodd" clip-rule="evenodd" d="M41.9575 489.177L42.7813 471.878H60.0806C68.2834 477.644 78.9925 482.313 92.2078 485.882V489.177H60.9043L50.1953 487.53V489.177H41.9575Z" fill="#0A092C"/>
<path fill-rule="evenodd" clip-rule="evenodd" d="M137.515 489.177L138.339 471.878H155.638C163.841 477.644 174.55 482.313 187.766 485.882V489.177H156.462L145.753 487.53V489.177H137.515Z" fill="#0A092C"/>
</g>
<path fill-rule="evenodd" clip-rule="evenodd" d="M164.602 271.802L187.938 294.567C194.728 297.463 200.291 300.661 204.628 304.161C205.604 305.337 206.665 307.591 202.077 306.583C197.488 305.574 192.616 304.719 191.754 306.212C190.891 307.704 193.432 309.991 191.839 311.944C190.776 313.246 187.202 309.104 181.118 299.519L156.852 285.213L164.602 271.802ZM61.0239 275.012L78.2387 275.08C67.6094 309.393 61.8711 327.6 61.0239 329.699C59.1178 334.423 63.1515 341.618 64.8764 345.484C59.2583 347.998 59.8569 338.688 52.7697 341.985C46.3008 344.994 41.38 350.447 33.9062 345.836C32.9873 345.269 31.9804 343.134 34.4132 341.466C40.4744 337.31 49.2088 330.036 50.389 327.642C51.9984 324.377 55.5433 306.834 61.0239 275.012Z" fill="#F06040"/>
<path fill-rule="evenodd" clip-rule="evenodd" d="M109.946 202.777L117.069 201.555C129.333 232.192 150.744 260.029 181.304 285.067L158.212 313.121C127.656 277.471 108.821 240.69 109.946 202.777Z" fill="#3A47BB"/>
<path fill-rule="evenodd" clip-rule="evenodd" d="M78.8931 292.295H142.324C127.628 256.564 120.281 226.211 120.281 201.236L101.147 198.385C86.1092 222.57 81.8626 252.346 78.8931 292.295Z" fill="#DDE3E9"/>
<path fill-rule="evenodd" clip-rule="evenodd" d="M100.742 198.398C100.744 198.394 100.747 198.389 100.749 198.385L101.998 198.385C103.493 198.436 105.769 198.529 108.827 198.663L113.451 211.876C113.94 227.985 116.796 260.45 122.019 309.27H80.4386C80.5476 312.642 80.7273 316.045 80.9778 319.48H50.061C54.6856 267.305 71.5741 226.94 100.726 198.385L100.742 198.398Z" fill="#4D5CE9"/>
<path fill-rule="evenodd" clip-rule="evenodd" d="M83.1856 266.126C84.3689 287.145 87.3317 301.634 92.0739 309.594H80.4497C79.9408 294.472 80.8527 279.983 83.1856 266.126V266.126Z" fill="black" fill-opacity="0.1"/>
<path fill-rule="evenodd" clip-rule="evenodd" d="M89.6938 284.057L110.197 274.526V284.057H89.6938Z" fill="white" fill-opacity="0.2"/>
<path fill-rule="evenodd" clip-rule="evenodd" d="M404.252 348.057C408.07 343.576 410.653 338.084 410.222 331.93C408.978 314.201 384.297 318.101 379.496 327.049C374.695 335.998 375.266 358.697 381.471 360.296C383.945 360.934 389.216 359.371 394.581 356.138L391.214 379.961H411.097L404.252 348.057Z" fill="#B8A6FF"/>
<path fill-rule="evenodd" clip-rule="evenodd" d="M390.829 316.736C393.45 316.306 400.506 316.011 401.807 316.011C402.639 316.011 403.54 316.201 404.032 315.437C404.436 314.812 404.288 313.755 404.408 313.029C404.548 312.186 404.747 311.354 404.947 310.524C405.519 308.163 406.383 305.916 407.592 303.806C409.861 299.849 413.184 296.749 417.38 294.945C422.013 292.953 427.256 292.497 432.239 292.901C437.573 293.333 442.4 295.094 447.436 296.751C452.234 298.33 457.26 298.951 462.279 298.18C467.335 297.403 471.156 294.663 475.421 292.061C479.787 289.398 484.777 287.657 489.939 288.057C494.757 288.431 499.198 290.42 503.182 293.078C506.91 295.565 509.986 298.556 511.722 302.767C513.59 307.296 513.589 312.268 510.517 316.27C506.064 322.072 497.797 323.573 490.92 323.424C486.942 323.338 483.035 322.612 479.28 321.291C474.271 319.529 469.943 316.543 465.257 314.12C463.058 312.983 460.785 312.05 458.403 311.377C456.091 310.724 453.814 310.425 451.72 311.821C449.506 313.299 447.522 314.75 444.988 315.675C442.558 316.563 439.984 317.059 437.395 317.039C432.357 317 427.391 315.43 422.498 314.379C418.508 313.522 414.239 312.667 410.171 313.491C408.474 313.835 405.995 314.545 405.382 316.309C415.7 318.179 419.752 330.94 416.844 340.308C415.274 345.364 405.836 351.274 402.167 348.616C399.842 346.932 401.254 344.722 402.167 343.262C403.916 340.468 404.515 336.878 401.278 334.932C398.486 333.254 395.551 337.239 395.495 337.234C394.728 337.174 388.098 333.424 383.53 327.953C379.024 328.22 378.34 325.248 379.416 322.818C380.492 320.388 387.208 317.33 390.829 316.736Z" fill="#065AA8"/>
<path d="M419.382 592.88C384.15 592.88 355.589 565.618 355.589 531.987C355.589 498.357 384.15 471.094 419.382 471.094C454.614 471.094 483.175 498.357 483.175 531.987C483.175 565.618 454.614 592.88 419.382 592.88Z" fill="#C5CFD6"/>
<path fill-rule="evenodd" clip-rule="evenodd" d="M298.831 583.485C309.446 559.991 317.122 539.533 320.204 528.74C325.48 510.258 329.494 493.996 330.508 487.923C332.927 473.44 311.899 472.597 309.119 479.795C304.913 490.688 297.568 526.48 288.744 580.542L298.831 583.485ZM421.96 509.754C412.221 505.904 378.114 493.856 361.664 490.448C356.937 489.469 352.356 488.559 348.048 487.737C335.245 485.292 328.612 508.39 340.943 510.165C371.652 514.584 415.188 519.149 418.913 519.661C424.135 520.379 428.081 512.173 421.96 509.754Z" fill="#B8A6FF"/>
<path fill-rule="evenodd" clip-rule="evenodd" d="M340.19 481.381L392.871 454.563V448.725H386.605C335.639 461.712 309.596 470.035 308.475 473.694C308.462 473.733 308.451 473.772 308.441 473.812C308.416 473.846 308.39 473.879 308.366 473.913C298.265 487.804 292.216 555.621 290.231 560.699L309.585 563.587C316.989 536.132 340.676 517.007 340.047 484.125C340.217 483.161 340.26 482.246 340.19 481.381Z" fill="#1F28CF"/>
<path fill-rule="evenodd" clip-rule="evenodd" d="M388.494 497.307C393.314 496.343 397.753 495.481 401.551 494.815C426.085 490.512 433.239 477.379 429.009 448.725H383.806C376.421 450.846 338.047 466.939 318.136 475.498C304.958 481.164 309.112 501.586 316.575 506.9C316.616 507.226 316.75 507.448 316.989 507.547C357.133 524.185 388.89 515.455 399.498 518.245L404.405 502.765L388.494 497.307Z" fill="#2B44FF"/>
<path fill-rule="evenodd" clip-rule="evenodd" d="M418.63 507.293C421.26 507.545 423.127 507.94 424.231 508.478C425.574 509.133 427.424 510.313 429.782 512.017C429.022 513.574 422.194 527.574 409.298 554.015C405.158 553.347 403.517 551.767 404.376 549.275C405.235 546.783 405.928 544.703 406.455 543.035L407.274 519.27C407.289 518.813 407.673 518.455 408.13 518.47C408.138 518.471 408.146 518.471 408.154 518.471L411.809 518.701C413.887 517.02 415.257 515.499 415.921 514.138C416.46 513.032 416.759 511.287 416.816 508.903L416.816 508.903C416.838 507.988 417.597 507.264 418.512 507.286C418.551 507.287 418.591 507.29 418.63 507.293Z" fill="#E4E4E4"/>
<path fill-rule="evenodd" clip-rule="evenodd" d="M303.661 579.129C304.588 581.604 305.052 583.455 305.052 584.683C305.052 586.177 304.803 588.357 304.305 591.223C302.572 591.223 286.996 591.223 257.577 591.223C256.363 587.209 257.064 585.042 259.68 584.722C262.296 584.402 264.47 584.113 266.2 583.855L287.919 574.172C288.337 573.986 288.827 574.174 289.013 574.592C289.016 574.599 289.019 574.606 289.022 574.613L290.418 578C292.84 579.13 294.808 579.695 296.322 579.695C297.553 579.695 299.252 579.198 301.419 578.204L301.419 578.204C302.251 577.823 303.235 578.188 303.616 579.02C303.632 579.056 303.648 579.092 303.661 579.129Z" fill="#E4E4E4"/>
<path fill-rule="evenodd" clip-rule="evenodd" d="M341.505 426.039L311.485 412.855C306.226 407.615 301.148 403.632 296.251 400.907C294.787 400.441 292.285 400.3 294.954 404.199C297.623 408.097 300.256 412.318 299.189 413.685C298.123 415.051 295.033 413.543 293.812 415.765C292.998 417.246 298.207 419.018 309.436 421.081L331.919 438.319L341.505 426.039ZM462.87 429.67L445.893 433.038C462.966 464.856 472.122 481.72 473.361 483.629C476.149 487.924 473.548 495.797 472.587 499.943C478.614 501.346 476.238 492.274 483.865 494.168C490.826 495.897 496.729 500.334 503.221 494.35C504.019 493.614 504.603 491.315 501.882 490.135C495.103 487.197 485.087 481.695 483.463 479.559C481.248 476.647 474.384 460.017 462.87 429.67Z" fill="#B8A6FF"/>
<path fill-rule="evenodd" clip-rule="evenodd" d="M399.751 366.152L392.587 364.923C376.983 380.06 370.616 416.425 360.217 421.238C350.385 425.789 336.448 421.385 319.882 415.439L314.808 426.774C329.86 443.059 361.927 456.817 374.925 448.962C395.707 436.405 400.504 391.555 399.751 366.152Z" fill="#D26C0D"/>
<path fill-rule="evenodd" clip-rule="evenodd" d="M430.98 456.181C402.256 456.181 381.126 456.181 367.592 456.181C364.696 456.181 365.242 451.999 365.66 449.888C370.493 425.531 389.357 399.274 389.357 364.602L407.641 361.735C422.764 386.057 427.994 416.004 430.98 456.181Z" fill="#4A6785"/>
<path fill-rule="evenodd" clip-rule="evenodd" d="M437.303 431.52C450.225 454.829 461.087 471.61 469.888 481.864L483.175 479.262C474.616 426.183 449.831 387.007 408.82 361.735H405.52L401.581 361.735C385.167 417.688 380.641 454.969 388.005 473.579H445.065C444.162 459.962 441.268 445.561 437.303 431.52H437.303Z" fill="#FF9533"/>
<path d="M212.483 140.931C212.483 139.826 211.588 138.931 210.483 138.931H147.936C146.832 138.931 145.936 139.826 145.936 140.931V178.428C145.936 179.533 146.832 180.428 147.936 180.428H154.847C156.514 180.428 157.449 182.347 156.423 183.66L155.921 184.302C154.428 186.211 156.984 188.634 158.811 187.041L165.833 180.92C166.197 180.603 166.664 180.428 167.147 180.428H210.483C211.588 180.428 212.483 179.533 212.483 178.428V140.931Z" fill="#757B7D"/>
<circle r="3.72408" transform="matrix(-1 0 0 1 195.725 161.276)" fill="#FDEFEF"/>
<circle r="3.72408" transform="matrix(-1 0 0 1 178.967 161.276)" fill="#FDEFEF"/>
<circle r="3.72408" transform="matrix(-1 0 0 1 162.208 161.276)" fill="#FDEFEF"/>
<path d="M326 275C355.271 275 379 251.271 379 222C379 192.729 355.271 169 326 169C296.729 169 273 192.729 273 222C273 251.271 296.729 275 326 275Z" fill="#F2F2F2"/>
<path d="M326 183C327.657 183 329 181.657 329 180C329 178.343 327.657 177 326 177C324.343 177 323 178.343 323 180C323 181.657 324.343 183 326 183Z" fill="black" fill-opacity="0.1"/>
<path d="M284 225C285.657 225 287 223.657 287 222C287 220.343 285.657 219 284 219C282.343 219 281 220.343 281 222C281 223.657 282.343 225 284 225Z" fill="black" fill-opacity="0.1"/>
<path d="M368 225C369.657 225 371 223.657 371 222C371 220.343 369.657 219 368 219C366.343 219 365 220.343 365 222C365 223.657 366.343 225 368 225Z" fill="black" fill-opacity="0.1"/>
<path d="M326 267C327.657 267 329 265.657 329 264C329 262.343 327.657 261 326 261C324.343 261 323 262.343 323 264C323 265.657 324.343 267 326 267Z" fill="black" fill-opacity="0.1"/>
<path fill-rule="evenodd" clip-rule="evenodd" d="M326 186L328 221H324L326 186Z" fill="#AFB9C5"/>
<path fill-rule="evenodd" clip-rule="evenodd" d="M343.699 239.698L325.314 224.142L328.142 221.314L343.699 239.698Z" fill="#AFB9C5"/>
<path d="M326 226C328.209 226 330 224.209 330 222C330 219.791 328.209 218 326 218C323.791 218 322 219.791 322 222C322 224.209 323.791 226 326 226Z" fill="#C5CFD6"/>
<defs>
<filter id="filter0_i" x="123.931" y="523.404" width="28.6368" height="46.6586" filterUnits="userSpaceOnUse" color-interpolation-filters="sRGB">
<feFlood flood-opacity="0" result="BackgroundImageFix"/>
<feBlend mode="normal" in="SourceGraphic" in2="BackgroundImageFix" result="shape"/>
<feColorMatrix in="SourceAlpha" type="matrix" values="0 0 0 0 0 0 0 0 0 0 0 0 0 0 0 0 0 0 127 0" result="hardAlpha"/>
<feOffset dy="4"/>
<feGaussianBlur stdDeviation="2"/>
<feComposite in2="hardAlpha" operator="arithmetic" k2="-1" k3="1"/>
<feColorMatrix type="matrix" values="0 0 0 0 0 0 0 0 0 0 0 0 0 0 0 0 0 0 0.5 0"/>
<feBlend mode="normal" in2="shape" result="effect1_innerShadow"/>
</filter>
<clipPath id="clip0">
<rect width="145.808" height="196.882" fill="white" transform="translate(41.9575 292.295)"/>
</clipPath>
</defs>
</svg>
