<svg width="91" height="91" viewBox="0 0 91 91" fill="none" xmlns="http://www.w3.org/2000/svg">
<circle cx="45.5" cy="45.5" r="45.5" fill="#2C2C2C"/>
<path d="M63.914 39.6157C62.387 39.6157 61.0432 40.2522 60.0558 41.2479C56.4215 38.7123 51.5248 37.0801 46.0988 36.9056L48.9187 24.0942L57.8976 26.1268C57.8976 28.3441 59.6893 30.1509 61.8882 30.1509C64.1278 30.1509 65.9297 28.2928 65.9297 26.0754C65.9297 23.8581 64.138 22 61.8882 22C60.3204 22 58.9665 22.9547 58.2946 24.2584L48.3792 22.0411C47.8803 21.9076 47.3917 22.2669 47.2593 22.7699L44.1646 36.8953C38.7793 37.1212 33.9336 38.7534 30.2891 41.289C29.3016 40.2522 27.9069 39.6157 26.3799 39.6157C20.7198 39.6157 18.867 47.2738 24.0487 49.8915C23.8654 50.7025 23.784 51.5648 23.784 52.4271C23.784 61.0297 33.394 68 45.1928 68C57.0424 68 66.6525 61.0297 66.6525 52.4271C66.6525 51.5648 66.5609 50.6615 66.3369 49.8505C71.4168 47.2225 69.5436 39.6157 63.914 39.6157V39.6157ZM32.264 50.4356C32.264 48.1772 34.0557 46.3602 36.3055 46.3602C38.5044 46.3602 40.2961 48.1669 40.2961 50.4356C40.2961 52.653 38.5044 54.4597 36.3055 54.4597C34.0659 54.47 32.264 52.653 32.264 50.4356V50.4356ZM54.08 60.0339C50.3745 63.7706 39.9195 63.7706 36.2139 60.0339C35.8067 59.6746 35.8067 59.0382 36.2139 58.6275C36.5702 58.2682 37.2014 58.2682 37.5577 58.6275C40.3878 61.5532 49.7738 61.6046 52.7261 58.6275C53.0824 58.2682 53.7135 58.2682 54.0698 58.6275C54.4872 59.0382 54.4872 59.6746 54.08 60.0339ZM53.9986 54.47C51.7997 54.47 50.008 52.6632 50.008 50.4459C50.008 48.1875 51.7997 46.3705 53.9986 46.3705C56.2382 46.3705 58.0401 48.1772 58.0401 50.4459C58.0299 52.653 56.2382 54.47 53.9986 54.47Z" fill="#EFEFEF"/>
</svg>