<svg width="120" height="44" viewBox="0 0 120 44" fill="none" xmlns="http://www.w3.org/2000/svg">
<path d="M0 2C0 0.895431 0.895431 0 2 0H118C119.105 0 120 0.895431 120 2V22.5V42C120 43.1046 119.105 44 118 44H2C0.895429 44 0 43.1046 0 42V2Z" fill="#2C2C2C"/>
<path d="M7.648 25.716C7.828 24.708 8.164 23.964 8.656 23.484C9.148 22.992 9.766 22.746 10.51 22.746C10.846 22.746 11.14 22.8 11.392 22.908C11.656 23.016 11.956 23.178 12.292 23.394C12.592 23.574 12.826 23.706 12.994 23.79C13.174 23.874 13.372 23.916 13.588 23.916C13.888 23.916 14.152 23.82 14.38 23.628C14.62 23.424 14.764 23.142 14.812 22.782H16.306C16.126 23.79 15.784 24.54 15.28 25.032C14.788 25.512 14.17 25.752 13.426 25.752C13.09 25.752 12.796 25.698 12.544 25.59C12.292 25.482 11.998 25.32 11.662 25.104C11.398 24.924 11.17 24.792 10.978 24.708C10.786 24.624 10.582 24.582 10.366 24.582C10.054 24.582 9.778 24.684 9.538 24.888C9.31 25.08 9.172 25.356 9.124 25.716H7.648ZM22.435 18.75V16.878H26.179V30H24.109V18.75H22.435ZM36.162 30L31.32 24.402V30H29.268V17.49H31.32V23.196L36.18 17.49H38.754L33.318 23.754L38.844 30H36.162ZM49.4564 30.126C48.6164 30.126 47.8604 29.982 47.1884 29.694C46.5164 29.394 45.9884 28.974 45.6044 28.434C45.2204 27.894 45.0284 27.264 45.0284 26.544H47.2244C47.2724 27.084 47.4824 27.528 47.8544 27.876C48.2384 28.224 48.7724 28.398 49.4564 28.398C50.1644 28.398 50.7164 28.23 51.1124 27.894C51.5084 27.546 51.7064 27.102 51.7064 26.562C51.7064 26.142 51.5804 25.8 51.3284 25.536C51.0884 25.272 50.7824 25.068 50.4104 24.924C50.0504 24.78 49.5464 24.624 48.8984 24.456C48.0824 24.24 47.4164 24.024 46.9004 23.808C46.3964 23.58 45.9644 23.232 45.6044 22.764C45.2444 22.296 45.0644 21.672 45.0644 20.892C45.0644 20.172 45.2444 19.542 45.6044 19.002C45.9644 18.462 46.4684 18.048 47.1164 17.76C47.7644 17.472 48.5144 17.328 49.3664 17.328C50.5784 17.328 51.5684 17.634 52.3364 18.246C53.1164 18.846 53.5484 19.674 53.6324 20.73H51.3644C51.3284 20.274 51.1124 19.884 50.7164 19.56C50.3204 19.236 49.7984 19.074 49.1504 19.074C48.5624 19.074 48.0824 19.224 47.7104 19.524C47.3384 19.824 47.1524 20.256 47.1524 20.82C47.1524 21.204 47.2664 21.522 47.4944 21.774C47.7344 22.014 48.0344 22.206 48.3944 22.35C48.7544 22.494 49.2464 22.65 49.8704 22.818C50.6984 23.046 51.3704 23.274 51.8864 23.502C52.4144 23.73 52.8584 24.084 53.2184 24.564C53.5904 25.032 53.7764 25.662 53.7764 26.454C53.7764 27.09 53.6024 27.69 53.2544 28.254C52.9184 28.818 52.4204 29.274 51.7604 29.622C51.1124 29.958 50.3444 30.126 49.4564 30.126ZM66.1877 17.49V30H64.1357V24.528H58.2497V30H56.1977V17.49H58.2497V22.854H64.1357V17.49H66.1877ZM76.4311 27.444H71.1931L70.2931 30H68.1511L72.6331 17.472H75.0091L79.4911 30H77.3311L76.4311 27.444ZM75.8551 25.77L73.8211 19.956L71.7691 25.77H75.8551ZM87.9378 30L85.0578 24.996H83.4918V30H81.4398V17.49H85.7598C86.7198 17.49 87.5298 17.658 88.1898 17.994C88.8618 18.33 89.3598 18.78 89.6838 19.344C90.0198 19.908 90.1878 20.538 90.1878 21.234C90.1878 22.05 89.9478 22.794 89.4678 23.466C88.9998 24.126 88.2738 24.576 87.2898 24.816L90.3858 30H87.9378ZM83.4918 23.358H85.7598C86.5278 23.358 87.1038 23.166 87.4878 22.782C87.8838 22.398 88.0818 21.882 88.0818 21.234C88.0818 20.586 87.8898 20.082 87.5058 19.722C87.1218 19.35 86.5398 19.164 85.7598 19.164H83.4918V23.358ZM94.8649 19.146V22.818H99.1849V24.492H94.8649V28.326H99.7249V30H92.8129V17.472H99.7249V19.146H94.8649ZM106.374 30.126C105.534 30.126 104.778 29.982 104.106 29.694C103.434 29.394 102.906 28.974 102.522 28.434C102.138 27.894 101.946 27.264 101.946 26.544H104.142C104.19 27.084 104.4 27.528 104.772 27.876C105.156 28.224 105.69 28.398 106.374 28.398C107.082 28.398 107.634 28.23 108.03 27.894C108.426 27.546 108.624 27.102 108.624 26.562C108.624 26.142 108.498 25.8 108.246 25.536C108.006 25.272 107.7 25.068 107.328 24.924C106.968 24.78 106.464 24.624 105.816 24.456C105 24.24 104.334 24.024 103.818 23.808C103.314 23.58 102.882 23.232 102.522 22.764C102.162 22.296 101.982 21.672 101.982 20.892C101.982 20.172 102.162 19.542 102.522 19.002C102.882 18.462 103.386 18.048 104.034 17.76C104.682 17.472 105.432 17.328 106.284 17.328C107.496 17.328 108.486 17.634 109.254 18.246C110.034 18.846 110.466 19.674 110.55 20.73H108.282C108.246 20.274 108.03 19.884 107.634 19.56C107.238 19.236 106.716 19.074 106.068 19.074C105.48 19.074 105 19.224 104.628 19.524C104.256 19.824 104.07 20.256 104.07 20.82C104.07 21.204 104.184 21.522 104.412 21.774C104.652 22.014 104.952 22.206 105.312 22.35C105.672 22.494 106.164 22.65 106.788 22.818C107.616 23.046 108.288 23.274 108.804 23.502C109.332 23.73 109.776 24.084 110.136 24.564C110.508 25.032 110.694 25.662 110.694 26.454C110.694 27.09 110.52 27.69 110.172 28.254C109.836 28.818 109.338 29.274 108.678 29.622C108.03 29.958 107.262 30.126 106.374 30.126Z" fill="#EFEFEF"/>
</svg>