<svg width="91" height="91" viewBox="0 0 91 91" fill="none" xmlns="http://www.w3.org/2000/svg">
<circle cx="45.5" cy="45.5" r="45.5" fill="#2C2C2C"/>
<path d="M60.6789 66.152C59.2518 67.4547 55.4323 69 50.4585 69C37.7828 69 35.0336 61.0219 35.0336 56.368V43.4305H30.0493C29.4722 43.4305 29 43.0262 29 42.532V36.4227C29 35.7758 29.4722 35.2008 30.1857 34.9852C36.6915 33.0266 38.7377 28.157 39.0315 24.4645C39.1154 23.4762 39.7135 23 40.7209 23H48.1605C48.7376 23 49.2098 23.4043 49.2098 23.8984V34.2484H57.9192C58.4963 34.2484 58.9685 34.6438 58.9685 35.1379V42.4781C58.9685 42.9723 58.4963 43.3766 57.9192 43.3766H49.1679V55.3438C49.1679 58.4164 51.6547 60.1594 56.3032 58.5602C56.8069 58.3895 57.2476 58.2727 57.6358 58.3625C58.0031 58.4434 58.2444 58.668 58.4123 59.0723L60.7208 64.8492C60.9097 65.2984 61.0671 65.8016 60.6789 66.152Z" fill="#EFEFEF"/>
</svg>