<svg width="91" height="91" viewBox="0 0 91 91" fill="none" xmlns="http://www.w3.org/2000/svg">
<circle cx="45.5" cy="45.5" r="45.5" fill="#2C2C2C"/>
<path d="M66.581 34.464C66.614 34.9671 66.614 35.4703 66.614 35.9734C66.614 51.3187 55.9076 69 36.3396 69C30.3111 69 24.7108 67.0952 20 63.7891C20.8565 63.8969 21.68 63.9328 22.5695 63.9328C27.5438 63.9328 32.1229 62.1001 35.7796 58.9735C31.1017 58.8656 27.1815 55.5235 25.8308 50.9234C26.4897 51.0312 27.1485 51.1031 27.8404 51.1031C28.7957 51.1031 29.7511 50.9593 30.6405 50.7078C25.765 49.6296 22.1082 44.9578 22.1082 39.3156V39.1719C23.5247 40.0344 25.172 40.5735 26.9178 40.6453C24.0518 38.5608 22.1742 35.0031 22.1742 30.978C22.1742 28.8218 22.7011 26.8453 23.6236 25.1203C28.8615 32.164 36.7349 36.7639 45.5634 37.2671C45.3987 36.4046 45.2999 35.5063 45.2999 34.6078C45.2999 28.2109 50.0437 23 55.9404 23C59.004 23 61.7712 24.4016 63.7149 26.6656C66.1196 26.1625 68.4256 25.1922 70.4681 23.8625C69.6774 26.5579 67.9974 28.8219 65.7903 30.2593C67.9316 30.0079 70.007 29.3609 71.9176 28.4625C70.4683 30.7624 68.6564 32.8108 66.581 34.464Z" fill="#EFEFEF"/>
</svg>