<svg width="440" height="440" viewBox="0 0 440 440" fill="none" xmlns="http://www.w3.org/2000/svg">
<path d="M348 140.628C338.581 144.805 328.458 147.628 317.834 148.898C328.678 142.398 337.006 132.105 340.927 119.841C330.78 125.859 319.539 130.23 307.576 132.586C297.995 122.379 284.345 116 269.239 116C240.233 116 216.716 139.516 216.716 168.52C216.716 172.637 217.181 176.645 218.077 180.489C174.426 178.299 135.726 157.389 109.821 125.614C105.301 133.371 102.71 142.393 102.71 152.018C102.71 170.24 111.984 186.315 126.076 195.734C117.466 195.461 109.368 193.099 102.286 189.165C102.283 189.384 102.283 189.604 102.283 189.825C102.283 215.272 120.387 236.5 144.414 241.325C140.006 242.525 135.366 243.167 130.576 243.167C127.191 243.167 123.901 242.838 120.695 242.225C127.378 263.091 146.774 278.276 169.757 278.7C151.782 292.786 129.135 301.183 104.529 301.183C100.29 301.183 96.1089 300.934 92 300.449C115.243 315.351 142.851 324.046 172.511 324.046C269.117 324.046 321.944 244.015 321.944 174.611C321.944 172.333 321.893 170.068 321.792 167.816C332.053 160.411 340.958 151.161 348 140.628Z" fill="#EFEFEF"/>
</svg>
